M48
; DRILL file {KiCad 6.0.8-f2edbf62ab~116~ubuntu22.04.1} date Thu 27 Oct 2022 01:18:36 PM EDT
; FORMAT={-:-/ absolute / inch / decimal}
; #@! TF.CreationDate,2022-10-27T13:18:36-04:00
; #@! TF.GenerationSoftware,Kicad,Pcbnew,6.0.8-f2edbf62ab~116~ubuntu22.04.1
; #@! TF.FileFunction,Plated,1,2,PTH
FMAT,2
INCH
; #@! TA.AperFunction,Plated,PTH,ViaDrill
T1C0.0118
; #@! TA.AperFunction,Plated,PTH,ViaDrill
T2C0.0157
; #@! TA.AperFunction,Plated,PTH,ComponentDrill
T3C0.0315
; #@! TA.AperFunction,Plated,PTH,ComponentDrill
T4C0.0354
; #@! TA.AperFunction,Plated,PTH,ComponentDrill
T5C0.0394
; #@! TA.AperFunction,Plated,PTH,ComponentDrill
T6C0.0433
; #@! TA.AperFunction,Plated,PTH,ComponentDrill
T7C0.0591
; #@! TA.AperFunction,Plated,PTH,ComponentDrill
T8C0.1260
; #@! TA.AperFunction,Plated,PTH,ComponentDrill
T9C0.2067
%
G90
G05
T1
X4.22Y-4.02
T2
X3.46Y-4.08
X3.74Y-4.0
X3.78Y-2.9199
X3.8Y-3.5
X3.8024Y-3.3376
X3.86Y-3.5
X3.88Y-4.06
X3.94Y-2.9
X4.02Y-3.7
X4.06Y-4.04
X4.32Y-3.26
T3
X4.1613Y-4.3317
X4.24Y-4.3317
X4.3187Y-4.3317
T4
X5.26Y-4.1327
X5.36Y-4.1327
X5.4298Y-3.3
X5.46Y-4.1327
X5.5298Y-3.3
T5
X3.18Y-3.98
X3.18Y-4.08
X3.18Y-4.18
X3.68Y-4.4
X3.78Y-4.4
X3.88Y-4.4
X6.06Y-3.1406
X6.06Y-3.2406
X6.06Y-3.3406
T6
X4.1542Y-2.64
X4.1542Y-2.74
X4.1542Y-2.84
X4.1542Y-3.08
X4.1542Y-3.18
X4.1542Y-3.28
X4.5914Y-4.112
X4.5914Y-4.368
X4.7686Y-4.112
X4.7686Y-4.368
X5.3366Y-2.74
X5.3366Y-2.84
X5.3366Y-2.94
T7
X4.0786Y-4.3317
X4.4014Y-4.3317
T8
X5.12Y-2.76
X5.12Y-3.18
T9
X3.3Y-2.9835
X3.3Y-3.4165
T0
M30
