%TF.GenerationSoftware,KiCad,Pcbnew,6.0.8-f2edbf62ab~116~ubuntu22.04.1*%
%TF.CreationDate,2022-10-30T22:29:27-04:00*%
%TF.ProjectId,discharger,64697363-6861-4726-9765-722e6b696361,rev?*%
%TF.SameCoordinates,Original*%
%TF.FileFunction,Soldermask,Bot*%
%TF.FilePolarity,Negative*%
%FSLAX46Y46*%
G04 Gerber Fmt 4.6, Leading zero omitted, Abs format (unit mm)*
G04 Created by KiCad (PCBNEW 6.0.8-f2edbf62ab~116~ubuntu22.04.1) date 2022-10-30 22:29:27*
%MOMM*%
%LPD*%
G01*
G04 APERTURE LIST*
G04 Aperture macros list*
%AMRoundRect*
0 Rectangle with rounded corners*
0 $1 Rounding radius*
0 $2 $3 $4 $5 $6 $7 $8 $9 X,Y pos of 4 corners*
0 Add a 4 corners polygon primitive as box body*
4,1,4,$2,$3,$4,$5,$6,$7,$8,$9,$2,$3,0*
0 Add four circle primitives for the rounded corners*
1,1,$1+$1,$2,$3*
1,1,$1+$1,$4,$5*
1,1,$1+$1,$6,$7*
1,1,$1+$1,$8,$9*
0 Add four rect primitives between the rounded corners*
20,1,$1+$1,$2,$3,$4,$5,0*
20,1,$1+$1,$4,$5,$6,$7,0*
20,1,$1+$1,$6,$7,$8,$9,0*
20,1,$1+$1,$8,$9,$2,$3,0*%
G04 Aperture macros list end*
%ADD10C,2.000000*%
%ADD11R,1.700000X1.700000*%
%ADD12O,1.700000X1.700000*%
%ADD13C,2.200000*%
%ADD14C,1.700000*%
%ADD15O,3.500000X3.500000*%
%ADD16R,2.000000X1.905000*%
%ADD17O,2.000000X1.905000*%
%ADD18RoundRect,2.000000X2.000000X-2.000000X2.000000X2.000000X-2.000000X2.000000X-2.000000X-2.000000X0*%
%ADD19C,8.000000*%
%ADD20O,2.200000X3.500000*%
%ADD21R,1.500000X2.500000*%
%ADD22O,1.500000X2.500000*%
%ADD23C,5.600000*%
%ADD24R,1.800000X1.800000*%
%ADD25C,1.800000*%
%ADD26RoundRect,0.250000X-0.625000X0.312500X-0.625000X-0.312500X0.625000X-0.312500X0.625000X0.312500X0*%
%ADD27RoundRect,0.250000X0.625000X-0.312500X0.625000X0.312500X-0.625000X0.312500X-0.625000X-0.312500X0*%
G04 APERTURE END LIST*
D10*
%TO.C,START/STOP*%
X116622000Y-110946000D03*
X116622000Y-104446000D03*
X121122000Y-104446000D03*
X121122000Y-110946000D03*
%TD*%
D11*
%TO.C,J5*%
X153924000Y-79771000D03*
D12*
X153924000Y-82311000D03*
X153924000Y-84851000D03*
%TD*%
D13*
%TO.C,J3*%
X150494000Y-94811000D03*
X121794000Y-94811000D03*
D14*
X133604000Y-104971000D03*
X136144000Y-104971000D03*
X138684000Y-104971000D03*
%TD*%
D15*
%TO.C,Q2*%
X122176500Y-69596000D03*
D16*
X105516500Y-67056000D03*
D17*
X105516500Y-69596000D03*
X105516500Y-72136000D03*
%TD*%
D18*
%TO.C,J1*%
X83820000Y-86780000D03*
D19*
X83820000Y-75780000D03*
%TD*%
D11*
%TO.C,J4*%
X98552000Y-111760000D03*
D12*
X96012000Y-111760000D03*
X93472000Y-111760000D03*
%TD*%
D20*
%TO.C,SW1*%
X103596000Y-110025500D03*
X111796000Y-110025500D03*
D21*
X105696000Y-110025500D03*
D22*
X107696000Y-110025500D03*
X109696000Y-110025500D03*
%TD*%
D23*
%TO.C,TP1*%
X130048000Y-70104000D03*
%TD*%
D15*
%TO.C,Q3*%
X122176500Y-80772000D03*
D16*
X105516500Y-78232000D03*
D17*
X105516500Y-80772000D03*
X105516500Y-83312000D03*
%TD*%
D11*
%TO.C,J2*%
X80772000Y-101092000D03*
D12*
X80772000Y-103632000D03*
X80772000Y-106172000D03*
%TD*%
D15*
%TO.C,U3*%
X152210000Y-72136000D03*
D16*
X135550000Y-69596000D03*
D17*
X135550000Y-72136000D03*
X135550000Y-74676000D03*
%TD*%
D24*
%TO.C,D2*%
X137917000Y-83820000D03*
D25*
X140457000Y-83820000D03*
%TD*%
D23*
%TO.C,TP2*%
X130048000Y-80772000D03*
%TD*%
D26*
%TO.C,R1*%
X105664000Y-103185500D03*
X105664000Y-106110500D03*
%TD*%
D27*
%TO.C,R7*%
X102046500Y-71058500D03*
X102046500Y-68133500D03*
%TD*%
M02*
