%TF.GenerationSoftware,KiCad,Pcbnew,6.0.8-f2edbf62ab~116~ubuntu22.04.1*%
%TF.CreationDate,2022-10-27T13:18:31-04:00*%
%TF.ProjectId,discharger,64697363-6861-4726-9765-722e6b696361,rev?*%
%TF.SameCoordinates,Original*%
%TF.FileFunction,Legend,Bot*%
%TF.FilePolarity,Positive*%
%FSLAX46Y46*%
G04 Gerber Fmt 4.6, Leading zero omitted, Abs format (unit mm)*
G04 Created by KiCad (PCBNEW 6.0.8-f2edbf62ab~116~ubuntu22.04.1) date 2022-10-27 13:18:31*
%MOMM*%
%LPD*%
G01*
G04 APERTURE LIST*
%ADD10C,0.150000*%
%ADD11C,0.120000*%
G04 APERTURE END LIST*
D10*
%TO.C,R1*%
X104296380Y-104481333D02*
X103820190Y-104148000D01*
X104296380Y-103909904D02*
X103296380Y-103909904D01*
X103296380Y-104290857D01*
X103344000Y-104386095D01*
X103391619Y-104433714D01*
X103486857Y-104481333D01*
X103629714Y-104481333D01*
X103724952Y-104433714D01*
X103772571Y-104386095D01*
X103820190Y-104290857D01*
X103820190Y-103909904D01*
X104296380Y-105433714D02*
X104296380Y-104862285D01*
X104296380Y-105148000D02*
X103296380Y-105148000D01*
X103439238Y-105052761D01*
X103534476Y-104957523D01*
X103582095Y-104862285D01*
%TO.C,R7*%
X100974880Y-69429333D02*
X100498690Y-69096000D01*
X100974880Y-68857904D02*
X99974880Y-68857904D01*
X99974880Y-69238857D01*
X100022500Y-69334095D01*
X100070119Y-69381714D01*
X100165357Y-69429333D01*
X100308214Y-69429333D01*
X100403452Y-69381714D01*
X100451071Y-69334095D01*
X100498690Y-69238857D01*
X100498690Y-68857904D01*
X99974880Y-69762666D02*
X99974880Y-70429333D01*
X100974880Y-70000761D01*
D11*
%TO.C,R1*%
X104754000Y-103920936D02*
X104754000Y-105375064D01*
X106574000Y-103920936D02*
X106574000Y-105375064D01*
%TO.C,R7*%
X101136500Y-70323064D02*
X101136500Y-68868936D01*
X102956500Y-70323064D02*
X102956500Y-68868936D01*
%TD*%
M02*
