%TF.GenerationSoftware,KiCad,Pcbnew,6.0.8-f2edbf62ab~116~ubuntu22.04.1*%
%TF.CreationDate,2022-10-27T13:18:31-04:00*%
%TF.ProjectId,discharger,64697363-6861-4726-9765-722e6b696361,rev?*%
%TF.SameCoordinates,Original*%
%TF.FileFunction,Copper,L2,Bot*%
%TF.FilePolarity,Positive*%
%FSLAX46Y46*%
G04 Gerber Fmt 4.6, Leading zero omitted, Abs format (unit mm)*
G04 Created by KiCad (PCBNEW 6.0.8-f2edbf62ab~116~ubuntu22.04.1) date 2022-10-27 13:18:31*
%MOMM*%
%LPD*%
G01*
G04 APERTURE LIST*
G04 Aperture macros list*
%AMRoundRect*
0 Rectangle with rounded corners*
0 $1 Rounding radius*
0 $2 $3 $4 $5 $6 $7 $8 $9 X,Y pos of 4 corners*
0 Add a 4 corners polygon primitive as box body*
4,1,4,$2,$3,$4,$5,$6,$7,$8,$9,$2,$3,0*
0 Add four circle primitives for the rounded corners*
1,1,$1+$1,$2,$3*
1,1,$1+$1,$4,$5*
1,1,$1+$1,$6,$7*
1,1,$1+$1,$8,$9*
0 Add four rect primitives between the rounded corners*
20,1,$1+$1,$2,$3,$4,$5,0*
20,1,$1+$1,$4,$5,$6,$7,0*
20,1,$1+$1,$6,$7,$8,$9,0*
20,1,$1+$1,$8,$9,$2,$3,0*%
G04 Aperture macros list end*
%TA.AperFunction,ComponentPad*%
%ADD10C,2.000000*%
%TD*%
%TA.AperFunction,ComponentPad*%
%ADD11R,1.700000X1.700000*%
%TD*%
%TA.AperFunction,ComponentPad*%
%ADD12O,1.700000X1.700000*%
%TD*%
%TA.AperFunction,ComponentPad*%
%ADD13C,1.700000*%
%TD*%
%TA.AperFunction,ComponentPad*%
%ADD14R,2.000000X1.905000*%
%TD*%
%TA.AperFunction,ComponentPad*%
%ADD15O,2.000000X1.905000*%
%TD*%
%TA.AperFunction,ComponentPad*%
%ADD16RoundRect,2.000000X2.000000X-2.000000X2.000000X2.000000X-2.000000X2.000000X-2.000000X-2.000000X0*%
%TD*%
%TA.AperFunction,ComponentPad*%
%ADD17C,8.000000*%
%TD*%
%TA.AperFunction,ComponentPad*%
%ADD18O,2.200000X3.500000*%
%TD*%
%TA.AperFunction,ComponentPad*%
%ADD19R,1.500000X2.500000*%
%TD*%
%TA.AperFunction,ComponentPad*%
%ADD20O,1.500000X2.500000*%
%TD*%
%TA.AperFunction,ComponentPad*%
%ADD21C,5.600000*%
%TD*%
%TA.AperFunction,ComponentPad*%
%ADD22R,1.800000X1.800000*%
%TD*%
%TA.AperFunction,ComponentPad*%
%ADD23C,1.800000*%
%TD*%
%TA.AperFunction,SMDPad,CuDef*%
%ADD24RoundRect,0.250000X-0.625000X0.312500X-0.625000X-0.312500X0.625000X-0.312500X0.625000X0.312500X0*%
%TD*%
%TA.AperFunction,SMDPad,CuDef*%
%ADD25RoundRect,0.250000X0.625000X-0.312500X0.625000X0.312500X-0.625000X0.312500X-0.625000X-0.312500X0*%
%TD*%
%TA.AperFunction,ViaPad*%
%ADD26C,0.800000*%
%TD*%
%TA.AperFunction,ViaPad*%
%ADD27C,0.600000*%
%TD*%
%TA.AperFunction,Conductor*%
%ADD28C,0.508000*%
%TD*%
%TA.AperFunction,Conductor*%
%ADD29C,0.381000*%
%TD*%
G04 APERTURE END LIST*
D10*
%TO.P,START/STOP,1,1*%
%TO.N,Net-(SW2-Pad1)*%
X116622000Y-110946000D03*
X116622000Y-104446000D03*
%TO.P,START/STOP,2,2*%
%TO.N,GND*%
X121122000Y-104446000D03*
X121122000Y-110946000D03*
%TD*%
D11*
%TO.P,J5,1,Pin_1*%
%TO.N,unconnected-(J5-Pad1)*%
X153924000Y-79771000D03*
D12*
%TO.P,J5,2,Pin_2*%
%TO.N,+12V*%
X153924000Y-82311000D03*
%TO.P,J5,3,Pin_3*%
%TO.N,Net-(D2-Pad1)*%
X153924000Y-84851000D03*
%TD*%
D13*
%TO.P,J3,1,Pin_1*%
%TO.N,GND*%
X133604000Y-104971000D03*
%TO.P,J3,2,Pin_2*%
%TO.N,+3V3*%
X136144000Y-104971000D03*
%TO.P,J3,3,Pin_3*%
%TO.N,+BATT*%
X138684000Y-104971000D03*
%TD*%
D14*
%TO.P,Q2,1,G*%
%TO.N,Net-(Q2-Pad1)*%
X105516500Y-67056000D03*
D15*
%TO.P,Q2,2,D*%
%TO.N,Net-(Q2-Pad2)*%
X105516500Y-69596000D03*
%TO.P,Q2,3,S*%
%TO.N,+BATT*%
X105516500Y-72136000D03*
%TD*%
D16*
%TO.P,J1,1,Pin_1*%
%TO.N,GND*%
X83820000Y-86780000D03*
D17*
%TO.P,J1,2,Pin_2*%
%TO.N,+BATT*%
X83820000Y-75780000D03*
%TD*%
D11*
%TO.P,J4,1,Pin_1*%
%TO.N,Net-(J4-Pad1)*%
X98552000Y-111760000D03*
D12*
%TO.P,J4,2,Pin_2*%
%TO.N,+3V3*%
X96012000Y-111760000D03*
%TO.P,J4,3,Pin_3*%
%TO.N,GND*%
X93472000Y-111760000D03*
%TD*%
D18*
%TO.P,SW1,*%
%TO.N,*%
X103596000Y-110025500D03*
X111796000Y-110025500D03*
D19*
%TO.P,SW1,1,A*%
%TO.N,/UPDI*%
X105696000Y-110025500D03*
D20*
%TO.P,SW1,2,B*%
%TO.N,Net-(J4-Pad1)*%
X107696000Y-110025500D03*
%TO.P,SW1,3,C*%
%TO.N,/TX*%
X109696000Y-110025500D03*
%TD*%
D21*
%TO.P,TP1,1,1*%
%TO.N,Net-(Q2-Pad2)*%
X130048000Y-70104000D03*
%TD*%
D14*
%TO.P,Q3,1,G*%
%TO.N,Net-(Q3-Pad1)*%
X105516500Y-78232000D03*
D15*
%TO.P,Q3,2,D*%
%TO.N,Net-(D2-Pad1)*%
X105516500Y-80772000D03*
%TO.P,Q3,3,S*%
%TO.N,GND*%
X105516500Y-83312000D03*
%TD*%
D11*
%TO.P,J2,1,Pin_1*%
%TO.N,unconnected-(J2-Pad1)*%
X80772000Y-101092000D03*
D12*
%TO.P,J2,2,Pin_2*%
%TO.N,Net-(C1-Pad1)*%
X80772000Y-103632000D03*
%TO.P,J2,3,Pin_3*%
%TO.N,GND*%
X80772000Y-106172000D03*
%TD*%
D14*
%TO.P,U3,1,IN*%
%TO.N,Net-(Q2-Pad2)*%
X135550000Y-69596000D03*
D15*
%TO.P,U3,2,GND*%
%TO.N,Net-(D2-Pad1)*%
X135550000Y-72136000D03*
%TO.P,U3,3,OUT*%
%TO.N,+12V*%
X135550000Y-74676000D03*
%TD*%
D22*
%TO.P,D2,1,K*%
%TO.N,Net-(D2-Pad1)*%
X137917000Y-83820000D03*
D23*
%TO.P,D2,2,A*%
%TO.N,Net-(D2-Pad2)*%
X140457000Y-83820000D03*
%TD*%
D21*
%TO.P,TP2,1,1*%
%TO.N,Net-(D2-Pad1)*%
X130048000Y-80772000D03*
%TD*%
D24*
%TO.P,R1,1*%
%TO.N,Net-(R1-Pad1)*%
X105664000Y-103185500D03*
%TO.P,R1,2*%
%TO.N,/UPDI*%
X105664000Y-106110500D03*
%TD*%
D25*
%TO.P,R7,1*%
%TO.N,+BATT*%
X102046500Y-71058500D03*
%TO.P,R7,2*%
%TO.N,Net-(Q2-Pad1)*%
X102046500Y-68133500D03*
%TD*%
D26*
%TO.N,GND*%
X87884000Y-103632000D03*
X100076000Y-73660000D03*
X94996000Y-101600000D03*
X103124000Y-102616000D03*
X102108000Y-93980000D03*
X98552000Y-103124000D03*
%TO.N,+BATT*%
X109728000Y-82804000D03*
D27*
%TO.N,Net-(R1-Pad1)*%
X107188000Y-102108000D03*
D26*
%TO.N,/HS*%
X98044000Y-88900000D03*
X96012000Y-74164500D03*
%TO.N,/LS*%
X96581500Y-84774500D03*
X96520000Y-88900000D03*
%TD*%
D28*
%TO.N,+12V*%
X143185000Y-82311000D02*
X153924000Y-82311000D01*
X135550000Y-74676000D02*
X143185000Y-82311000D01*
%TO.N,+BATT*%
X109728000Y-76347500D02*
X109728000Y-82804000D01*
X105516500Y-72136000D02*
X109728000Y-76347500D01*
D29*
X103124000Y-72136000D02*
X105516500Y-72136000D01*
X102046500Y-71058500D02*
X103124000Y-72136000D01*
%TO.N,/UPDI*%
X105696000Y-106142500D02*
X105664000Y-106110500D01*
X105696000Y-110025500D02*
X105696000Y-106142500D01*
%TO.N,Net-(Q2-Pad1)*%
X103124000Y-67056000D02*
X105516500Y-67056000D01*
X102046500Y-68133500D02*
X103124000Y-67056000D01*
%TO.N,Net-(R1-Pad1)*%
X105664000Y-103185500D02*
X106110500Y-103185500D01*
X106110500Y-103185500D02*
X107188000Y-102108000D01*
%TO.N,/HS*%
X98044000Y-88900000D02*
X98044000Y-76196500D01*
X98044000Y-76196500D02*
X96012000Y-74164500D01*
%TO.N,/LS*%
X96581500Y-84774500D02*
X96520000Y-84836000D01*
X96520000Y-84836000D02*
X96520000Y-88900000D01*
%TD*%
%TA.AperFunction,Conductor*%
%TO.N,GND*%
G36*
X115190000Y-64516499D02*
G01*
X115258121Y-64536501D01*
X115304614Y-64590157D01*
X115316000Y-64642499D01*
X115316000Y-101092000D01*
X155321500Y-101092000D01*
X155389621Y-101112002D01*
X155436114Y-101165658D01*
X155447500Y-101218000D01*
X155447500Y-109170633D01*
X155446000Y-109190018D01*
X155443690Y-109204851D01*
X155443690Y-109204855D01*
X155442309Y-109213724D01*
X155444984Y-109234183D01*
X155445928Y-109256008D01*
X155434974Y-109506895D01*
X155430344Y-109612936D01*
X155429386Y-109623886D01*
X155378767Y-110008379D01*
X155376858Y-110019205D01*
X155292920Y-110397822D01*
X155290075Y-110408439D01*
X155244206Y-110553919D01*
X155185171Y-110741155D01*
X155173461Y-110778294D01*
X155169705Y-110788615D01*
X155038626Y-111105069D01*
X155021289Y-111146923D01*
X155016647Y-111156876D01*
X154841056Y-111494183D01*
X154837577Y-111500867D01*
X154832081Y-111510387D01*
X154623708Y-111837468D01*
X154617403Y-111846472D01*
X154381322Y-112154138D01*
X154374257Y-112162558D01*
X154365353Y-112172275D01*
X154123990Y-112435678D01*
X154112256Y-112448483D01*
X154104487Y-112456252D01*
X153981455Y-112568990D01*
X153818558Y-112718257D01*
X153810138Y-112725322D01*
X153502472Y-112961403D01*
X153493468Y-112967708D01*
X153257351Y-113118131D01*
X153166387Y-113176081D01*
X153156868Y-113181576D01*
X152812876Y-113360647D01*
X152802932Y-113365285D01*
X152444615Y-113513705D01*
X152434302Y-113517458D01*
X152234702Y-113580392D01*
X152064439Y-113634075D01*
X152053822Y-113636920D01*
X151675205Y-113720858D01*
X151664379Y-113722767D01*
X151279886Y-113773386D01*
X151268937Y-113774344D01*
X150919446Y-113789603D01*
X150894571Y-113788223D01*
X150882276Y-113786309D01*
X150873374Y-113787473D01*
X150873372Y-113787473D01*
X150858323Y-113789441D01*
X150850714Y-113790436D01*
X150834379Y-113791500D01*
X83869367Y-113791500D01*
X83849982Y-113790000D01*
X83835149Y-113787690D01*
X83835145Y-113787690D01*
X83826276Y-113786309D01*
X83805817Y-113788984D01*
X83783992Y-113789928D01*
X83427063Y-113774344D01*
X83416114Y-113773386D01*
X83031621Y-113722767D01*
X83020795Y-113720858D01*
X82642178Y-113636920D01*
X82631561Y-113634075D01*
X82461298Y-113580392D01*
X82261698Y-113517458D01*
X82251385Y-113513705D01*
X81893068Y-113365285D01*
X81883124Y-113360647D01*
X81539132Y-113181576D01*
X81529613Y-113176081D01*
X81438650Y-113118131D01*
X81202532Y-112967708D01*
X81193528Y-112961403D01*
X80885862Y-112725322D01*
X80877442Y-112718257D01*
X80714545Y-112568990D01*
X80591513Y-112456252D01*
X80583744Y-112448483D01*
X80572011Y-112435678D01*
X80330647Y-112172275D01*
X80321743Y-112162558D01*
X80314678Y-112154138D01*
X80217863Y-112027966D01*
X92140257Y-112027966D01*
X92170565Y-112162446D01*
X92173645Y-112172275D01*
X92253770Y-112369603D01*
X92258413Y-112378794D01*
X92369694Y-112560388D01*
X92375777Y-112568699D01*
X92515213Y-112729667D01*
X92522580Y-112736883D01*
X92686434Y-112872916D01*
X92694881Y-112878831D01*
X92878756Y-112986279D01*
X92888042Y-112990729D01*
X93087001Y-113066703D01*
X93096899Y-113069579D01*
X93200250Y-113090606D01*
X93214299Y-113089410D01*
X93218000Y-113079065D01*
X93218000Y-113078517D01*
X93726000Y-113078517D01*
X93730064Y-113092359D01*
X93743478Y-113094393D01*
X93750184Y-113093534D01*
X93760262Y-113091392D01*
X93964255Y-113030191D01*
X93973842Y-113026433D01*
X94165095Y-112932739D01*
X94173945Y-112927464D01*
X94347328Y-112803792D01*
X94355200Y-112797139D01*
X94506052Y-112646812D01*
X94512730Y-112638965D01*
X94640022Y-112461819D01*
X94641279Y-112462722D01*
X94688373Y-112419362D01*
X94758311Y-112407145D01*
X94823751Y-112434678D01*
X94851579Y-112466511D01*
X94911987Y-112565088D01*
X95058250Y-112733938D01*
X95230126Y-112876632D01*
X95423000Y-112989338D01*
X95631692Y-113069030D01*
X95636760Y-113070061D01*
X95636763Y-113070062D01*
X95731862Y-113089410D01*
X95850597Y-113113567D01*
X95855772Y-113113757D01*
X95855774Y-113113757D01*
X96068673Y-113121564D01*
X96068677Y-113121564D01*
X96073837Y-113121753D01*
X96078957Y-113121097D01*
X96078959Y-113121097D01*
X96290288Y-113094025D01*
X96290289Y-113094025D01*
X96295416Y-113093368D01*
X96300366Y-113091883D01*
X96504429Y-113030661D01*
X96504434Y-113030659D01*
X96509384Y-113029174D01*
X96709994Y-112930896D01*
X96891860Y-112801173D01*
X97000091Y-112693319D01*
X97062462Y-112659404D01*
X97133268Y-112664592D01*
X97190030Y-112707238D01*
X97207012Y-112738341D01*
X97251385Y-112856705D01*
X97338739Y-112973261D01*
X97455295Y-113060615D01*
X97591684Y-113111745D01*
X97653866Y-113118500D01*
X99450134Y-113118500D01*
X99512316Y-113111745D01*
X99648705Y-113060615D01*
X99765261Y-112973261D01*
X99852615Y-112856705D01*
X99903745Y-112720316D01*
X99910500Y-112658134D01*
X99910500Y-110861866D01*
X99903745Y-110799684D01*
X99880883Y-110738699D01*
X101987500Y-110738699D01*
X101987693Y-110741148D01*
X101987693Y-110741155D01*
X101991429Y-110788623D01*
X102002391Y-110927903D01*
X102003545Y-110932710D01*
X102003546Y-110932716D01*
X102033505Y-111057502D01*
X102061495Y-111174091D01*
X102063388Y-111178662D01*
X102063389Y-111178664D01*
X102140228Y-111364169D01*
X102158384Y-111408002D01*
X102290672Y-111623876D01*
X102455102Y-111816398D01*
X102647624Y-111980828D01*
X102863498Y-112113116D01*
X102868068Y-112115009D01*
X102868072Y-112115011D01*
X103040228Y-112186320D01*
X103097409Y-112210005D01*
X103182032Y-112230321D01*
X103338784Y-112267954D01*
X103338790Y-112267955D01*
X103343597Y-112269109D01*
X103596000Y-112288974D01*
X103848403Y-112269109D01*
X103853210Y-112267955D01*
X103853216Y-112267954D01*
X104009968Y-112230321D01*
X104094591Y-112210005D01*
X104151772Y-112186320D01*
X104323928Y-112115011D01*
X104323932Y-112115009D01*
X104328502Y-112113116D01*
X104544376Y-111980828D01*
X104736898Y-111816398D01*
X104739093Y-111813828D01*
X104801024Y-111780010D01*
X104841414Y-111777868D01*
X104894467Y-111783631D01*
X104894471Y-111783631D01*
X104897866Y-111784000D01*
X106494134Y-111784000D01*
X106556316Y-111777245D01*
X106692705Y-111726115D01*
X106809261Y-111638761D01*
X106833579Y-111606313D01*
X106890436Y-111563799D01*
X106961254Y-111558773D01*
X107004680Y-111577298D01*
X107082601Y-111629659D01*
X107082610Y-111629664D01*
X107087262Y-111632790D01*
X107292967Y-111723088D01*
X107298418Y-111724397D01*
X107298422Y-111724398D01*
X107505954Y-111774222D01*
X107511411Y-111775532D01*
X107589079Y-111780010D01*
X107730083Y-111788140D01*
X107730086Y-111788140D01*
X107735690Y-111788463D01*
X107958715Y-111761475D01*
X108173435Y-111695418D01*
X108178415Y-111692848D01*
X108178419Y-111692846D01*
X108368081Y-111594954D01*
X108368082Y-111594954D01*
X108373064Y-111592382D01*
X108551292Y-111455623D01*
X108555063Y-111451478D01*
X108555067Y-111451475D01*
X108602480Y-111399369D01*
X108663121Y-111362446D01*
X108734096Y-111364169D01*
X108783358Y-111393683D01*
X108803904Y-111413594D01*
X108894642Y-111501525D01*
X108900799Y-111507492D01*
X109087262Y-111632790D01*
X109292967Y-111723088D01*
X109298418Y-111724397D01*
X109298422Y-111724398D01*
X109505954Y-111774222D01*
X109511411Y-111775532D01*
X109589079Y-111780010D01*
X109730083Y-111788140D01*
X109730086Y-111788140D01*
X109735690Y-111788463D01*
X109958715Y-111761475D01*
X110173435Y-111695418D01*
X110178415Y-111692848D01*
X110178419Y-111692846D01*
X110347278Y-111605691D01*
X110416985Y-111592222D01*
X110482909Y-111618577D01*
X110500879Y-111635827D01*
X110651889Y-111812637D01*
X110651894Y-111812642D01*
X110655102Y-111816398D01*
X110847624Y-111980828D01*
X111063498Y-112113116D01*
X111068068Y-112115009D01*
X111068072Y-112115011D01*
X111240228Y-112186320D01*
X111297409Y-112210005D01*
X111382032Y-112230321D01*
X111538784Y-112267954D01*
X111538790Y-112267955D01*
X111543597Y-112269109D01*
X111796000Y-112288974D01*
X112048403Y-112269109D01*
X112053210Y-112267955D01*
X112053216Y-112267954D01*
X112209968Y-112230321D01*
X112294591Y-112210005D01*
X112351772Y-112186320D01*
X112523928Y-112115011D01*
X112523932Y-112115009D01*
X112528502Y-112113116D01*
X112744376Y-111980828D01*
X112936898Y-111816398D01*
X113101328Y-111623876D01*
X113233616Y-111408002D01*
X113251773Y-111364169D01*
X113328611Y-111178664D01*
X113328612Y-111178662D01*
X113330505Y-111174091D01*
X113358495Y-111057502D01*
X113385265Y-110946000D01*
X115108835Y-110946000D01*
X115127465Y-111182711D01*
X115128619Y-111187518D01*
X115128620Y-111187524D01*
X115154296Y-111294470D01*
X115182895Y-111413594D01*
X115184788Y-111418165D01*
X115184789Y-111418167D01*
X115271772Y-111628163D01*
X115273760Y-111632963D01*
X115276346Y-111637183D01*
X115395241Y-111831202D01*
X115395245Y-111831208D01*
X115397824Y-111835416D01*
X115552031Y-112015969D01*
X115555787Y-112019177D01*
X115576618Y-112036968D01*
X115732584Y-112170176D01*
X115736792Y-112172755D01*
X115736798Y-112172759D01*
X115926444Y-112288974D01*
X115935037Y-112294240D01*
X115939607Y-112296133D01*
X115939611Y-112296135D01*
X116149833Y-112383211D01*
X116154406Y-112385105D01*
X116234609Y-112404360D01*
X116380476Y-112439380D01*
X116380482Y-112439381D01*
X116385289Y-112440535D01*
X116622000Y-112459165D01*
X116858711Y-112440535D01*
X116863518Y-112439381D01*
X116863524Y-112439380D01*
X117009391Y-112404360D01*
X117089594Y-112385105D01*
X117094167Y-112383211D01*
X117304389Y-112296135D01*
X117304393Y-112296133D01*
X117308963Y-112294240D01*
X117317556Y-112288974D01*
X117497556Y-112178670D01*
X120254160Y-112178670D01*
X120259887Y-112186320D01*
X120431042Y-112291205D01*
X120439837Y-112295687D01*
X120649988Y-112382734D01*
X120659373Y-112385783D01*
X120880554Y-112438885D01*
X120890301Y-112440428D01*
X121117070Y-112458275D01*
X121126930Y-112458275D01*
X121353699Y-112440428D01*
X121363446Y-112438885D01*
X121584627Y-112385783D01*
X121594012Y-112382734D01*
X121804163Y-112295687D01*
X121812958Y-112291205D01*
X121980445Y-112188568D01*
X121989907Y-112178110D01*
X121986124Y-112169334D01*
X121134812Y-111318022D01*
X121120868Y-111310408D01*
X121119035Y-111310539D01*
X121112420Y-111314790D01*
X120260920Y-112166290D01*
X120254160Y-112178670D01*
X117497556Y-112178670D01*
X117507202Y-112172759D01*
X117507208Y-112172755D01*
X117511416Y-112170176D01*
X117667382Y-112036968D01*
X117688213Y-112019177D01*
X117691969Y-112015969D01*
X117846176Y-111835416D01*
X117848755Y-111831208D01*
X117848759Y-111831202D01*
X117967654Y-111637183D01*
X117970240Y-111632963D01*
X117972229Y-111628163D01*
X118059211Y-111418167D01*
X118059212Y-111418165D01*
X118061105Y-111413594D01*
X118089704Y-111294470D01*
X118115380Y-111187524D01*
X118115381Y-111187518D01*
X118116535Y-111182711D01*
X118134777Y-110950930D01*
X119609725Y-110950930D01*
X119627572Y-111177699D01*
X119629115Y-111187446D01*
X119682217Y-111408627D01*
X119685266Y-111418012D01*
X119772313Y-111628163D01*
X119776795Y-111636958D01*
X119879432Y-111804445D01*
X119889890Y-111813907D01*
X119898666Y-111810124D01*
X120749978Y-110958812D01*
X120756356Y-110947132D01*
X121486408Y-110947132D01*
X121486539Y-110948965D01*
X121490790Y-110955580D01*
X122342290Y-111807080D01*
X122354670Y-111813840D01*
X122362320Y-111808113D01*
X122467205Y-111636958D01*
X122471687Y-111628163D01*
X122558734Y-111418012D01*
X122561783Y-111408627D01*
X122614885Y-111187446D01*
X122616428Y-111177699D01*
X122634275Y-110950930D01*
X122634275Y-110941070D01*
X122616428Y-110714301D01*
X122614885Y-110704554D01*
X122561783Y-110483373D01*
X122558734Y-110473988D01*
X122471687Y-110263837D01*
X122467205Y-110255042D01*
X122364568Y-110087555D01*
X122354110Y-110078093D01*
X122345334Y-110081876D01*
X121494022Y-110933188D01*
X121486408Y-110947132D01*
X120756356Y-110947132D01*
X120757592Y-110944868D01*
X120757461Y-110943035D01*
X120753210Y-110936420D01*
X119901710Y-110084920D01*
X119889330Y-110078160D01*
X119881680Y-110083887D01*
X119776795Y-110255042D01*
X119772313Y-110263837D01*
X119685266Y-110473988D01*
X119682217Y-110483373D01*
X119629115Y-110704554D01*
X119627572Y-110714301D01*
X119609725Y-110941070D01*
X119609725Y-110950930D01*
X118134777Y-110950930D01*
X118135165Y-110946000D01*
X118116535Y-110709289D01*
X118107512Y-110671703D01*
X118072439Y-110525616D01*
X118061105Y-110478406D01*
X118051921Y-110456233D01*
X117972135Y-110263611D01*
X117972133Y-110263607D01*
X117970240Y-110259037D01*
X117869662Y-110094909D01*
X117848759Y-110060798D01*
X117848755Y-110060792D01*
X117846176Y-110056584D01*
X117691969Y-109876031D01*
X117511416Y-109721824D01*
X117507208Y-109719245D01*
X117507202Y-109719241D01*
X117498470Y-109713890D01*
X120254093Y-109713890D01*
X120257876Y-109722666D01*
X121109188Y-110573978D01*
X121123132Y-110581592D01*
X121124965Y-110581461D01*
X121131580Y-110577210D01*
X121983080Y-109725710D01*
X121989840Y-109713330D01*
X121984113Y-109705680D01*
X121812958Y-109600795D01*
X121804163Y-109596313D01*
X121594012Y-109509266D01*
X121584627Y-109506217D01*
X121363446Y-109453115D01*
X121353699Y-109451572D01*
X121126930Y-109433725D01*
X121117070Y-109433725D01*
X120890301Y-109451572D01*
X120880554Y-109453115D01*
X120659373Y-109506217D01*
X120649988Y-109509266D01*
X120439837Y-109596313D01*
X120431042Y-109600795D01*
X120263555Y-109703432D01*
X120254093Y-109713890D01*
X117498470Y-109713890D01*
X117313183Y-109600346D01*
X117308963Y-109597760D01*
X117304393Y-109595867D01*
X117304389Y-109595865D01*
X117094167Y-109508789D01*
X117094165Y-109508788D01*
X117089594Y-109506895D01*
X117009391Y-109487640D01*
X116863524Y-109452620D01*
X116863518Y-109452619D01*
X116858711Y-109451465D01*
X116622000Y-109432835D01*
X116385289Y-109451465D01*
X116380482Y-109452619D01*
X116380476Y-109452620D01*
X116234609Y-109487640D01*
X116154406Y-109506895D01*
X116149835Y-109508788D01*
X116149833Y-109508789D01*
X115939611Y-109595865D01*
X115939607Y-109595867D01*
X115935037Y-109597760D01*
X115930817Y-109600346D01*
X115736798Y-109719241D01*
X115736792Y-109719245D01*
X115732584Y-109721824D01*
X115552031Y-109876031D01*
X115397824Y-110056584D01*
X115395245Y-110060792D01*
X115395241Y-110060798D01*
X115374338Y-110094909D01*
X115273760Y-110259037D01*
X115271867Y-110263607D01*
X115271865Y-110263611D01*
X115192079Y-110456233D01*
X115182895Y-110478406D01*
X115171561Y-110525616D01*
X115136489Y-110671703D01*
X115127465Y-110709289D01*
X115108835Y-110946000D01*
X113385265Y-110946000D01*
X113388454Y-110932716D01*
X113388455Y-110932710D01*
X113389609Y-110927903D01*
X113400571Y-110788623D01*
X113404307Y-110741155D01*
X113404307Y-110741148D01*
X113404500Y-110738699D01*
X113404500Y-109312301D01*
X113398224Y-109232552D01*
X113389997Y-109128031D01*
X113389609Y-109123097D01*
X113330505Y-108876909D01*
X113328611Y-108872336D01*
X113235511Y-108647572D01*
X113235509Y-108647568D01*
X113233616Y-108642998D01*
X113101328Y-108427124D01*
X112936898Y-108234602D01*
X112744376Y-108070172D01*
X112528502Y-107937884D01*
X112523932Y-107935991D01*
X112523928Y-107935989D01*
X112299164Y-107842889D01*
X112299162Y-107842888D01*
X112294591Y-107840995D01*
X112209968Y-107820679D01*
X112053216Y-107783046D01*
X112053210Y-107783045D01*
X112048403Y-107781891D01*
X111796000Y-107762026D01*
X111543597Y-107781891D01*
X111538790Y-107783045D01*
X111538784Y-107783046D01*
X111382032Y-107820679D01*
X111297409Y-107840995D01*
X111292838Y-107842888D01*
X111292836Y-107842889D01*
X111068072Y-107935989D01*
X111068068Y-107935991D01*
X111063498Y-107937884D01*
X110847624Y-108070172D01*
X110655102Y-108234602D01*
X110651894Y-108238358D01*
X110500617Y-108415480D01*
X110441166Y-108454289D01*
X110370172Y-108454795D01*
X110334534Y-108438233D01*
X110304738Y-108418210D01*
X110099033Y-108327912D01*
X110093582Y-108326603D01*
X110093578Y-108326602D01*
X109886046Y-108276778D01*
X109886045Y-108276778D01*
X109880589Y-108275468D01*
X109796525Y-108270621D01*
X109661917Y-108262860D01*
X109661914Y-108262860D01*
X109656310Y-108262537D01*
X109433285Y-108289525D01*
X109218565Y-108355582D01*
X109213585Y-108358152D01*
X109213581Y-108358154D01*
X109071790Y-108431338D01*
X109018936Y-108458618D01*
X108840708Y-108595377D01*
X108836937Y-108599522D01*
X108836933Y-108599525D01*
X108789520Y-108651631D01*
X108728879Y-108688554D01*
X108657904Y-108686831D01*
X108608642Y-108657317D01*
X108491201Y-108543508D01*
X108304738Y-108418210D01*
X108099033Y-108327912D01*
X108093582Y-108326603D01*
X108093578Y-108326602D01*
X107886046Y-108276778D01*
X107886045Y-108276778D01*
X107880589Y-108275468D01*
X107796525Y-108270621D01*
X107661917Y-108262860D01*
X107661914Y-108262860D01*
X107656310Y-108262537D01*
X107433285Y-108289525D01*
X107218565Y-108355582D01*
X107213585Y-108358152D01*
X107213581Y-108358154D01*
X107071790Y-108431338D01*
X107018936Y-108458618D01*
X107014488Y-108462031D01*
X107014482Y-108462035D01*
X107008986Y-108466252D01*
X106942766Y-108491852D01*
X106873217Y-108477587D01*
X106831458Y-108441856D01*
X106814641Y-108419418D01*
X106809261Y-108412239D01*
X106692705Y-108324885D01*
X106556316Y-108273755D01*
X106522848Y-108270119D01*
X106507392Y-108268440D01*
X106441830Y-108241198D01*
X106401404Y-108182835D01*
X106395000Y-108143177D01*
X106395000Y-107278053D01*
X106415002Y-107209932D01*
X106468658Y-107163439D01*
X106481117Y-107158532D01*
X106612946Y-107114550D01*
X106763348Y-107021478D01*
X106888305Y-106896303D01*
X106953342Y-106790794D01*
X106977275Y-106751968D01*
X106977276Y-106751966D01*
X106981115Y-106745738D01*
X107007564Y-106665995D01*
X107034632Y-106584389D01*
X107034632Y-106584387D01*
X107036797Y-106577861D01*
X107047500Y-106473400D01*
X107047500Y-106095853D01*
X132843977Y-106095853D01*
X132849258Y-106102907D01*
X133010756Y-106197279D01*
X133020042Y-106201729D01*
X133219001Y-106277703D01*
X133228899Y-106280579D01*
X133437595Y-106323038D01*
X133447823Y-106324257D01*
X133660650Y-106332062D01*
X133670936Y-106331595D01*
X133882185Y-106304534D01*
X133892262Y-106302392D01*
X134096255Y-106241191D01*
X134105842Y-106237433D01*
X134297098Y-106143738D01*
X134305944Y-106138465D01*
X134353247Y-106104723D01*
X134361648Y-106094023D01*
X134354660Y-106080870D01*
X133616812Y-105343022D01*
X133602868Y-105335408D01*
X133601035Y-105335539D01*
X133594420Y-105339790D01*
X132850737Y-106083473D01*
X132843977Y-106095853D01*
X107047500Y-106095853D01*
X107047500Y-105747600D01*
X107046491Y-105737875D01*
X107037238Y-105648692D01*
X107037237Y-105648688D01*
X107036526Y-105641834D01*
X107032697Y-105630355D01*
X106982868Y-105481002D01*
X106980550Y-105474054D01*
X106887478Y-105323652D01*
X106868238Y-105304445D01*
X106767483Y-105203866D01*
X106762303Y-105198695D01*
X106756072Y-105194854D01*
X106617968Y-105109725D01*
X106617966Y-105109724D01*
X106611738Y-105105885D01*
X106451254Y-105052655D01*
X106450389Y-105052368D01*
X106450387Y-105052368D01*
X106443861Y-105050203D01*
X106437025Y-105049503D01*
X106437022Y-105049502D01*
X106393969Y-105045091D01*
X106339400Y-105039500D01*
X104988600Y-105039500D01*
X104985354Y-105039837D01*
X104985350Y-105039837D01*
X104889692Y-105049762D01*
X104889688Y-105049763D01*
X104882834Y-105050474D01*
X104876298Y-105052655D01*
X104876296Y-105052655D01*
X104744194Y-105096728D01*
X104715054Y-105106450D01*
X104564652Y-105199522D01*
X104439695Y-105324697D01*
X104435855Y-105330927D01*
X104435854Y-105330928D01*
X104351450Y-105467857D01*
X104346885Y-105475262D01*
X104291203Y-105643139D01*
X104290503Y-105649975D01*
X104290502Y-105649978D01*
X104286779Y-105686320D01*
X104280500Y-105747600D01*
X104280500Y-106473400D01*
X104291474Y-106579166D01*
X104347450Y-106746946D01*
X104440522Y-106897348D01*
X104565697Y-107022305D01*
X104571927Y-107026145D01*
X104571928Y-107026146D01*
X104709090Y-107110694D01*
X104716262Y-107115115D01*
X104884139Y-107170797D01*
X104890979Y-107171498D01*
X104897416Y-107172878D01*
X104959829Y-107206717D01*
X104994040Y-107268928D01*
X104997000Y-107296078D01*
X104997000Y-108143177D01*
X104976998Y-108211298D01*
X104923342Y-108257791D01*
X104884607Y-108268440D01*
X104841414Y-108273132D01*
X104771532Y-108260604D01*
X104739240Y-108237345D01*
X104736898Y-108234602D01*
X104544376Y-108070172D01*
X104328502Y-107937884D01*
X104323932Y-107935991D01*
X104323928Y-107935989D01*
X104099164Y-107842889D01*
X104099162Y-107842888D01*
X104094591Y-107840995D01*
X104009968Y-107820679D01*
X103853216Y-107783046D01*
X103853210Y-107783045D01*
X103848403Y-107781891D01*
X103596000Y-107762026D01*
X103343597Y-107781891D01*
X103338790Y-107783045D01*
X103338784Y-107783046D01*
X103182032Y-107820679D01*
X103097409Y-107840995D01*
X103092838Y-107842888D01*
X103092836Y-107842889D01*
X102868072Y-107935989D01*
X102868068Y-107935991D01*
X102863498Y-107937884D01*
X102647624Y-108070172D01*
X102455102Y-108234602D01*
X102290672Y-108427124D01*
X102158384Y-108642998D01*
X102156491Y-108647568D01*
X102156489Y-108647572D01*
X102063389Y-108872336D01*
X102061495Y-108876909D01*
X102002391Y-109123097D01*
X102002003Y-109128031D01*
X101993777Y-109232552D01*
X101987500Y-109312301D01*
X101987500Y-110738699D01*
X99880883Y-110738699D01*
X99852615Y-110663295D01*
X99765261Y-110546739D01*
X99648705Y-110459385D01*
X99512316Y-110408255D01*
X99450134Y-110401500D01*
X97653866Y-110401500D01*
X97591684Y-110408255D01*
X97455295Y-110459385D01*
X97338739Y-110546739D01*
X97251385Y-110663295D01*
X97248233Y-110671703D01*
X97206919Y-110781907D01*
X97164277Y-110838671D01*
X97097716Y-110863371D01*
X97028367Y-110848163D01*
X96995743Y-110822476D01*
X96945151Y-110766875D01*
X96945142Y-110766866D01*
X96941670Y-110763051D01*
X96937619Y-110759852D01*
X96937615Y-110759848D01*
X96770414Y-110627800D01*
X96770410Y-110627798D01*
X96766359Y-110624598D01*
X96730028Y-110604542D01*
X96680515Y-110577210D01*
X96570789Y-110516638D01*
X96565920Y-110514914D01*
X96565916Y-110514912D01*
X96365087Y-110443795D01*
X96365083Y-110443794D01*
X96360212Y-110442069D01*
X96355119Y-110441162D01*
X96355116Y-110441161D01*
X96145373Y-110403800D01*
X96145367Y-110403799D01*
X96140284Y-110402894D01*
X96066452Y-110401992D01*
X95922081Y-110400228D01*
X95922079Y-110400228D01*
X95916911Y-110400165D01*
X95696091Y-110433955D01*
X95483756Y-110503357D01*
X95440997Y-110525616D01*
X95348095Y-110573978D01*
X95285607Y-110606507D01*
X95281474Y-110609610D01*
X95281471Y-110609612D01*
X95111100Y-110737530D01*
X95106965Y-110740635D01*
X95081541Y-110767240D01*
X95013280Y-110838671D01*
X94952629Y-110902138D01*
X94949715Y-110906410D01*
X94949714Y-110906411D01*
X94844898Y-111060066D01*
X94789987Y-111105069D01*
X94719462Y-111113240D01*
X94655715Y-111081986D01*
X94635018Y-111057502D01*
X94554426Y-110932926D01*
X94548136Y-110924757D01*
X94404806Y-110767240D01*
X94397273Y-110760215D01*
X94230139Y-110628222D01*
X94221552Y-110622517D01*
X94035117Y-110519599D01*
X94025705Y-110515369D01*
X93824959Y-110444280D01*
X93814988Y-110441646D01*
X93743837Y-110428972D01*
X93730540Y-110430432D01*
X93726000Y-110444989D01*
X93726000Y-113078517D01*
X93218000Y-113078517D01*
X93218000Y-112032115D01*
X93213525Y-112016876D01*
X93212135Y-112015671D01*
X93204452Y-112014000D01*
X92155225Y-112014000D01*
X92141694Y-112017973D01*
X92140257Y-112027966D01*
X80217863Y-112027966D01*
X80078597Y-111846472D01*
X80072292Y-111837468D01*
X79863919Y-111510387D01*
X79858423Y-111500867D01*
X79854944Y-111494183D01*
X92136389Y-111494183D01*
X92137912Y-111502607D01*
X92150292Y-111506000D01*
X93199885Y-111506000D01*
X93215124Y-111501525D01*
X93216329Y-111500135D01*
X93218000Y-111492452D01*
X93218000Y-110443102D01*
X93214082Y-110429758D01*
X93199806Y-110427771D01*
X93161324Y-110433660D01*
X93151288Y-110436051D01*
X92948868Y-110502212D01*
X92939359Y-110506209D01*
X92750463Y-110604542D01*
X92741738Y-110610036D01*
X92571433Y-110737905D01*
X92563726Y-110744748D01*
X92416590Y-110898717D01*
X92410104Y-110906727D01*
X92290098Y-111082649D01*
X92285000Y-111091623D01*
X92195338Y-111284783D01*
X92191775Y-111294470D01*
X92136389Y-111494183D01*
X79854944Y-111494183D01*
X79679353Y-111156876D01*
X79674711Y-111146923D01*
X79657375Y-111105069D01*
X79526295Y-110788615D01*
X79522539Y-110778294D01*
X79510830Y-110741155D01*
X79451794Y-110553919D01*
X79405925Y-110408439D01*
X79403080Y-110397822D01*
X79319142Y-110019205D01*
X79317233Y-110008379D01*
X79266614Y-109623886D01*
X79265656Y-109612936D01*
X79261026Y-109506895D01*
X79250561Y-109267206D01*
X79252188Y-109240805D01*
X79252769Y-109237352D01*
X79252770Y-109237345D01*
X79253576Y-109232552D01*
X79253729Y-109220000D01*
X79249773Y-109192376D01*
X79248500Y-109174514D01*
X79248500Y-106675019D01*
X79268502Y-106606898D01*
X79322158Y-106560405D01*
X79392432Y-106550301D01*
X79457012Y-106579795D01*
X79491243Y-106627615D01*
X79553770Y-106781603D01*
X79558413Y-106790794D01*
X79669694Y-106972388D01*
X79675777Y-106980699D01*
X79815213Y-107141667D01*
X79822580Y-107148883D01*
X79986434Y-107284916D01*
X79994881Y-107290831D01*
X80178756Y-107398279D01*
X80188042Y-107402729D01*
X80387001Y-107478703D01*
X80396899Y-107481579D01*
X80500250Y-107502606D01*
X80514299Y-107501410D01*
X80518000Y-107491065D01*
X80518000Y-107490517D01*
X81026000Y-107490517D01*
X81030064Y-107504359D01*
X81043478Y-107506393D01*
X81050184Y-107505534D01*
X81060262Y-107503392D01*
X81264255Y-107442191D01*
X81273842Y-107438433D01*
X81465095Y-107344739D01*
X81473945Y-107339464D01*
X81647328Y-107215792D01*
X81655200Y-107209139D01*
X81806052Y-107058812D01*
X81812730Y-107050965D01*
X81937003Y-106878020D01*
X81942313Y-106869183D01*
X82036670Y-106678267D01*
X82040469Y-106668672D01*
X82102377Y-106464910D01*
X82104555Y-106454837D01*
X82105986Y-106443962D01*
X82103775Y-106429778D01*
X82090617Y-106426000D01*
X81044115Y-106426000D01*
X81028876Y-106430475D01*
X81027671Y-106431865D01*
X81026000Y-106439548D01*
X81026000Y-107490517D01*
X80518000Y-107490517D01*
X80518000Y-106044000D01*
X80538002Y-105975879D01*
X80591658Y-105929386D01*
X80644000Y-105918000D01*
X82090344Y-105918000D01*
X82103875Y-105914027D01*
X82105180Y-105904947D01*
X82063214Y-105737875D01*
X82059894Y-105728124D01*
X81974972Y-105532814D01*
X81970105Y-105523739D01*
X81854426Y-105344926D01*
X81848136Y-105336757D01*
X81704806Y-105179240D01*
X81697273Y-105172215D01*
X81530139Y-105040222D01*
X81521556Y-105034520D01*
X81484602Y-105014120D01*
X81434631Y-104963687D01*
X81419859Y-104894245D01*
X81444975Y-104827839D01*
X81472327Y-104801232D01*
X81539214Y-104753522D01*
X81651860Y-104673173D01*
X81810096Y-104515489D01*
X81817296Y-104505470D01*
X81860029Y-104446000D01*
X115108835Y-104446000D01*
X115127465Y-104682711D01*
X115128619Y-104687518D01*
X115128620Y-104687524D01*
X115143226Y-104748361D01*
X115182895Y-104913594D01*
X115184788Y-104918165D01*
X115184789Y-104918167D01*
X115271772Y-105128163D01*
X115273760Y-105132963D01*
X115276346Y-105137183D01*
X115395241Y-105331202D01*
X115395245Y-105331208D01*
X115397824Y-105335416D01*
X115511943Y-105469032D01*
X115541487Y-105503623D01*
X115552031Y-105515969D01*
X115732584Y-105670176D01*
X115736792Y-105672755D01*
X115736798Y-105672759D01*
X115905416Y-105776088D01*
X115935037Y-105794240D01*
X115939607Y-105796133D01*
X115939611Y-105796135D01*
X116149833Y-105883211D01*
X116154406Y-105885105D01*
X116234609Y-105904360D01*
X116380476Y-105939380D01*
X116380482Y-105939381D01*
X116385289Y-105940535D01*
X116622000Y-105959165D01*
X116858711Y-105940535D01*
X116863518Y-105939381D01*
X116863524Y-105939380D01*
X117009391Y-105904360D01*
X117089594Y-105885105D01*
X117094167Y-105883211D01*
X117304389Y-105796135D01*
X117304393Y-105796133D01*
X117308963Y-105794240D01*
X117338584Y-105776088D01*
X117497556Y-105678670D01*
X120254160Y-105678670D01*
X120259887Y-105686320D01*
X120431042Y-105791205D01*
X120439837Y-105795687D01*
X120649988Y-105882734D01*
X120659373Y-105885783D01*
X120880554Y-105938885D01*
X120890301Y-105940428D01*
X121117070Y-105958275D01*
X121126930Y-105958275D01*
X121353699Y-105940428D01*
X121363446Y-105938885D01*
X121584627Y-105885783D01*
X121594012Y-105882734D01*
X121804163Y-105795687D01*
X121812958Y-105791205D01*
X121980445Y-105688568D01*
X121989907Y-105678110D01*
X121986124Y-105669334D01*
X121134812Y-104818022D01*
X121120868Y-104810408D01*
X121119035Y-104810539D01*
X121112420Y-104814790D01*
X120260920Y-105666290D01*
X120254160Y-105678670D01*
X117497556Y-105678670D01*
X117507202Y-105672759D01*
X117507208Y-105672755D01*
X117511416Y-105670176D01*
X117691969Y-105515969D01*
X117702514Y-105503623D01*
X117732057Y-105469032D01*
X117846176Y-105335416D01*
X117848755Y-105331208D01*
X117848759Y-105331202D01*
X117967654Y-105137183D01*
X117970240Y-105132963D01*
X117972229Y-105128163D01*
X118059211Y-104918167D01*
X118059212Y-104918165D01*
X118061105Y-104913594D01*
X118100774Y-104748361D01*
X118115380Y-104687524D01*
X118115381Y-104687518D01*
X118116535Y-104682711D01*
X118134777Y-104450930D01*
X119609725Y-104450930D01*
X119627572Y-104677699D01*
X119629115Y-104687446D01*
X119682217Y-104908627D01*
X119685266Y-104918012D01*
X119772313Y-105128163D01*
X119776795Y-105136958D01*
X119879432Y-105304445D01*
X119889890Y-105313907D01*
X119898666Y-105310124D01*
X120749978Y-104458812D01*
X120756356Y-104447132D01*
X121486408Y-104447132D01*
X121486539Y-104448965D01*
X121490790Y-104455580D01*
X122342290Y-105307080D01*
X122354670Y-105313840D01*
X122362320Y-105308113D01*
X122467205Y-105136958D01*
X122471687Y-105128163D01*
X122548440Y-104942863D01*
X132242050Y-104942863D01*
X132254309Y-105155477D01*
X132255745Y-105165697D01*
X132302565Y-105373446D01*
X132305645Y-105383275D01*
X132385770Y-105580603D01*
X132390413Y-105589794D01*
X132470460Y-105720420D01*
X132480916Y-105729880D01*
X132489694Y-105726096D01*
X133231978Y-104983812D01*
X133238356Y-104972132D01*
X133968408Y-104972132D01*
X133968539Y-104973965D01*
X133972790Y-104980580D01*
X134714474Y-105722264D01*
X134726484Y-105728823D01*
X134738223Y-105719855D01*
X134772022Y-105672819D01*
X134773277Y-105673721D01*
X134820391Y-105630355D01*
X134890330Y-105618148D01*
X134955767Y-105645691D01*
X134983580Y-105677513D01*
X135041287Y-105771683D01*
X135041291Y-105771688D01*
X135043987Y-105776088D01*
X135190250Y-105944938D01*
X135362126Y-106087632D01*
X135555000Y-106200338D01*
X135763692Y-106280030D01*
X135768760Y-106281061D01*
X135768763Y-106281062D01*
X135873604Y-106302392D01*
X135982597Y-106324567D01*
X135987772Y-106324757D01*
X135987774Y-106324757D01*
X136200673Y-106332564D01*
X136200677Y-106332564D01*
X136205837Y-106332753D01*
X136210957Y-106332097D01*
X136210959Y-106332097D01*
X136422288Y-106305025D01*
X136422289Y-106305025D01*
X136427416Y-106304368D01*
X136432366Y-106302883D01*
X136636429Y-106241661D01*
X136636434Y-106241659D01*
X136641384Y-106240174D01*
X136841994Y-106141896D01*
X137023860Y-106012173D01*
X137182096Y-105854489D01*
X137256592Y-105750817D01*
X137312453Y-105673077D01*
X137313776Y-105674028D01*
X137360645Y-105630857D01*
X137430580Y-105618625D01*
X137496026Y-105646144D01*
X137523875Y-105677994D01*
X137583987Y-105776088D01*
X137730250Y-105944938D01*
X137902126Y-106087632D01*
X138095000Y-106200338D01*
X138303692Y-106280030D01*
X138308760Y-106281061D01*
X138308763Y-106281062D01*
X138413604Y-106302392D01*
X138522597Y-106324567D01*
X138527772Y-106324757D01*
X138527774Y-106324757D01*
X138740673Y-106332564D01*
X138740677Y-106332564D01*
X138745837Y-106332753D01*
X138750957Y-106332097D01*
X138750959Y-106332097D01*
X138962288Y-106305025D01*
X138962289Y-106305025D01*
X138967416Y-106304368D01*
X138972366Y-106302883D01*
X139176429Y-106241661D01*
X139176434Y-106241659D01*
X139181384Y-106240174D01*
X139381994Y-106141896D01*
X139563860Y-106012173D01*
X139722096Y-105854489D01*
X139796592Y-105750817D01*
X139849435Y-105677277D01*
X139852453Y-105673077D01*
X139855808Y-105666290D01*
X139949136Y-105477453D01*
X139949137Y-105477451D01*
X139951430Y-105472811D01*
X139994454Y-105331202D01*
X140014865Y-105264023D01*
X140014865Y-105264021D01*
X140016370Y-105259069D01*
X140045529Y-105037590D01*
X140046043Y-105016546D01*
X140047074Y-104974365D01*
X140047074Y-104974361D01*
X140047156Y-104971000D01*
X140028852Y-104748361D01*
X139974431Y-104531702D01*
X139885354Y-104326840D01*
X139796537Y-104189550D01*
X139766822Y-104143617D01*
X139766820Y-104143614D01*
X139764014Y-104139277D01*
X139613670Y-103974051D01*
X139609619Y-103970852D01*
X139609615Y-103970848D01*
X139442414Y-103838800D01*
X139442410Y-103838798D01*
X139438359Y-103835598D01*
X139413629Y-103821946D01*
X139386136Y-103806769D01*
X139242789Y-103727638D01*
X139237920Y-103725914D01*
X139237916Y-103725912D01*
X139037087Y-103654795D01*
X139037083Y-103654794D01*
X139032212Y-103653069D01*
X139027119Y-103652162D01*
X139027116Y-103652161D01*
X138817373Y-103614800D01*
X138817367Y-103614799D01*
X138812284Y-103613894D01*
X138738452Y-103612992D01*
X138594081Y-103611228D01*
X138594079Y-103611228D01*
X138588911Y-103611165D01*
X138368091Y-103644955D01*
X138155756Y-103714357D01*
X137957607Y-103817507D01*
X137953474Y-103820610D01*
X137953471Y-103820612D01*
X137783100Y-103948530D01*
X137778965Y-103951635D01*
X137624629Y-104113138D01*
X137517201Y-104270621D01*
X137462293Y-104315621D01*
X137391768Y-104323792D01*
X137328021Y-104292538D01*
X137307324Y-104268054D01*
X137226822Y-104143617D01*
X137226820Y-104143614D01*
X137224014Y-104139277D01*
X137073670Y-103974051D01*
X137069619Y-103970852D01*
X137069615Y-103970848D01*
X136902414Y-103838800D01*
X136902410Y-103838798D01*
X136898359Y-103835598D01*
X136873629Y-103821946D01*
X136846136Y-103806769D01*
X136702789Y-103727638D01*
X136697920Y-103725914D01*
X136697916Y-103725912D01*
X136497087Y-103654795D01*
X136497083Y-103654794D01*
X136492212Y-103653069D01*
X136487119Y-103652162D01*
X136487116Y-103652161D01*
X136277373Y-103614800D01*
X136277367Y-103614799D01*
X136272284Y-103613894D01*
X136198452Y-103612992D01*
X136054081Y-103611228D01*
X136054079Y-103611228D01*
X136048911Y-103611165D01*
X135828091Y-103644955D01*
X135615756Y-103714357D01*
X135417607Y-103817507D01*
X135413474Y-103820610D01*
X135413471Y-103820612D01*
X135243100Y-103948530D01*
X135238965Y-103951635D01*
X135084629Y-104113138D01*
X135081720Y-104117403D01*
X135081714Y-104117411D01*
X135067360Y-104138453D01*
X134977204Y-104270618D01*
X134976898Y-104271066D01*
X134921987Y-104316069D01*
X134851462Y-104324240D01*
X134787715Y-104292986D01*
X134767017Y-104268501D01*
X134737062Y-104222197D01*
X134726377Y-104212995D01*
X134716812Y-104217398D01*
X133976022Y-104958188D01*
X133968408Y-104972132D01*
X133238356Y-104972132D01*
X133239592Y-104969868D01*
X133239461Y-104968035D01*
X133235210Y-104961420D01*
X132493849Y-104220059D01*
X132482313Y-104213759D01*
X132470031Y-104223382D01*
X132422089Y-104293662D01*
X132417004Y-104302613D01*
X132327338Y-104495783D01*
X132323775Y-104505470D01*
X132266864Y-104710681D01*
X132264933Y-104720800D01*
X132242302Y-104932574D01*
X132242050Y-104942863D01*
X122548440Y-104942863D01*
X122558734Y-104918012D01*
X122561783Y-104908627D01*
X122614885Y-104687446D01*
X122616428Y-104677699D01*
X122634275Y-104450930D01*
X122634275Y-104441070D01*
X122616428Y-104214301D01*
X122614885Y-104204554D01*
X122561783Y-103983373D01*
X122558734Y-103973988D01*
X122506311Y-103847427D01*
X132845223Y-103847427D01*
X132851968Y-103859758D01*
X133591188Y-104598978D01*
X133605132Y-104606592D01*
X133606965Y-104606461D01*
X133613580Y-104602210D01*
X134357389Y-103858401D01*
X134364410Y-103845544D01*
X134357611Y-103836213D01*
X134353554Y-103833518D01*
X134167117Y-103730599D01*
X134157705Y-103726369D01*
X133956959Y-103655280D01*
X133946989Y-103652646D01*
X133737327Y-103615301D01*
X133727073Y-103614331D01*
X133514116Y-103611728D01*
X133503832Y-103612448D01*
X133293321Y-103644661D01*
X133283293Y-103647050D01*
X133080868Y-103713212D01*
X133071359Y-103717209D01*
X132882466Y-103815540D01*
X132873734Y-103821039D01*
X132853677Y-103836099D01*
X132845223Y-103847427D01*
X122506311Y-103847427D01*
X122471687Y-103763837D01*
X122467205Y-103755042D01*
X122364568Y-103587555D01*
X122354110Y-103578093D01*
X122345334Y-103581876D01*
X121494022Y-104433188D01*
X121486408Y-104447132D01*
X120756356Y-104447132D01*
X120757592Y-104444868D01*
X120757461Y-104443035D01*
X120753210Y-104436420D01*
X119901710Y-103584920D01*
X119889330Y-103578160D01*
X119881680Y-103583887D01*
X119776795Y-103755042D01*
X119772313Y-103763837D01*
X119685266Y-103973988D01*
X119682217Y-103983373D01*
X119629115Y-104204554D01*
X119627572Y-104214301D01*
X119609725Y-104441070D01*
X119609725Y-104450930D01*
X118134777Y-104450930D01*
X118135165Y-104446000D01*
X118116535Y-104209289D01*
X118111797Y-104189550D01*
X118071507Y-104021735D01*
X118061105Y-103978406D01*
X118058163Y-103971303D01*
X117972135Y-103763611D01*
X117972133Y-103763607D01*
X117970240Y-103759037D01*
X117909981Y-103660704D01*
X117848759Y-103560798D01*
X117848755Y-103560792D01*
X117846176Y-103556584D01*
X117691969Y-103376031D01*
X117511416Y-103221824D01*
X117507208Y-103219245D01*
X117507202Y-103219241D01*
X117498470Y-103213890D01*
X120254093Y-103213890D01*
X120257876Y-103222666D01*
X121109188Y-104073978D01*
X121123132Y-104081592D01*
X121124965Y-104081461D01*
X121131580Y-104077210D01*
X121983080Y-103225710D01*
X121989840Y-103213330D01*
X121984113Y-103205680D01*
X121812958Y-103100795D01*
X121804163Y-103096313D01*
X121594012Y-103009266D01*
X121584627Y-103006217D01*
X121363446Y-102953115D01*
X121353699Y-102951572D01*
X121126930Y-102933725D01*
X121117070Y-102933725D01*
X120890301Y-102951572D01*
X120880554Y-102953115D01*
X120659373Y-103006217D01*
X120649988Y-103009266D01*
X120439837Y-103096313D01*
X120431042Y-103100795D01*
X120263555Y-103203432D01*
X120254093Y-103213890D01*
X117498470Y-103213890D01*
X117313183Y-103100346D01*
X117308963Y-103097760D01*
X117304393Y-103095867D01*
X117304389Y-103095865D01*
X117094167Y-103008789D01*
X117094165Y-103008788D01*
X117089594Y-103006895D01*
X117009391Y-102987640D01*
X116863524Y-102952620D01*
X116863518Y-102952619D01*
X116858711Y-102951465D01*
X116622000Y-102932835D01*
X116385289Y-102951465D01*
X116380482Y-102952619D01*
X116380476Y-102952620D01*
X116234609Y-102987640D01*
X116154406Y-103006895D01*
X116149835Y-103008788D01*
X116149833Y-103008789D01*
X115939611Y-103095865D01*
X115939607Y-103095867D01*
X115935037Y-103097760D01*
X115930817Y-103100346D01*
X115736798Y-103219241D01*
X115736792Y-103219245D01*
X115732584Y-103221824D01*
X115552031Y-103376031D01*
X115397824Y-103556584D01*
X115395245Y-103560792D01*
X115395241Y-103560798D01*
X115334019Y-103660704D01*
X115273760Y-103759037D01*
X115271867Y-103763607D01*
X115271865Y-103763611D01*
X115185837Y-103971303D01*
X115182895Y-103978406D01*
X115172493Y-104021735D01*
X115132204Y-104189550D01*
X115127465Y-104209289D01*
X115108835Y-104446000D01*
X81860029Y-104446000D01*
X81937435Y-104338277D01*
X81940453Y-104334077D01*
X81949575Y-104315621D01*
X82037136Y-104138453D01*
X82037137Y-104138451D01*
X82039430Y-104133811D01*
X82093644Y-103955373D01*
X82102865Y-103925023D01*
X82102865Y-103925021D01*
X82104370Y-103920069D01*
X82133529Y-103698590D01*
X82134599Y-103654795D01*
X82135074Y-103635365D01*
X82135074Y-103635361D01*
X82135156Y-103632000D01*
X82128283Y-103548400D01*
X104280500Y-103548400D01*
X104280837Y-103551646D01*
X104280837Y-103551650D01*
X104290736Y-103647050D01*
X104291474Y-103654166D01*
X104347450Y-103821946D01*
X104440522Y-103972348D01*
X104565697Y-104097305D01*
X104571927Y-104101145D01*
X104571928Y-104101146D01*
X104709090Y-104185694D01*
X104716262Y-104190115D01*
X104787547Y-104213759D01*
X104877611Y-104243632D01*
X104877613Y-104243632D01*
X104884139Y-104245797D01*
X104890975Y-104246497D01*
X104890978Y-104246498D01*
X104934031Y-104250909D01*
X104988600Y-104256500D01*
X106339400Y-104256500D01*
X106342646Y-104256163D01*
X106342650Y-104256163D01*
X106438308Y-104246238D01*
X106438312Y-104246237D01*
X106445166Y-104245526D01*
X106451702Y-104243345D01*
X106451704Y-104243345D01*
X106583806Y-104199272D01*
X106612946Y-104189550D01*
X106763348Y-104096478D01*
X106888305Y-103971303D01*
X106892146Y-103965072D01*
X106977275Y-103826968D01*
X106977276Y-103826966D01*
X106981115Y-103820738D01*
X107020529Y-103701908D01*
X107034632Y-103659389D01*
X107034632Y-103659387D01*
X107036797Y-103652861D01*
X107038935Y-103632000D01*
X107044458Y-103578093D01*
X107047500Y-103548400D01*
X107047500Y-103289225D01*
X107067502Y-103221104D01*
X107084405Y-103200130D01*
X107371592Y-102912943D01*
X107421751Y-102882205D01*
X107517409Y-102851124D01*
X107517412Y-102851123D01*
X107524108Y-102848947D01*
X107679912Y-102756069D01*
X107811266Y-102630982D01*
X107911643Y-102479902D01*
X107976055Y-102310338D01*
X107981630Y-102270668D01*
X108000748Y-102134639D01*
X108000748Y-102134636D01*
X108001299Y-102130717D01*
X108001616Y-102108000D01*
X107981397Y-101927745D01*
X107921745Y-101756448D01*
X107825626Y-101602624D01*
X107811941Y-101588843D01*
X107702778Y-101478915D01*
X107702774Y-101478912D01*
X107697815Y-101473918D01*
X107686697Y-101466862D01*
X107638538Y-101436300D01*
X107544666Y-101376727D01*
X107515463Y-101366328D01*
X107380425Y-101318243D01*
X107380420Y-101318242D01*
X107373790Y-101315881D01*
X107366802Y-101315048D01*
X107366799Y-101315047D01*
X107243698Y-101300368D01*
X107193680Y-101294404D01*
X107186677Y-101295140D01*
X107186676Y-101295140D01*
X107020288Y-101312628D01*
X107020286Y-101312629D01*
X107013288Y-101313364D01*
X106841579Y-101371818D01*
X106835575Y-101375512D01*
X106693095Y-101463166D01*
X106693092Y-101463168D01*
X106687088Y-101466862D01*
X106682053Y-101471793D01*
X106682050Y-101471795D01*
X106562525Y-101588843D01*
X106557493Y-101593771D01*
X106459235Y-101746238D01*
X106456826Y-101752858D01*
X106456824Y-101752861D01*
X106410422Y-101880349D01*
X106381116Y-101926349D01*
X106229870Y-102077595D01*
X106167558Y-102111621D01*
X106140775Y-102114500D01*
X104988600Y-102114500D01*
X104985354Y-102114837D01*
X104985350Y-102114837D01*
X104889692Y-102124762D01*
X104889688Y-102124763D01*
X104882834Y-102125474D01*
X104876298Y-102127655D01*
X104876296Y-102127655D01*
X104855363Y-102134639D01*
X104715054Y-102181450D01*
X104564652Y-102274522D01*
X104439695Y-102399697D01*
X104435855Y-102405927D01*
X104435854Y-102405928D01*
X104391116Y-102478507D01*
X104346885Y-102550262D01*
X104291203Y-102718139D01*
X104280500Y-102822600D01*
X104280500Y-103548400D01*
X82128283Y-103548400D01*
X82116852Y-103409361D01*
X82062431Y-103192702D01*
X81973354Y-102987840D01*
X81924901Y-102912943D01*
X81854822Y-102804617D01*
X81854820Y-102804614D01*
X81852014Y-102800277D01*
X81848532Y-102796450D01*
X81704798Y-102638488D01*
X81673746Y-102574642D01*
X81682141Y-102504143D01*
X81727317Y-102449375D01*
X81753761Y-102435706D01*
X81860297Y-102395767D01*
X81868705Y-102392615D01*
X81985261Y-102305261D01*
X82072615Y-102188705D01*
X82123745Y-102052316D01*
X82130500Y-101990134D01*
X82130500Y-100193866D01*
X82123745Y-100131684D01*
X82072615Y-99995295D01*
X81985261Y-99878739D01*
X81868705Y-99791385D01*
X81732316Y-99740255D01*
X81670134Y-99733500D01*
X79873866Y-99733500D01*
X79811684Y-99740255D01*
X79675295Y-99791385D01*
X79558739Y-99878739D01*
X79553358Y-99885919D01*
X79475326Y-99990037D01*
X79418467Y-100032552D01*
X79347648Y-100037578D01*
X79285355Y-100003518D01*
X79251365Y-99941187D01*
X79248500Y-99914472D01*
X79248499Y-89761072D01*
X79268501Y-89692951D01*
X79322157Y-89646458D01*
X79392431Y-89636354D01*
X79457011Y-89665848D01*
X79490136Y-89711031D01*
X79579362Y-89917221D01*
X79582958Y-89924277D01*
X79739556Y-90189070D01*
X79744013Y-90195628D01*
X79932574Y-90438719D01*
X79937808Y-90444656D01*
X80155344Y-90662192D01*
X80161281Y-90667426D01*
X80404372Y-90855987D01*
X80410930Y-90860444D01*
X80675723Y-91017042D01*
X80682779Y-91020638D01*
X80965131Y-91142823D01*
X80972567Y-91145500D01*
X81268018Y-91231336D01*
X81275720Y-91233057D01*
X81580091Y-91281265D01*
X81586970Y-91281969D01*
X81713361Y-91287930D01*
X81716336Y-91288000D01*
X83547885Y-91288000D01*
X83563124Y-91283525D01*
X83564329Y-91282135D01*
X83566000Y-91274452D01*
X83566000Y-91269884D01*
X84074000Y-91269884D01*
X84078475Y-91285123D01*
X84079865Y-91286328D01*
X84087548Y-91287999D01*
X85923663Y-91287999D01*
X85926639Y-91287929D01*
X86053031Y-91281969D01*
X86059907Y-91281265D01*
X86364280Y-91233057D01*
X86371982Y-91231336D01*
X86667433Y-91145500D01*
X86674869Y-91142823D01*
X86957221Y-91020638D01*
X86964277Y-91017042D01*
X87229070Y-90860444D01*
X87235628Y-90855987D01*
X87478719Y-90667426D01*
X87484656Y-90662192D01*
X87702192Y-90444656D01*
X87707426Y-90438719D01*
X87895987Y-90195628D01*
X87900444Y-90189070D01*
X88057042Y-89924277D01*
X88060638Y-89917221D01*
X88182823Y-89634869D01*
X88185500Y-89627433D01*
X88271336Y-89331982D01*
X88273057Y-89324280D01*
X88321265Y-89019909D01*
X88321969Y-89013030D01*
X88327930Y-88886639D01*
X88328000Y-88883664D01*
X88328000Y-87052115D01*
X88323525Y-87036876D01*
X88322135Y-87035671D01*
X88314452Y-87034000D01*
X84092115Y-87034000D01*
X84076876Y-87038475D01*
X84075671Y-87039865D01*
X84074000Y-87047548D01*
X84074000Y-91269884D01*
X83566000Y-91269884D01*
X83566000Y-86507885D01*
X84074000Y-86507885D01*
X84078475Y-86523124D01*
X84079865Y-86524329D01*
X84087548Y-86526000D01*
X88309884Y-86526000D01*
X88325123Y-86521525D01*
X88326328Y-86520135D01*
X88327999Y-86512452D01*
X88327999Y-84676337D01*
X88327929Y-84673361D01*
X88321969Y-84546969D01*
X88321265Y-84540093D01*
X88273057Y-84235720D01*
X88271336Y-84228018D01*
X88185500Y-83932567D01*
X88182823Y-83925131D01*
X88060638Y-83642779D01*
X88057042Y-83635723D01*
X87900444Y-83370930D01*
X87895987Y-83364372D01*
X87707426Y-83121281D01*
X87702192Y-83115344D01*
X87484656Y-82897808D01*
X87478719Y-82892574D01*
X87235628Y-82704013D01*
X87229070Y-82699556D01*
X86964277Y-82542958D01*
X86957221Y-82539362D01*
X86674869Y-82417177D01*
X86667433Y-82414500D01*
X86371982Y-82328664D01*
X86364280Y-82326943D01*
X86059909Y-82278735D01*
X86053030Y-82278031D01*
X85926639Y-82272070D01*
X85923664Y-82272000D01*
X84092115Y-82272000D01*
X84076876Y-82276475D01*
X84075671Y-82277865D01*
X84074000Y-82285548D01*
X84074000Y-86507885D01*
X83566000Y-86507885D01*
X83566000Y-82290116D01*
X83561525Y-82274877D01*
X83560135Y-82273672D01*
X83552452Y-82272001D01*
X81716337Y-82272001D01*
X81713361Y-82272071D01*
X81586969Y-82278031D01*
X81580093Y-82278735D01*
X81275720Y-82326943D01*
X81268018Y-82328664D01*
X80972567Y-82414500D01*
X80965131Y-82417177D01*
X80682779Y-82539362D01*
X80675723Y-82542958D01*
X80410930Y-82699556D01*
X80404372Y-82704013D01*
X80161281Y-82892574D01*
X80155344Y-82897808D01*
X79937808Y-83115344D01*
X79932574Y-83121281D01*
X79744013Y-83364372D01*
X79739556Y-83370930D01*
X79582958Y-83635723D01*
X79579362Y-83642779D01*
X79490136Y-83848969D01*
X79444725Y-83903543D01*
X79377018Y-83924903D01*
X79308511Y-83906267D01*
X79260955Y-83853551D01*
X79248499Y-83798928D01*
X79248499Y-80628948D01*
X79248498Y-77096153D01*
X79268500Y-77028033D01*
X79322156Y-76981540D01*
X79392430Y-76971436D01*
X79457010Y-77000930D01*
X79496204Y-77063542D01*
X79517207Y-77141924D01*
X79517211Y-77141936D01*
X79517949Y-77144691D01*
X79659340Y-77528980D01*
X79834979Y-77898874D01*
X79952260Y-78097186D01*
X80013473Y-78200691D01*
X80043418Y-78251326D01*
X80282944Y-78583436D01*
X80551584Y-78892471D01*
X80847126Y-79175886D01*
X80849344Y-79177656D01*
X80849349Y-79177661D01*
X80918213Y-79232634D01*
X81167139Y-79431349D01*
X81169520Y-79432919D01*
X81498082Y-79649565D01*
X81508989Y-79656757D01*
X81511519Y-79658113D01*
X81511518Y-79658113D01*
X81842751Y-79835719D01*
X81869860Y-79850255D01*
X82246784Y-80010250D01*
X82249522Y-80011129D01*
X82633931Y-80134549D01*
X82633935Y-80134550D01*
X82636657Y-80135424D01*
X82639447Y-80136048D01*
X82639452Y-80136049D01*
X83033477Y-80224125D01*
X83033488Y-80224127D01*
X83036271Y-80224749D01*
X83442335Y-80277487D01*
X83851509Y-80293206D01*
X83854371Y-80293056D01*
X83854372Y-80293056D01*
X84257566Y-80271926D01*
X84257573Y-80271925D01*
X84260422Y-80271776D01*
X84263245Y-80271369D01*
X84263247Y-80271369D01*
X84662889Y-80213780D01*
X84662896Y-80213779D01*
X84665711Y-80213373D01*
X85064038Y-80118478D01*
X85066736Y-80117570D01*
X85066743Y-80117568D01*
X85449414Y-79988785D01*
X85449420Y-79988783D01*
X85452126Y-79987872D01*
X85826779Y-79822630D01*
X86184914Y-79624113D01*
X86523583Y-79393954D01*
X86719977Y-79232634D01*
X86837779Y-79135870D01*
X86837783Y-79135867D01*
X86839998Y-79134047D01*
X86842036Y-79132038D01*
X86842043Y-79132031D01*
X87087161Y-78890311D01*
X87131555Y-78846533D01*
X87137261Y-78839781D01*
X87394008Y-78535963D01*
X87394013Y-78535957D01*
X87395854Y-78533778D01*
X87630719Y-78198356D01*
X87834217Y-77843027D01*
X87976815Y-77531567D01*
X88003485Y-77473316D01*
X88003488Y-77473307D01*
X88004674Y-77470718D01*
X88140685Y-77084492D01*
X88151639Y-77041203D01*
X88240430Y-76690307D01*
X88240431Y-76690303D01*
X88241133Y-76687528D01*
X88244965Y-76663338D01*
X88302040Y-76302975D01*
X88305189Y-76283095D01*
X88322796Y-76018000D01*
X88332210Y-75876271D01*
X88332210Y-75876260D01*
X88332326Y-75874520D01*
X88333316Y-75780000D01*
X88314741Y-75370947D01*
X88259169Y-74965260D01*
X88167057Y-74566280D01*
X88157120Y-74536056D01*
X88040057Y-74180005D01*
X88040054Y-74179998D01*
X88039164Y-74177290D01*
X88033629Y-74164500D01*
X95098496Y-74164500D01*
X95118458Y-74354428D01*
X95177473Y-74536056D01*
X95180776Y-74541778D01*
X95180777Y-74541779D01*
X95193755Y-74564257D01*
X95272960Y-74701444D01*
X95400747Y-74843366D01*
X95555248Y-74955618D01*
X95561276Y-74958302D01*
X95561278Y-74958303D01*
X95723681Y-75030609D01*
X95729712Y-75033294D01*
X95899631Y-75069412D01*
X95962528Y-75103563D01*
X97308095Y-76449130D01*
X97342121Y-76511442D01*
X97345000Y-76538225D01*
X97345000Y-83958959D01*
X97324998Y-84027080D01*
X97271342Y-84073573D01*
X97201068Y-84083677D01*
X97144939Y-84060895D01*
X97043594Y-83987263D01*
X97043593Y-83987262D01*
X97038252Y-83983382D01*
X97032224Y-83980698D01*
X97032222Y-83980697D01*
X96869819Y-83908391D01*
X96869818Y-83908391D01*
X96863788Y-83905706D01*
X96764008Y-83884497D01*
X96683444Y-83867372D01*
X96683439Y-83867372D01*
X96676987Y-83866000D01*
X96486013Y-83866000D01*
X96479561Y-83867372D01*
X96479556Y-83867372D01*
X96398992Y-83884497D01*
X96299212Y-83905706D01*
X96293182Y-83908391D01*
X96293181Y-83908391D01*
X96130778Y-83980697D01*
X96130776Y-83980698D01*
X96124748Y-83983382D01*
X95970247Y-84095634D01*
X95965826Y-84100544D01*
X95965825Y-84100545D01*
X95941955Y-84127056D01*
X95842460Y-84237556D01*
X95746973Y-84402944D01*
X95687958Y-84584572D01*
X95687268Y-84591133D01*
X95687268Y-84591135D01*
X95676114Y-84697259D01*
X95667996Y-84774500D01*
X95687958Y-84964428D01*
X95746973Y-85146056D01*
X95750276Y-85151778D01*
X95750277Y-85151779D01*
X95804119Y-85245035D01*
X95821000Y-85308035D01*
X95821000Y-88270221D01*
X95800998Y-88338342D01*
X95788641Y-88354525D01*
X95780960Y-88363056D01*
X95685473Y-88528444D01*
X95626458Y-88710072D01*
X95606496Y-88900000D01*
X95626458Y-89089928D01*
X95685473Y-89271556D01*
X95780960Y-89436944D01*
X95785378Y-89441851D01*
X95785379Y-89441852D01*
X95851635Y-89515437D01*
X95908747Y-89578866D01*
X96063248Y-89691118D01*
X96069276Y-89693802D01*
X96069278Y-89693803D01*
X96220368Y-89761072D01*
X96237712Y-89768794D01*
X96331112Y-89788647D01*
X96418056Y-89807128D01*
X96418061Y-89807128D01*
X96424513Y-89808500D01*
X96615487Y-89808500D01*
X96621939Y-89807128D01*
X96621944Y-89807128D01*
X96708888Y-89788647D01*
X96802288Y-89768794D01*
X96819632Y-89761072D01*
X96970722Y-89693803D01*
X96970724Y-89693802D01*
X96976752Y-89691118D01*
X97131253Y-89578866D01*
X97188365Y-89515436D01*
X97248810Y-89478198D01*
X97319794Y-89479550D01*
X97375634Y-89515436D01*
X97432747Y-89578866D01*
X97587248Y-89691118D01*
X97593276Y-89693802D01*
X97593278Y-89693803D01*
X97744368Y-89761072D01*
X97761712Y-89768794D01*
X97855112Y-89788647D01*
X97942056Y-89807128D01*
X97942061Y-89807128D01*
X97948513Y-89808500D01*
X98139487Y-89808500D01*
X98145939Y-89807128D01*
X98145944Y-89807128D01*
X98232888Y-89788647D01*
X98326288Y-89768794D01*
X98343632Y-89761072D01*
X98494722Y-89693803D01*
X98494724Y-89693802D01*
X98500752Y-89691118D01*
X98655253Y-89578866D01*
X98712365Y-89515437D01*
X98778621Y-89441852D01*
X98778622Y-89441851D01*
X98783040Y-89436944D01*
X98878527Y-89271556D01*
X98937542Y-89089928D01*
X98957504Y-88900000D01*
X98937542Y-88710072D01*
X98878527Y-88528444D01*
X98783040Y-88363056D01*
X98775363Y-88354530D01*
X98744647Y-88290524D01*
X98743000Y-88270221D01*
X98743000Y-83584194D01*
X104033073Y-83584194D01*
X104042610Y-83646515D01*
X104044999Y-83656543D01*
X104116398Y-83874988D01*
X104120395Y-83884497D01*
X104226511Y-84088344D01*
X104232005Y-84097069D01*
X104369993Y-84280852D01*
X104376836Y-84288559D01*
X104542991Y-84447339D01*
X104551001Y-84453826D01*
X104740847Y-84583330D01*
X104749821Y-84588429D01*
X104958269Y-84685187D01*
X104967956Y-84688750D01*
X105189408Y-84750165D01*
X105199530Y-84752096D01*
X105244487Y-84756901D01*
X105259108Y-84754253D01*
X105262353Y-84742412D01*
X105770500Y-84742412D01*
X105774825Y-84757141D01*
X105786611Y-84759202D01*
X105798204Y-84758249D01*
X105808366Y-84756567D01*
X106031271Y-84700578D01*
X106041019Y-84697259D01*
X106251789Y-84605615D01*
X106260864Y-84600749D01*
X106453827Y-84475915D01*
X106461998Y-84469622D01*
X106631980Y-84314950D01*
X106639006Y-84307417D01*
X106781445Y-84127056D01*
X106787150Y-84118469D01*
X106898214Y-83917278D01*
X106902444Y-83907866D01*
X106979159Y-83691232D01*
X106981793Y-83681261D01*
X106999147Y-83583837D01*
X106997687Y-83570540D01*
X106983130Y-83566000D01*
X105788615Y-83566000D01*
X105773376Y-83570475D01*
X105772171Y-83571865D01*
X105770500Y-83579548D01*
X105770500Y-84742412D01*
X105262353Y-84742412D01*
X105262500Y-84741876D01*
X105262500Y-83584115D01*
X105258025Y-83568876D01*
X105256635Y-83567671D01*
X105248952Y-83566000D01*
X104048404Y-83566000D01*
X104035060Y-83569918D01*
X104033073Y-83584194D01*
X98743000Y-83584194D01*
X98743000Y-80874263D01*
X104006564Y-80874263D01*
X104042904Y-81111744D01*
X104079594Y-81223997D01*
X104115934Y-81335183D01*
X104115937Y-81335189D01*
X104117542Y-81340101D01*
X104228475Y-81553200D01*
X104372723Y-81745320D01*
X104546412Y-81911301D01*
X104583851Y-81936840D01*
X104628852Y-81991751D01*
X104637023Y-82062275D01*
X104605769Y-82126022D01*
X104581290Y-82146716D01*
X104579174Y-82148085D01*
X104571002Y-82154378D01*
X104401020Y-82309050D01*
X104393994Y-82316583D01*
X104251555Y-82496944D01*
X104245850Y-82505531D01*
X104134786Y-82706722D01*
X104130556Y-82716134D01*
X104053841Y-82932768D01*
X104051207Y-82942739D01*
X104033853Y-83040163D01*
X104035313Y-83053460D01*
X104049870Y-83058000D01*
X106984596Y-83058000D01*
X106997940Y-83054082D01*
X106999927Y-83039806D01*
X106990390Y-82977485D01*
X106988001Y-82967457D01*
X106916602Y-82749012D01*
X106912605Y-82739503D01*
X106806489Y-82535656D01*
X106800995Y-82526931D01*
X106663007Y-82343148D01*
X106656164Y-82335441D01*
X106490009Y-82176661D01*
X106482002Y-82170177D01*
X106449144Y-82147763D01*
X106404141Y-82092852D01*
X106395968Y-82022328D01*
X106427222Y-81958580D01*
X106451704Y-81937884D01*
X106454135Y-81936311D01*
X106458477Y-81933502D01*
X106636170Y-81771814D01*
X106696847Y-81694983D01*
X106781867Y-81587330D01*
X106781870Y-81587325D01*
X106785068Y-81583276D01*
X106799385Y-81557342D01*
X106898677Y-81377474D01*
X106898679Y-81377470D01*
X106901174Y-81372950D01*
X106981370Y-81146485D01*
X106986683Y-81116659D01*
X107022595Y-80915052D01*
X107022596Y-80915046D01*
X107023501Y-80909963D01*
X107026436Y-80669737D01*
X106990096Y-80432256D01*
X106939510Y-80277487D01*
X106917066Y-80208817D01*
X106917063Y-80208811D01*
X106915458Y-80203899D01*
X106880138Y-80136049D01*
X106806916Y-79995393D01*
X106804525Y-79990800D01*
X106688085Y-79835717D01*
X106663180Y-79769235D01*
X106678172Y-79699839D01*
X106728302Y-79649565D01*
X106744615Y-79642085D01*
X106754793Y-79638269D01*
X106754796Y-79638267D01*
X106763205Y-79635115D01*
X106879761Y-79547761D01*
X106967115Y-79431205D01*
X107018245Y-79294816D01*
X107025000Y-79232634D01*
X107025000Y-77231366D01*
X107018245Y-77169184D01*
X106967115Y-77032795D01*
X106879761Y-76916239D01*
X106763205Y-76828885D01*
X106626816Y-76777755D01*
X106564634Y-76771000D01*
X104468366Y-76771000D01*
X104406184Y-76777755D01*
X104269795Y-76828885D01*
X104153239Y-76916239D01*
X104065885Y-77032795D01*
X104014755Y-77169184D01*
X104008000Y-77231366D01*
X104008000Y-79232634D01*
X104014755Y-79294816D01*
X104065885Y-79431205D01*
X104153239Y-79547761D01*
X104269795Y-79635115D01*
X104289689Y-79642573D01*
X104346453Y-79685213D01*
X104371154Y-79751774D01*
X104355947Y-79821123D01*
X104344342Y-79838647D01*
X104251133Y-79956670D01*
X104251130Y-79956675D01*
X104247932Y-79960724D01*
X104245439Y-79965240D01*
X104245437Y-79965243D01*
X104134323Y-80166526D01*
X104131826Y-80171050D01*
X104130102Y-80175919D01*
X104130100Y-80175923D01*
X104094265Y-80277118D01*
X104051630Y-80397515D01*
X104050723Y-80402608D01*
X104050722Y-80402611D01*
X104045442Y-80432256D01*
X104009499Y-80634037D01*
X104006564Y-80874263D01*
X98743000Y-80874263D01*
X98743000Y-76225099D01*
X98743292Y-76216529D01*
X98746654Y-76167223D01*
X98746654Y-76167219D01*
X98747170Y-76159648D01*
X98745865Y-76152172D01*
X98745865Y-76152168D01*
X98736337Y-76097576D01*
X98735374Y-76091051D01*
X98728722Y-76036082D01*
X98728721Y-76036080D01*
X98727809Y-76028540D01*
X98725125Y-76021438D01*
X98724281Y-76018000D01*
X98720417Y-76003877D01*
X98719387Y-76000465D01*
X98718081Y-75992983D01*
X98715029Y-75986030D01*
X98715027Y-75986024D01*
X98692763Y-75935306D01*
X98690270Y-75929198D01*
X98670692Y-75877385D01*
X98670690Y-75877382D01*
X98668006Y-75870278D01*
X98663701Y-75864014D01*
X98662045Y-75860847D01*
X98654940Y-75848082D01*
X98653132Y-75845025D01*
X98650078Y-75838067D01*
X98621145Y-75800361D01*
X98611740Y-75788104D01*
X98607862Y-75782767D01*
X98576481Y-75737107D01*
X98576479Y-75737105D01*
X98572179Y-75730848D01*
X98526311Y-75689981D01*
X98521036Y-75685001D01*
X96948243Y-74112208D01*
X96914217Y-74049896D01*
X96912028Y-74036283D01*
X96906232Y-73981137D01*
X96906232Y-73981135D01*
X96905542Y-73974572D01*
X96894864Y-73941707D01*
X96848569Y-73799229D01*
X96846527Y-73792944D01*
X96751040Y-73627556D01*
X96723337Y-73596788D01*
X96627675Y-73490545D01*
X96627674Y-73490544D01*
X96623253Y-73485634D01*
X96468752Y-73373382D01*
X96462724Y-73370698D01*
X96462722Y-73370697D01*
X96300319Y-73298391D01*
X96300318Y-73298391D01*
X96294288Y-73295706D01*
X96198291Y-73275301D01*
X96113944Y-73257372D01*
X96113939Y-73257372D01*
X96107487Y-73256000D01*
X95916513Y-73256000D01*
X95910061Y-73257372D01*
X95910056Y-73257372D01*
X95825709Y-73275301D01*
X95729712Y-73295706D01*
X95723682Y-73298391D01*
X95723681Y-73298391D01*
X95561278Y-73370697D01*
X95561276Y-73370698D01*
X95555248Y-73373382D01*
X95400747Y-73485634D01*
X95396326Y-73490544D01*
X95396325Y-73490545D01*
X95300664Y-73596788D01*
X95272960Y-73627556D01*
X95177473Y-73792944D01*
X95118458Y-73974572D01*
X95098496Y-74164500D01*
X88033629Y-74164500D01*
X87876542Y-73801492D01*
X87764855Y-73596644D01*
X87681899Y-73444492D01*
X87681895Y-73444485D01*
X87680529Y-73441980D01*
X87556026Y-73256000D01*
X87454332Y-73104090D01*
X87454324Y-73104079D01*
X87452740Y-73101713D01*
X87195049Y-72783491D01*
X87155923Y-72743256D01*
X86911567Y-72491980D01*
X86911563Y-72491976D01*
X86909577Y-72489934D01*
X86907419Y-72488084D01*
X86907409Y-72488075D01*
X86600849Y-72225321D01*
X86600844Y-72225317D01*
X86598675Y-72223458D01*
X86596344Y-72221801D01*
X86596337Y-72221796D01*
X86390663Y-72075632D01*
X86264900Y-71986257D01*
X86012093Y-71839120D01*
X85913474Y-71781722D01*
X85913469Y-71781719D01*
X85911001Y-71780283D01*
X85676846Y-71671095D01*
X85542487Y-71608442D01*
X85542477Y-71608438D01*
X85539891Y-71607232D01*
X85430640Y-71567899D01*
X85157314Y-71469495D01*
X85157305Y-71469492D01*
X85154624Y-71468527D01*
X84973700Y-71421400D01*
X100663000Y-71421400D01*
X100663337Y-71424646D01*
X100663337Y-71424650D01*
X100673106Y-71518796D01*
X100673974Y-71527166D01*
X100676155Y-71533702D01*
X100676155Y-71533704D01*
X100689204Y-71572817D01*
X100729950Y-71694946D01*
X100823022Y-71845348D01*
X100948197Y-71970305D01*
X100954427Y-71974145D01*
X100954428Y-71974146D01*
X101059490Y-72038907D01*
X101098762Y-72063115D01*
X101131260Y-72073894D01*
X101260111Y-72116632D01*
X101260113Y-72116632D01*
X101266639Y-72118797D01*
X101273475Y-72119497D01*
X101273478Y-72119498D01*
X101316531Y-72123909D01*
X101371100Y-72129500D01*
X102076775Y-72129500D01*
X102144896Y-72149502D01*
X102165870Y-72166405D01*
X102609503Y-72610038D01*
X102615356Y-72616303D01*
X102652842Y-72659274D01*
X102659056Y-72663641D01*
X102704378Y-72695494D01*
X102709674Y-72699427D01*
X102753263Y-72733606D01*
X102753266Y-72733608D01*
X102759240Y-72738292D01*
X102766164Y-72741418D01*
X102769199Y-72743256D01*
X102781898Y-72750500D01*
X102785046Y-72752188D01*
X102791261Y-72756556D01*
X102849950Y-72779438D01*
X102855995Y-72781978D01*
X102913435Y-72807913D01*
X102920908Y-72809298D01*
X102924326Y-72810369D01*
X102938315Y-72814354D01*
X102941807Y-72815251D01*
X102948889Y-72818012D01*
X102956422Y-72819004D01*
X102956423Y-72819004D01*
X103011330Y-72826233D01*
X103017843Y-72827265D01*
X103072318Y-72837361D01*
X103072320Y-72837361D01*
X103079787Y-72838745D01*
X103087367Y-72838308D01*
X103087368Y-72838308D01*
X103141112Y-72835209D01*
X103148365Y-72835000D01*
X104109226Y-72835000D01*
X104177347Y-72855002D01*
X104220990Y-72902821D01*
X104226084Y-72912608D01*
X104226087Y-72912613D01*
X104228475Y-72917200D01*
X104372723Y-73109320D01*
X104546412Y-73275301D01*
X104744878Y-73410686D01*
X104749561Y-73412860D01*
X104749565Y-73412862D01*
X104958095Y-73509658D01*
X104958099Y-73509659D01*
X104962790Y-73511837D01*
X105194298Y-73576040D01*
X105199435Y-73576589D01*
X105387093Y-73596644D01*
X105387101Y-73596644D01*
X105390428Y-73597000D01*
X105624902Y-73597000D01*
X105627475Y-73596788D01*
X105627486Y-73596788D01*
X105798283Y-73582746D01*
X105798286Y-73582745D01*
X105803437Y-73582322D01*
X105808451Y-73581063D01*
X105808720Y-73581018D01*
X105879193Y-73589626D01*
X105918393Y-73616231D01*
X108928595Y-76626433D01*
X108962621Y-76688745D01*
X108965500Y-76715528D01*
X108965500Y-82273929D01*
X108948619Y-82336928D01*
X108893473Y-82432444D01*
X108834458Y-82614072D01*
X108814496Y-82804000D01*
X108815186Y-82810565D01*
X108824356Y-82897808D01*
X108834458Y-82993928D01*
X108893473Y-83175556D01*
X108988960Y-83340944D01*
X108993378Y-83345851D01*
X108993379Y-83345852D01*
X109015959Y-83370930D01*
X109116747Y-83482866D01*
X109215843Y-83554864D01*
X109233471Y-83567671D01*
X109271248Y-83595118D01*
X109277276Y-83597802D01*
X109277278Y-83597803D01*
X109386688Y-83646515D01*
X109445712Y-83672794D01*
X109539113Y-83692647D01*
X109626056Y-83711128D01*
X109626061Y-83711128D01*
X109632513Y-83712500D01*
X109823487Y-83712500D01*
X109829939Y-83711128D01*
X109829944Y-83711128D01*
X109916887Y-83692647D01*
X110010288Y-83672794D01*
X110069312Y-83646515D01*
X110178722Y-83597803D01*
X110178724Y-83597802D01*
X110184752Y-83595118D01*
X110222530Y-83567671D01*
X110240157Y-83554864D01*
X110339253Y-83482866D01*
X110440041Y-83370930D01*
X110462621Y-83345852D01*
X110462622Y-83345851D01*
X110467040Y-83340944D01*
X110562527Y-83175556D01*
X110621542Y-82993928D01*
X110631645Y-82897808D01*
X110640814Y-82810565D01*
X110641504Y-82804000D01*
X110621542Y-82614072D01*
X110562527Y-82432444D01*
X110507381Y-82336928D01*
X110490500Y-82273929D01*
X110490500Y-76414868D01*
X110491933Y-76395917D01*
X110494123Y-76381524D01*
X110494123Y-76381522D01*
X110495223Y-76374292D01*
X110490915Y-76321325D01*
X110490500Y-76311111D01*
X110490500Y-76302975D01*
X110487190Y-76274584D01*
X110486757Y-76270209D01*
X110481403Y-76204372D01*
X110481402Y-76204369D01*
X110480809Y-76197073D01*
X110478554Y-76190111D01*
X110477354Y-76184107D01*
X110475948Y-76178160D01*
X110475101Y-76170893D01*
X110450053Y-76101887D01*
X110448625Y-76097727D01*
X110428268Y-76034887D01*
X110428266Y-76034882D01*
X110426012Y-76027925D01*
X110422218Y-76021673D01*
X110419666Y-76016098D01*
X110416930Y-76010635D01*
X110414434Y-76003759D01*
X110374181Y-75942363D01*
X110371834Y-75938644D01*
X110371147Y-75937512D01*
X110333772Y-75875919D01*
X110326332Y-75867494D01*
X110326360Y-75867469D01*
X110323766Y-75864544D01*
X110320961Y-75861190D01*
X110316946Y-75855065D01*
X110299003Y-75838067D01*
X110260414Y-75801512D01*
X110257972Y-75799134D01*
X107026028Y-72567190D01*
X106992002Y-72504878D01*
X106991076Y-72455999D01*
X107022595Y-72279052D01*
X107022596Y-72279046D01*
X107023501Y-72273963D01*
X107025924Y-72075632D01*
X107026373Y-72038907D01*
X107026373Y-72038905D01*
X107026436Y-72033737D01*
X106990096Y-71796256D01*
X106948415Y-71668733D01*
X106917066Y-71572817D01*
X106917063Y-71572811D01*
X106915458Y-71567899D01*
X106889897Y-71518796D01*
X106806916Y-71359393D01*
X106804525Y-71354800D01*
X106762203Y-71298433D01*
X106663382Y-71166815D01*
X106663380Y-71166812D01*
X106660277Y-71162680D01*
X106486588Y-70996699D01*
X106449597Y-70971465D01*
X106404596Y-70916556D01*
X106396425Y-70846032D01*
X106427679Y-70782284D01*
X106452160Y-70761589D01*
X106454135Y-70760311D01*
X106458477Y-70757502D01*
X106636170Y-70595814D01*
X106767910Y-70429002D01*
X106781867Y-70411330D01*
X106781870Y-70411325D01*
X106785068Y-70407276D01*
X106799385Y-70381342D01*
X106898677Y-70201474D01*
X106898679Y-70201470D01*
X106901174Y-70196950D01*
X106916843Y-70152704D01*
X106979644Y-69975360D01*
X106979645Y-69975356D01*
X106981370Y-69970485D01*
X106986683Y-69940659D01*
X107022595Y-69739052D01*
X107022596Y-69739046D01*
X107023501Y-69733963D01*
X107026436Y-69493737D01*
X106990096Y-69256256D01*
X106948049Y-69127612D01*
X106917066Y-69032817D01*
X106917063Y-69032811D01*
X106915458Y-69027899D01*
X106855683Y-68913072D01*
X106806916Y-68819393D01*
X106804525Y-68814800D01*
X106688085Y-68659717D01*
X106663180Y-68593235D01*
X106678172Y-68523839D01*
X106728302Y-68473565D01*
X106744615Y-68466085D01*
X106754793Y-68462269D01*
X106754796Y-68462267D01*
X106763205Y-68459115D01*
X106879761Y-68371761D01*
X106967115Y-68255205D01*
X107018245Y-68118816D01*
X107025000Y-68056634D01*
X107025000Y-66055366D01*
X107018245Y-65993184D01*
X106967115Y-65856795D01*
X106879761Y-65740239D01*
X106763205Y-65652885D01*
X106626816Y-65601755D01*
X106564634Y-65595000D01*
X104468366Y-65595000D01*
X104406184Y-65601755D01*
X104269795Y-65652885D01*
X104153239Y-65740239D01*
X104065885Y-65856795D01*
X104014755Y-65993184D01*
X104008000Y-66055366D01*
X104008000Y-66231000D01*
X103987998Y-66299121D01*
X103934342Y-66345614D01*
X103882000Y-66357000D01*
X103152599Y-66357000D01*
X103144029Y-66356708D01*
X103094723Y-66353346D01*
X103094719Y-66353346D01*
X103087148Y-66352830D01*
X103079672Y-66354135D01*
X103079668Y-66354135D01*
X103025076Y-66363663D01*
X103018551Y-66364626D01*
X102963582Y-66371278D01*
X102963580Y-66371279D01*
X102956040Y-66372191D01*
X102948938Y-66374875D01*
X102945500Y-66375719D01*
X102931377Y-66379583D01*
X102927966Y-66380613D01*
X102920483Y-66381919D01*
X102913528Y-66384972D01*
X102862802Y-66407239D01*
X102856696Y-66409730D01*
X102797778Y-66431994D01*
X102791523Y-66436293D01*
X102788382Y-66437935D01*
X102775628Y-66445033D01*
X102772522Y-66446870D01*
X102765567Y-66449923D01*
X102759540Y-66454548D01*
X102759536Y-66454550D01*
X102715598Y-66488265D01*
X102710280Y-66492129D01*
X102658348Y-66527821D01*
X102653296Y-66533491D01*
X102653295Y-66533492D01*
X102617482Y-66573688D01*
X102612501Y-66578964D01*
X102165870Y-67025595D01*
X102103558Y-67059621D01*
X102076775Y-67062500D01*
X101371100Y-67062500D01*
X101367854Y-67062837D01*
X101367850Y-67062837D01*
X101272192Y-67072762D01*
X101272188Y-67072763D01*
X101265334Y-67073474D01*
X101258798Y-67075655D01*
X101258796Y-67075655D01*
X101126694Y-67119728D01*
X101097554Y-67129450D01*
X100947152Y-67222522D01*
X100822195Y-67347697D01*
X100729385Y-67498262D01*
X100673703Y-67666139D01*
X100663000Y-67770600D01*
X100663000Y-68496400D01*
X100663337Y-68499646D01*
X100663337Y-68499650D01*
X100671236Y-68575774D01*
X100673974Y-68602166D01*
X100676155Y-68608702D01*
X100676155Y-68608704D01*
X100689663Y-68649191D01*
X100729950Y-68769946D01*
X100823022Y-68920348D01*
X100948197Y-69045305D01*
X100954427Y-69049145D01*
X100954428Y-69049146D01*
X101091590Y-69133694D01*
X101098762Y-69138115D01*
X101178505Y-69164564D01*
X101260111Y-69191632D01*
X101260113Y-69191632D01*
X101266639Y-69193797D01*
X101273475Y-69194497D01*
X101273478Y-69194498D01*
X101316531Y-69198909D01*
X101371100Y-69204500D01*
X102721900Y-69204500D01*
X102725146Y-69204163D01*
X102725150Y-69204163D01*
X102820808Y-69194238D01*
X102820812Y-69194237D01*
X102827666Y-69193526D01*
X102834202Y-69191345D01*
X102834204Y-69191345D01*
X102966306Y-69147272D01*
X102995446Y-69137550D01*
X103145848Y-69044478D01*
X103270805Y-68919303D01*
X103337775Y-68810658D01*
X103359775Y-68774968D01*
X103359776Y-68774966D01*
X103363615Y-68768738D01*
X103419297Y-68600861D01*
X103420079Y-68593235D01*
X103424409Y-68550969D01*
X103430000Y-68496400D01*
X103430000Y-67881000D01*
X103450002Y-67812879D01*
X103503658Y-67766386D01*
X103556000Y-67755000D01*
X103882000Y-67755000D01*
X103950121Y-67775002D01*
X103996614Y-67828658D01*
X104008000Y-67881000D01*
X104008000Y-68056634D01*
X104014755Y-68118816D01*
X104065885Y-68255205D01*
X104153239Y-68371761D01*
X104269795Y-68459115D01*
X104289689Y-68466573D01*
X104346453Y-68509213D01*
X104371154Y-68575774D01*
X104355947Y-68645123D01*
X104344342Y-68662647D01*
X104251133Y-68780670D01*
X104251130Y-68780675D01*
X104247932Y-68784724D01*
X104245439Y-68789240D01*
X104245437Y-68789243D01*
X104170781Y-68924483D01*
X104131826Y-68995050D01*
X104130102Y-68999919D01*
X104130100Y-68999923D01*
X104057655Y-69204500D01*
X104051630Y-69221515D01*
X104050723Y-69226608D01*
X104050722Y-69226611D01*
X104045442Y-69256256D01*
X104009499Y-69458037D01*
X104006564Y-69698263D01*
X104042904Y-69935744D01*
X104063319Y-69998203D01*
X104115934Y-70159183D01*
X104115937Y-70159189D01*
X104117542Y-70164101D01*
X104119929Y-70168687D01*
X104119931Y-70168691D01*
X104226084Y-70372607D01*
X104228475Y-70377200D01*
X104372723Y-70569320D01*
X104546412Y-70735301D01*
X104583403Y-70760535D01*
X104628404Y-70815444D01*
X104636575Y-70885968D01*
X104605321Y-70949716D01*
X104580840Y-70970411D01*
X104579207Y-70971468D01*
X104574523Y-70974498D01*
X104396830Y-71136186D01*
X104247932Y-71324724D01*
X104221892Y-71371895D01*
X104171461Y-71421864D01*
X104111585Y-71437000D01*
X103556000Y-71437000D01*
X103487879Y-71416998D01*
X103441386Y-71363342D01*
X103430000Y-71311000D01*
X103430000Y-70695600D01*
X103419026Y-70589834D01*
X103410803Y-70565185D01*
X103365368Y-70429002D01*
X103363050Y-70422054D01*
X103269978Y-70271652D01*
X103144803Y-70146695D01*
X103138572Y-70142854D01*
X103000468Y-70057725D01*
X103000466Y-70057724D01*
X102994238Y-70053885D01*
X102833754Y-70000655D01*
X102832889Y-70000368D01*
X102832887Y-70000368D01*
X102826361Y-69998203D01*
X102819525Y-69997503D01*
X102819522Y-69997502D01*
X102776469Y-69993091D01*
X102721900Y-69987500D01*
X101371100Y-69987500D01*
X101367854Y-69987837D01*
X101367850Y-69987837D01*
X101272192Y-69997762D01*
X101272188Y-69997763D01*
X101265334Y-69998474D01*
X101258798Y-70000655D01*
X101258796Y-70000655D01*
X101126694Y-70044728D01*
X101097554Y-70054450D01*
X100947152Y-70147522D01*
X100822195Y-70272697D01*
X100818355Y-70278927D01*
X100818354Y-70278928D01*
X100742025Y-70402757D01*
X100729385Y-70423262D01*
X100727081Y-70430209D01*
X100682312Y-70565185D01*
X100673703Y-70591139D01*
X100663000Y-70695600D01*
X100663000Y-71421400D01*
X84973700Y-71421400D01*
X84892247Y-71400183D01*
X84761140Y-71366032D01*
X84761134Y-71366031D01*
X84758371Y-71365311D01*
X84354395Y-71298433D01*
X84351552Y-71298224D01*
X84351550Y-71298224D01*
X83948865Y-71268653D01*
X83946019Y-71268444D01*
X83776043Y-71271411D01*
X83539458Y-71275540D01*
X83539453Y-71275540D01*
X83536607Y-71275590D01*
X83533774Y-71275898D01*
X83533770Y-71275898D01*
X83210652Y-71311000D01*
X83129527Y-71319813D01*
X82728130Y-71400749D01*
X82725402Y-71401562D01*
X82725391Y-71401565D01*
X82412867Y-71494733D01*
X82335721Y-71517731D01*
X82333060Y-71518795D01*
X82333058Y-71518796D01*
X82108927Y-71608442D01*
X81955529Y-71669797D01*
X81786469Y-71755937D01*
X81593227Y-71854399D01*
X81593222Y-71854402D01*
X81590684Y-71855695D01*
X81244189Y-72073894D01*
X80918896Y-72322599D01*
X80617483Y-72599763D01*
X80342430Y-72903104D01*
X80096002Y-73230125D01*
X79880227Y-73578135D01*
X79878947Y-73580691D01*
X79878942Y-73580700D01*
X79768378Y-73801492D01*
X79696881Y-73944269D01*
X79695840Y-73946925D01*
X79695837Y-73946932D01*
X79605561Y-74177290D01*
X79547473Y-74325513D01*
X79546681Y-74328240D01*
X79546677Y-74328251D01*
X79495495Y-74504421D01*
X79457282Y-74564257D01*
X79392786Y-74593934D01*
X79322483Y-74584031D01*
X79268695Y-74537691D01*
X79248498Y-74469268D01*
X79248498Y-69137365D01*
X79249998Y-69117980D01*
X79252308Y-69103147D01*
X79252308Y-69103143D01*
X79253689Y-69094274D01*
X79251014Y-69073815D01*
X79250070Y-69051986D01*
X79250588Y-69040134D01*
X79265654Y-68695061D01*
X79266612Y-68684112D01*
X79269823Y-68659719D01*
X79317233Y-68299609D01*
X79319141Y-68288792D01*
X79371367Y-68053217D01*
X79403077Y-67910178D01*
X79405922Y-67899561D01*
X79442869Y-67782382D01*
X79522541Y-67529697D01*
X79526297Y-67519375D01*
X79532165Y-67505209D01*
X79674713Y-67161066D01*
X79679355Y-67151113D01*
X79690633Y-67129450D01*
X79858422Y-66807130D01*
X79863917Y-66797611D01*
X80072286Y-66470539D01*
X80078590Y-66461535D01*
X80314681Y-66153854D01*
X80321747Y-66145434D01*
X80401148Y-66058783D01*
X80583747Y-65859512D01*
X80591516Y-65851743D01*
X80647301Y-65800626D01*
X80877437Y-65589745D01*
X80885854Y-65582681D01*
X81193535Y-65346590D01*
X81202539Y-65340286D01*
X81529611Y-65131917D01*
X81539131Y-65126421D01*
X81883122Y-64947351D01*
X81893066Y-64942713D01*
X82251382Y-64794294D01*
X82261697Y-64790541D01*
X82631562Y-64673922D01*
X82642179Y-64671077D01*
X83020800Y-64587140D01*
X83031609Y-64585233D01*
X83416113Y-64534612D01*
X83427061Y-64533654D01*
X83776552Y-64518395D01*
X83801427Y-64519775D01*
X83813722Y-64521689D01*
X83822624Y-64520525D01*
X83822626Y-64520525D01*
X83838912Y-64518395D01*
X83845284Y-64517562D01*
X83861619Y-64516498D01*
X85775872Y-64516498D01*
X115190000Y-64516499D01*
G37*
%TD.AperFunction*%
%TD*%
M02*
