%TF.GenerationSoftware,KiCad,Pcbnew,6.0.8-f2edbf62ab~116~ubuntu22.04.1*%
%TF.CreationDate,2022-10-30T22:41:39-04:00*%
%TF.ProjectId,discharger,64697363-6861-4726-9765-722e6b696361,rev?*%
%TF.SameCoordinates,Original*%
%TF.FileFunction,Soldermask,Top*%
%TF.FilePolarity,Negative*%
%FSLAX46Y46*%
G04 Gerber Fmt 4.6, Leading zero omitted, Abs format (unit mm)*
G04 Created by KiCad (PCBNEW 6.0.8-f2edbf62ab~116~ubuntu22.04.1) date 2022-10-30 22:41:39*
%MOMM*%
%LPD*%
G01*
G04 APERTURE LIST*
G04 Aperture macros list*
%AMRoundRect*
0 Rectangle with rounded corners*
0 $1 Rounding radius*
0 $2 $3 $4 $5 $6 $7 $8 $9 X,Y pos of 4 corners*
0 Add a 4 corners polygon primitive as box body*
4,1,4,$2,$3,$4,$5,$6,$7,$8,$9,$2,$3,0*
0 Add four circle primitives for the rounded corners*
1,1,$1+$1,$2,$3*
1,1,$1+$1,$4,$5*
1,1,$1+$1,$6,$7*
1,1,$1+$1,$8,$9*
0 Add four rect primitives between the rounded corners*
20,1,$1+$1,$2,$3,$4,$5,0*
20,1,$1+$1,$4,$5,$6,$7,0*
20,1,$1+$1,$6,$7,$8,$9,0*
20,1,$1+$1,$8,$9,$2,$3,0*%
G04 Aperture macros list end*
%ADD10RoundRect,0.250000X0.312500X0.625000X-0.312500X0.625000X-0.312500X-0.625000X0.312500X-0.625000X0*%
%ADD11C,2.000000*%
%ADD12R,1.700000X1.700000*%
%ADD13O,1.700000X1.700000*%
%ADD14C,2.200000*%
%ADD15C,1.700000*%
%ADD16RoundRect,0.250000X-0.625000X0.312500X-0.625000X-0.312500X0.625000X-0.312500X0.625000X0.312500X0*%
%ADD17RoundRect,0.250000X-0.312500X-0.625000X0.312500X-0.625000X0.312500X0.625000X-0.312500X0.625000X0*%
%ADD18O,3.500000X3.500000*%
%ADD19R,2.000000X1.905000*%
%ADD20O,2.000000X1.905000*%
%ADD21RoundRect,2.250000X2.250000X-2.250000X2.250000X2.250000X-2.250000X2.250000X-2.250000X-2.250000X0*%
%ADD22C,9.000000*%
%ADD23O,2.200000X3.500000*%
%ADD24R,1.500000X2.500000*%
%ADD25O,1.500000X2.500000*%
%ADD26RoundRect,0.150000X-0.587500X-0.150000X0.587500X-0.150000X0.587500X0.150000X-0.587500X0.150000X0*%
%ADD27RoundRect,0.250000X0.250000X0.475000X-0.250000X0.475000X-0.250000X-0.475000X0.250000X-0.475000X0*%
%ADD28RoundRect,0.150000X0.150000X-0.825000X0.150000X0.825000X-0.150000X0.825000X-0.150000X-0.825000X0*%
%ADD29RoundRect,0.250000X-0.475000X0.250000X-0.475000X-0.250000X0.475000X-0.250000X0.475000X0.250000X0*%
%ADD30RoundRect,0.250000X0.475000X-0.250000X0.475000X0.250000X-0.475000X0.250000X-0.475000X-0.250000X0*%
%ADD31C,5.600000*%
%ADD32R,1.500000X2.000000*%
%ADD33R,3.800000X2.000000*%
%ADD34R,0.900000X1.200000*%
%ADD35R,1.800000X1.800000*%
%ADD36C,1.800000*%
G04 APERTURE END LIST*
D10*
%TO.C,R10*%
X146553000Y-83820000D03*
X143628000Y-83820000D03*
%TD*%
%TO.C,R8*%
X103001000Y-66548000D03*
X100076000Y-66548000D03*
%TD*%
D11*
%TO.C,START/STOP*%
X116622000Y-104446000D03*
X116622000Y-110946000D03*
X121122000Y-104446000D03*
X121122000Y-110946000D03*
%TD*%
D12*
%TO.C,J5*%
X153924000Y-79771000D03*
D13*
X153924000Y-82311000D03*
X153924000Y-84851000D03*
%TD*%
D14*
%TO.C,J3*%
X121794000Y-94811000D03*
X150494000Y-94811000D03*
D15*
X133604000Y-104971000D03*
X136144000Y-104971000D03*
X138684000Y-104971000D03*
%TD*%
D16*
%TO.C,R9*%
X102554500Y-79309500D03*
X102554500Y-82234500D03*
%TD*%
D17*
%TO.C,R4*%
X92964000Y-69596000D03*
X95889000Y-69596000D03*
%TD*%
D18*
%TO.C,Q2*%
X122176500Y-69596000D03*
D19*
X105516500Y-67056000D03*
D20*
X105516500Y-69596000D03*
X105516500Y-72136000D03*
%TD*%
D21*
%TO.C,J1*%
X83820000Y-86780000D03*
D22*
X83820000Y-75780000D03*
%TD*%
D12*
%TO.C,J4*%
X98552000Y-111760000D03*
D13*
X96012000Y-111760000D03*
X93472000Y-111760000D03*
%TD*%
D23*
%TO.C,SW1*%
X103596000Y-110025500D03*
X111796000Y-110025500D03*
D24*
X105696000Y-110025500D03*
D25*
X107696000Y-110025500D03*
X109696000Y-110025500D03*
%TD*%
D16*
%TO.C,R5*%
X97982500Y-69657500D03*
X97982500Y-72582500D03*
%TD*%
D26*
%TO.C,Q1*%
X100522500Y-70236000D03*
X100522500Y-72136000D03*
X102397500Y-71186000D03*
%TD*%
D10*
%TO.C,R3*%
X106110500Y-96012000D03*
X103185500Y-96012000D03*
%TD*%
D27*
%TO.C,C3*%
X105598000Y-93472000D03*
X103698000Y-93472000D03*
%TD*%
D28*
%TO.C,U2*%
X102870000Y-105091000D03*
X104140000Y-105091000D03*
X105410000Y-105091000D03*
X106680000Y-105091000D03*
X107950000Y-105091000D03*
X109220000Y-105091000D03*
X110490000Y-105091000D03*
X110490000Y-100141000D03*
X109220000Y-100141000D03*
X107950000Y-100141000D03*
X106680000Y-100141000D03*
X105410000Y-100141000D03*
X104140000Y-100141000D03*
X102870000Y-100141000D03*
%TD*%
D29*
%TO.C,C1*%
X87884000Y-100142000D03*
X87884000Y-102042000D03*
%TD*%
D30*
%TO.C,C2*%
X98044000Y-106614000D03*
X98044000Y-104714000D03*
%TD*%
D31*
%TO.C,TP1*%
X130048000Y-70104000D03*
%TD*%
D10*
%TO.C,R2*%
X110682500Y-96012000D03*
X107757500Y-96012000D03*
%TD*%
D18*
%TO.C,Q3*%
X122176500Y-80772000D03*
D19*
X105516500Y-78232000D03*
D20*
X105516500Y-80772000D03*
X105516500Y-83312000D03*
%TD*%
D32*
%TO.C,U1*%
X95264000Y-99466000D03*
D33*
X92964000Y-105766000D03*
D32*
X92964000Y-99466000D03*
X90664000Y-99466000D03*
%TD*%
D12*
%TO.C,J2*%
X80772000Y-101092000D03*
D13*
X80772000Y-103632000D03*
X80772000Y-106172000D03*
%TD*%
D17*
%TO.C,R6*%
X96581500Y-78740000D03*
X99506500Y-78740000D03*
%TD*%
D18*
%TO.C,U3*%
X152210000Y-72136000D03*
D19*
X135550000Y-69596000D03*
D20*
X135550000Y-72136000D03*
X135550000Y-74676000D03*
%TD*%
D34*
%TO.C,D1*%
X90298000Y-96520000D03*
X93598000Y-96520000D03*
%TD*%
D35*
%TO.C,D2*%
X137917000Y-83820000D03*
D36*
X140457000Y-83820000D03*
%TD*%
D31*
%TO.C,TP2*%
X130048000Y-80772000D03*
%TD*%
M02*
