%TF.GenerationSoftware,KiCad,Pcbnew,6.0.8-f2edbf62ab~116~ubuntu22.04.1*%
%TF.CreationDate,2022-10-30T22:41:39-04:00*%
%TF.ProjectId,discharger,64697363-6861-4726-9765-722e6b696361,rev?*%
%TF.SameCoordinates,Original*%
%TF.FileFunction,Copper,L1,Top*%
%TF.FilePolarity,Positive*%
%FSLAX46Y46*%
G04 Gerber Fmt 4.6, Leading zero omitted, Abs format (unit mm)*
G04 Created by KiCad (PCBNEW 6.0.8-f2edbf62ab~116~ubuntu22.04.1) date 2022-10-30 22:41:39*
%MOMM*%
%LPD*%
G01*
G04 APERTURE LIST*
G04 Aperture macros list*
%AMRoundRect*
0 Rectangle with rounded corners*
0 $1 Rounding radius*
0 $2 $3 $4 $5 $6 $7 $8 $9 X,Y pos of 4 corners*
0 Add a 4 corners polygon primitive as box body*
4,1,4,$2,$3,$4,$5,$6,$7,$8,$9,$2,$3,0*
0 Add four circle primitives for the rounded corners*
1,1,$1+$1,$2,$3*
1,1,$1+$1,$4,$5*
1,1,$1+$1,$6,$7*
1,1,$1+$1,$8,$9*
0 Add four rect primitives between the rounded corners*
20,1,$1+$1,$2,$3,$4,$5,0*
20,1,$1+$1,$4,$5,$6,$7,0*
20,1,$1+$1,$6,$7,$8,$9,0*
20,1,$1+$1,$8,$9,$2,$3,0*%
G04 Aperture macros list end*
%TA.AperFunction,SMDPad,CuDef*%
%ADD10RoundRect,0.250000X0.312500X0.625000X-0.312500X0.625000X-0.312500X-0.625000X0.312500X-0.625000X0*%
%TD*%
%TA.AperFunction,ComponentPad*%
%ADD11C,2.000000*%
%TD*%
%TA.AperFunction,ComponentPad*%
%ADD12R,1.700000X1.700000*%
%TD*%
%TA.AperFunction,ComponentPad*%
%ADD13O,1.700000X1.700000*%
%TD*%
%TA.AperFunction,ComponentPad*%
%ADD14C,1.700000*%
%TD*%
%TA.AperFunction,SMDPad,CuDef*%
%ADD15RoundRect,0.250000X-0.625000X0.312500X-0.625000X-0.312500X0.625000X-0.312500X0.625000X0.312500X0*%
%TD*%
%TA.AperFunction,SMDPad,CuDef*%
%ADD16RoundRect,0.250000X-0.312500X-0.625000X0.312500X-0.625000X0.312500X0.625000X-0.312500X0.625000X0*%
%TD*%
%TA.AperFunction,ComponentPad*%
%ADD17R,2.000000X1.905000*%
%TD*%
%TA.AperFunction,ComponentPad*%
%ADD18O,2.000000X1.905000*%
%TD*%
%TA.AperFunction,ComponentPad*%
%ADD19RoundRect,2.250000X2.250000X-2.250000X2.250000X2.250000X-2.250000X2.250000X-2.250000X-2.250000X0*%
%TD*%
%TA.AperFunction,ComponentPad*%
%ADD20C,9.000000*%
%TD*%
%TA.AperFunction,ComponentPad*%
%ADD21O,2.200000X3.500000*%
%TD*%
%TA.AperFunction,ComponentPad*%
%ADD22R,1.500000X2.500000*%
%TD*%
%TA.AperFunction,ComponentPad*%
%ADD23O,1.500000X2.500000*%
%TD*%
%TA.AperFunction,SMDPad,CuDef*%
%ADD24RoundRect,0.150000X-0.587500X-0.150000X0.587500X-0.150000X0.587500X0.150000X-0.587500X0.150000X0*%
%TD*%
%TA.AperFunction,SMDPad,CuDef*%
%ADD25RoundRect,0.250000X0.250000X0.475000X-0.250000X0.475000X-0.250000X-0.475000X0.250000X-0.475000X0*%
%TD*%
%TA.AperFunction,SMDPad,CuDef*%
%ADD26RoundRect,0.150000X0.150000X-0.825000X0.150000X0.825000X-0.150000X0.825000X-0.150000X-0.825000X0*%
%TD*%
%TA.AperFunction,SMDPad,CuDef*%
%ADD27RoundRect,0.250000X-0.475000X0.250000X-0.475000X-0.250000X0.475000X-0.250000X0.475000X0.250000X0*%
%TD*%
%TA.AperFunction,SMDPad,CuDef*%
%ADD28RoundRect,0.250000X0.475000X-0.250000X0.475000X0.250000X-0.475000X0.250000X-0.475000X-0.250000X0*%
%TD*%
%TA.AperFunction,ComponentPad*%
%ADD29C,5.600000*%
%TD*%
%TA.AperFunction,SMDPad,CuDef*%
%ADD30R,1.500000X2.000000*%
%TD*%
%TA.AperFunction,SMDPad,CuDef*%
%ADD31R,3.800000X2.000000*%
%TD*%
%TA.AperFunction,SMDPad,CuDef*%
%ADD32R,0.900000X1.200000*%
%TD*%
%TA.AperFunction,ComponentPad*%
%ADD33R,1.800000X1.800000*%
%TD*%
%TA.AperFunction,ComponentPad*%
%ADD34C,1.800000*%
%TD*%
%TA.AperFunction,ViaPad*%
%ADD35C,0.800000*%
%TD*%
%TA.AperFunction,ViaPad*%
%ADD36C,0.600000*%
%TD*%
%TA.AperFunction,Conductor*%
%ADD37C,0.381000*%
%TD*%
%TA.AperFunction,Conductor*%
%ADD38C,2.032000*%
%TD*%
%TA.AperFunction,Conductor*%
%ADD39C,0.508000*%
%TD*%
G04 APERTURE END LIST*
D10*
%TO.P,R10,1*%
%TO.N,Net-(Q2-Pad2)*%
X146553000Y-83820000D03*
%TO.P,R10,2*%
%TO.N,Net-(D2-Pad2)*%
X143628000Y-83820000D03*
%TD*%
%TO.P,R8,1*%
%TO.N,Net-(Q2-Pad1)*%
X103001000Y-66548000D03*
%TO.P,R8,2*%
%TO.N,Net-(Q1-Pad3)*%
X100076000Y-66548000D03*
%TD*%
D11*
%TO.P,START/STOP,1,1*%
%TO.N,Net-(SW2-Pad1)*%
X116622000Y-104446000D03*
X116622000Y-110946000D03*
%TO.P,START/STOP,2,2*%
%TO.N,GND*%
X121122000Y-104446000D03*
X121122000Y-110946000D03*
%TD*%
D12*
%TO.P,J5,1,Pin_1*%
%TO.N,unconnected-(J5-Pad1)*%
X153924000Y-79771000D03*
D13*
%TO.P,J5,2,Pin_2*%
%TO.N,+12V*%
X153924000Y-82311000D03*
%TO.P,J5,3,Pin_3*%
%TO.N,Net-(D2-Pad1)*%
X153924000Y-84851000D03*
%TD*%
D14*
%TO.P,J3,1,Pin_1*%
%TO.N,GND*%
X133604000Y-104971000D03*
%TO.P,J3,2,Pin_2*%
%TO.N,+3V3*%
X136144000Y-104971000D03*
%TO.P,J3,3,Pin_3*%
%TO.N,+BATT*%
X138684000Y-104971000D03*
%TD*%
D15*
%TO.P,R9,1*%
%TO.N,Net-(Q3-Pad1)*%
X102554500Y-79309500D03*
%TO.P,R9,2*%
%TO.N,GND*%
X102554500Y-82234500D03*
%TD*%
D16*
%TO.P,R4,1*%
%TO.N,/HS*%
X92964000Y-69596000D03*
%TO.P,R4,2*%
%TO.N,Net-(Q1-Pad1)*%
X95889000Y-69596000D03*
%TD*%
D17*
%TO.P,Q2,1,G*%
%TO.N,Net-(Q2-Pad1)*%
X105516500Y-67056000D03*
D18*
%TO.P,Q2,2,D*%
%TO.N,Net-(Q2-Pad2)*%
X105516500Y-69596000D03*
%TO.P,Q2,3,S*%
%TO.N,+BATT*%
X105516500Y-72136000D03*
%TD*%
D19*
%TO.P,J1,1,Pin_1*%
%TO.N,GND*%
X83820000Y-86780000D03*
D20*
%TO.P,J1,2,Pin_2*%
%TO.N,+BATT*%
X83820000Y-75780000D03*
%TD*%
D12*
%TO.P,J4,1,Pin_1*%
%TO.N,Net-(J4-Pad1)*%
X98552000Y-111760000D03*
D13*
%TO.P,J4,2,Pin_2*%
%TO.N,+3V3*%
X96012000Y-111760000D03*
%TO.P,J4,3,Pin_3*%
%TO.N,GND*%
X93472000Y-111760000D03*
%TD*%
D21*
%TO.P,SW1,*%
%TO.N,*%
X103596000Y-110025500D03*
X111796000Y-110025500D03*
D22*
%TO.P,SW1,1,A*%
%TO.N,/UPDI*%
X105696000Y-110025500D03*
D23*
%TO.P,SW1,2,B*%
%TO.N,Net-(J4-Pad1)*%
X107696000Y-110025500D03*
%TO.P,SW1,3,C*%
%TO.N,/TX*%
X109696000Y-110025500D03*
%TD*%
D15*
%TO.P,R5,1*%
%TO.N,Net-(Q1-Pad1)*%
X97982500Y-69657500D03*
%TO.P,R5,2*%
%TO.N,GND*%
X97982500Y-72582500D03*
%TD*%
D24*
%TO.P,Q1,1,G*%
%TO.N,Net-(Q1-Pad1)*%
X100522500Y-70236000D03*
%TO.P,Q1,2,S*%
%TO.N,GND*%
X100522500Y-72136000D03*
%TO.P,Q1,3,D*%
%TO.N,Net-(Q1-Pad3)*%
X102397500Y-71186000D03*
%TD*%
D10*
%TO.P,R3,1*%
%TO.N,Net-(C3-Pad1)*%
X106110500Y-96012000D03*
%TO.P,R3,2*%
%TO.N,GND*%
X103185500Y-96012000D03*
%TD*%
D25*
%TO.P,C3,1*%
%TO.N,Net-(C3-Pad1)*%
X105598000Y-93472000D03*
%TO.P,C3,2*%
%TO.N,GND*%
X103698000Y-93472000D03*
%TD*%
D26*
%TO.P,U2,1,VCC*%
%TO.N,+3V3*%
X102870000Y-105091000D03*
%TO.P,U2,2,PA4*%
%TO.N,unconnected-(U2-Pad2)*%
X104140000Y-105091000D03*
%TO.P,U2,3,PA5*%
%TO.N,unconnected-(U2-Pad3)*%
X105410000Y-105091000D03*
%TO.P,U2,4,PA6*%
%TO.N,unconnected-(U2-Pad4)*%
X106680000Y-105091000D03*
%TO.P,U2,5,PA7*%
%TO.N,Net-(SW2-Pad1)*%
X107950000Y-105091000D03*
%TO.P,U2,6,PB3*%
%TO.N,unconnected-(U2-Pad6)*%
X109220000Y-105091000D03*
%TO.P,U2,7,PB2*%
%TO.N,/TX*%
X110490000Y-105091000D03*
%TO.P,U2,8,PB1*%
%TO.N,unconnected-(U2-Pad8)*%
X110490000Y-100141000D03*
%TO.P,U2,9,PB0*%
%TO.N,unconnected-(U2-Pad9)*%
X109220000Y-100141000D03*
%TO.P,U2,10,~{RESET}/PA0*%
%TO.N,Net-(R1-Pad1)*%
X107950000Y-100141000D03*
%TO.P,U2,11,PA1*%
%TO.N,Net-(C3-Pad1)*%
X106680000Y-100141000D03*
%TO.P,U2,12,PA2*%
%TO.N,/HS*%
X105410000Y-100141000D03*
%TO.P,U2,13,PA3*%
%TO.N,/LS*%
X104140000Y-100141000D03*
%TO.P,U2,14,GND*%
%TO.N,GND*%
X102870000Y-100141000D03*
%TD*%
D27*
%TO.P,C1,1*%
%TO.N,Net-(C1-Pad1)*%
X87884000Y-100142000D03*
%TO.P,C1,2*%
%TO.N,GND*%
X87884000Y-102042000D03*
%TD*%
D28*
%TO.P,C2,1*%
%TO.N,+3V3*%
X98044000Y-106614000D03*
%TO.P,C2,2*%
%TO.N,GND*%
X98044000Y-104714000D03*
%TD*%
D29*
%TO.P,TP1,1,1*%
%TO.N,Net-(Q2-Pad2)*%
X130048000Y-70104000D03*
%TD*%
D10*
%TO.P,R2,1*%
%TO.N,+BATT*%
X110682500Y-96012000D03*
%TO.P,R2,2*%
%TO.N,Net-(C3-Pad1)*%
X107757500Y-96012000D03*
%TD*%
D17*
%TO.P,Q3,1,G*%
%TO.N,Net-(Q3-Pad1)*%
X105516500Y-78232000D03*
D18*
%TO.P,Q3,2,D*%
%TO.N,Net-(D2-Pad1)*%
X105516500Y-80772000D03*
%TO.P,Q3,3,S*%
%TO.N,GND*%
X105516500Y-83312000D03*
%TD*%
D30*
%TO.P,U1,1,GND*%
%TO.N,GND*%
X95264000Y-99466000D03*
D31*
%TO.P,U1,2,VO*%
%TO.N,+3V3*%
X92964000Y-105766000D03*
D30*
X92964000Y-99466000D03*
%TO.P,U1,3,VI*%
%TO.N,Net-(C1-Pad1)*%
X90664000Y-99466000D03*
%TD*%
D12*
%TO.P,J2,1,Pin_1*%
%TO.N,unconnected-(J2-Pad1)*%
X80772000Y-101092000D03*
D13*
%TO.P,J2,2,Pin_2*%
%TO.N,Net-(C1-Pad1)*%
X80772000Y-103632000D03*
%TO.P,J2,3,Pin_3*%
%TO.N,GND*%
X80772000Y-106172000D03*
%TD*%
D16*
%TO.P,R6,1*%
%TO.N,/LS*%
X96581500Y-78740000D03*
%TO.P,R6,2*%
%TO.N,Net-(Q3-Pad1)*%
X99506500Y-78740000D03*
%TD*%
D17*
%TO.P,U3,1,IN*%
%TO.N,Net-(Q2-Pad2)*%
X135550000Y-69596000D03*
D18*
%TO.P,U3,2,GND*%
%TO.N,Net-(D2-Pad1)*%
X135550000Y-72136000D03*
%TO.P,U3,3,OUT*%
%TO.N,+12V*%
X135550000Y-74676000D03*
%TD*%
D32*
%TO.P,D1,1,K*%
%TO.N,Net-(C1-Pad1)*%
X90298000Y-96520000D03*
%TO.P,D1,2,A*%
%TO.N,+3V3*%
X93598000Y-96520000D03*
%TD*%
D33*
%TO.P,D2,1,K*%
%TO.N,Net-(D2-Pad1)*%
X137917000Y-83820000D03*
D34*
%TO.P,D2,2,A*%
%TO.N,Net-(D2-Pad2)*%
X140457000Y-83820000D03*
%TD*%
D29*
%TO.P,TP2,1,1*%
%TO.N,Net-(D2-Pad1)*%
X130048000Y-80772000D03*
%TD*%
D35*
%TO.N,GND*%
X94996000Y-101600000D03*
X103124000Y-102616000D03*
X102108000Y-93980000D03*
X100076000Y-73660000D03*
X87884000Y-103632000D03*
X98552000Y-103124000D03*
%TO.N,+BATT*%
X109728000Y-82804000D03*
D36*
%TO.N,Net-(R1-Pad1)*%
X107188000Y-102108000D03*
D35*
%TO.N,/HS*%
X98044000Y-88900000D03*
X96012000Y-74164500D03*
%TO.N,/LS*%
X96581500Y-84774500D03*
X96520000Y-88900000D03*
%TD*%
D37*
%TO.N,GND*%
X102554500Y-82234500D02*
X102554500Y-82296000D01*
X102554500Y-82296000D02*
X103570500Y-83312000D01*
X97982500Y-72582500D02*
X100076000Y-72582500D01*
D38*
X83820000Y-86780000D02*
X102048500Y-86780000D01*
D39*
X103698000Y-93472000D02*
X103698000Y-95499500D01*
D37*
X100076000Y-72582500D02*
X100522500Y-72136000D01*
D39*
X103698000Y-95499500D02*
X103185500Y-96012000D01*
D37*
X103570500Y-83312000D02*
X105516500Y-83312000D01*
D38*
X102048500Y-86780000D02*
X105516500Y-83312000D01*
D39*
%TO.N,+3V3*%
X92964000Y-99466000D02*
X92964000Y-105766000D01*
X92964000Y-99466000D02*
X92964000Y-97154000D01*
X98044000Y-106614000D02*
X101347000Y-106614000D01*
X127831000Y-113284000D02*
X136144000Y-104971000D01*
X92964000Y-97154000D02*
X93598000Y-96520000D01*
X96012000Y-108646000D02*
X98044000Y-106614000D01*
X92964000Y-105766000D02*
X97196000Y-105766000D01*
X97196000Y-105766000D02*
X98044000Y-106614000D01*
X101347000Y-106614000D02*
X102870000Y-105091000D01*
X96012000Y-111760000D02*
X97536000Y-113284000D01*
X97536000Y-113284000D02*
X127831000Y-113284000D01*
X96012000Y-111760000D02*
X96012000Y-108646000D01*
%TO.N,Net-(C3-Pad1)*%
X107757500Y-96012000D02*
X106680000Y-96012000D01*
X105598000Y-93472000D02*
X105598000Y-95499500D01*
X105598000Y-95499500D02*
X106110500Y-96012000D01*
X106680000Y-96012000D02*
X106110500Y-96012000D01*
X106680000Y-100141000D02*
X106680000Y-96012000D01*
%TO.N,Net-(D2-Pad1)*%
X134869000Y-80772000D02*
X137917000Y-83820000D01*
D38*
X105516500Y-80772000D02*
X115316000Y-80772000D01*
X115316000Y-80772000D02*
X118364000Y-83820000D01*
D39*
X130048000Y-80772000D02*
X130048000Y-77638000D01*
D38*
X118364000Y-83820000D02*
X127000000Y-83820000D01*
D39*
X130048000Y-80772000D02*
X134869000Y-80772000D01*
D38*
X127000000Y-83820000D02*
X130048000Y-80772000D01*
D39*
X152923000Y-85852000D02*
X153924000Y-84851000D01*
X139949000Y-85852000D02*
X152923000Y-85852000D01*
X130048000Y-77638000D02*
X135550000Y-72136000D01*
X137917000Y-83820000D02*
X139949000Y-85852000D01*
%TO.N,Net-(D2-Pad2)*%
X140457000Y-83820000D02*
X143628000Y-83820000D01*
%TO.N,+BATT*%
X138684000Y-104971000D02*
X135821000Y-102108000D01*
X135821000Y-102108000D02*
X116778500Y-102108000D01*
D38*
X83820000Y-75780000D02*
X101872500Y-75780000D01*
D39*
X116778500Y-102108000D02*
X110682500Y-96012000D01*
X109728000Y-95057500D02*
X110682500Y-96012000D01*
X109728000Y-82804000D02*
X109728000Y-95057500D01*
D38*
X101872500Y-75780000D02*
X105516500Y-72136000D01*
D39*
%TO.N,Net-(C1-Pad1)*%
X80772000Y-103632000D02*
X84262000Y-100142000D01*
X88560000Y-99466000D02*
X87884000Y-100142000D01*
X90298000Y-96520000D02*
X90298000Y-99100000D01*
X84262000Y-100142000D02*
X87884000Y-100142000D01*
X90664000Y-99466000D02*
X88560000Y-99466000D01*
X90298000Y-99100000D02*
X90664000Y-99466000D01*
D37*
%TO.N,/TX*%
X109696000Y-108394500D02*
X109696000Y-110025500D01*
X110490000Y-105091000D02*
X110490000Y-107600500D01*
X110490000Y-107600500D02*
X109696000Y-108394500D01*
%TO.N,Net-(J4-Pad1)*%
X107186500Y-107885000D02*
X100903000Y-107885000D01*
X98552000Y-110236000D02*
X98552000Y-111760000D01*
X100903000Y-107885000D02*
X98552000Y-110236000D01*
X107696000Y-110025500D02*
X107696000Y-108394500D01*
X107696000Y-108394500D02*
X107186500Y-107885000D01*
%TO.N,Net-(Q2-Pad1)*%
X105008500Y-66548000D02*
X105516500Y-67056000D01*
X103001000Y-66548000D02*
X105008500Y-66548000D01*
D38*
%TO.N,Net-(Q2-Pad2)*%
X118332001Y-72612001D02*
X127539999Y-72612001D01*
D39*
X130048000Y-70104000D02*
X135042000Y-70104000D01*
X146553000Y-80599000D02*
X135550000Y-69596000D01*
D38*
X127539999Y-72612001D02*
X130048000Y-70104000D01*
D39*
X135042000Y-70104000D02*
X135550000Y-69596000D01*
X146553000Y-83820000D02*
X146553000Y-80599000D01*
D38*
X105516500Y-69596000D02*
X115316000Y-69596000D01*
X115316000Y-69596000D02*
X118332001Y-72612001D01*
D37*
%TO.N,Net-(Q3-Pad1)*%
X103570500Y-78232000D02*
X105516500Y-78232000D01*
X101985000Y-78740000D02*
X99506500Y-78740000D01*
X102554500Y-79309500D02*
X102554500Y-79248000D01*
X102554500Y-79248000D02*
X103570500Y-78232000D01*
X102554500Y-79309500D02*
X101985000Y-78740000D01*
%TO.N,Net-(R1-Pad1)*%
X107950000Y-101346000D02*
X107188000Y-102108000D01*
X107950000Y-100141000D02*
X107950000Y-101346000D01*
%TO.N,/HS*%
X105410000Y-100141000D02*
X105410000Y-98298000D01*
X92964000Y-69596000D02*
X92964000Y-71116500D01*
X102616000Y-90424000D02*
X99568000Y-90424000D01*
X92964000Y-71116500D02*
X96012000Y-74164500D01*
X99568000Y-90424000D02*
X98044000Y-88900000D01*
X104663882Y-97551882D02*
X104663882Y-92471882D01*
X104663882Y-92471882D02*
X102616000Y-90424000D01*
X105410000Y-98298000D02*
X104663882Y-97551882D01*
%TO.N,/LS*%
X96520000Y-92051618D02*
X104140000Y-99671618D01*
X96520000Y-88900000D02*
X96520000Y-92051618D01*
X96581500Y-78740000D02*
X96581500Y-84774500D01*
X104140000Y-99671618D02*
X104140000Y-100141000D01*
%TO.N,Net-(Q1-Pad1)*%
X97921000Y-69596000D02*
X97982500Y-69657500D01*
X97982500Y-69657500D02*
X99944000Y-69657500D01*
X99944000Y-69657500D02*
X100522500Y-70236000D01*
X95889000Y-69596000D02*
X97921000Y-69596000D01*
%TO.N,Net-(SW2-Pad1)*%
X108939618Y-103632000D02*
X115808000Y-103632000D01*
X107950000Y-105091000D02*
X107950000Y-104621618D01*
X116622000Y-104446000D02*
X116622000Y-110946000D01*
X107950000Y-104621618D02*
X108939618Y-103632000D01*
X115808000Y-103632000D02*
X116622000Y-104446000D01*
%TO.N,Net-(Q1-Pad3)*%
X100076000Y-66548000D02*
X102397500Y-68869500D01*
X102397500Y-68869500D02*
X102397500Y-71186000D01*
%TD*%
%TA.AperFunction,Conductor*%
%TO.N,GND*%
G36*
X89347621Y-100248502D02*
G01*
X89394114Y-100302158D01*
X89405500Y-100354500D01*
X89405500Y-100514134D01*
X89412255Y-100576316D01*
X89463385Y-100712705D01*
X89550739Y-100829261D01*
X89667295Y-100916615D01*
X89803684Y-100967745D01*
X89865866Y-100974500D01*
X91462134Y-100974500D01*
X91524316Y-100967745D01*
X91660705Y-100916615D01*
X91676870Y-100904500D01*
X91738435Y-100858360D01*
X91804942Y-100833512D01*
X91874324Y-100848565D01*
X91889565Y-100858360D01*
X91951130Y-100904500D01*
X91967295Y-100916615D01*
X91975703Y-100919767D01*
X92096286Y-100964972D01*
X92096289Y-100964973D01*
X92103684Y-100967745D01*
X92106570Y-100968058D01*
X92166291Y-101002175D01*
X92199113Y-101065130D01*
X92201500Y-101089542D01*
X92201500Y-104131500D01*
X92181498Y-104199621D01*
X92127842Y-104246114D01*
X92075500Y-104257500D01*
X91015866Y-104257500D01*
X90953684Y-104264255D01*
X90817295Y-104315385D01*
X90700739Y-104402739D01*
X90613385Y-104519295D01*
X90562255Y-104655684D01*
X90555500Y-104717866D01*
X90555500Y-106814134D01*
X90562255Y-106876316D01*
X90613385Y-107012705D01*
X90700739Y-107129261D01*
X90817295Y-107216615D01*
X90953684Y-107267745D01*
X91015866Y-107274500D01*
X94912134Y-107274500D01*
X94974316Y-107267745D01*
X95110705Y-107216615D01*
X95227261Y-107129261D01*
X95314615Y-107012705D01*
X95365745Y-106876316D01*
X95372500Y-106814134D01*
X95372500Y-106654500D01*
X95392502Y-106586379D01*
X95446158Y-106539886D01*
X95498500Y-106528500D01*
X96684500Y-106528500D01*
X96752621Y-106548502D01*
X96799114Y-106602158D01*
X96810500Y-106654500D01*
X96810500Y-106716972D01*
X96790498Y-106785093D01*
X96773595Y-106806067D01*
X95520472Y-108059190D01*
X95506059Y-108071577D01*
X95488436Y-108084546D01*
X95483692Y-108090129D01*
X95483693Y-108090129D01*
X95454021Y-108125055D01*
X95447091Y-108132571D01*
X95441347Y-108138315D01*
X95439073Y-108141189D01*
X95439067Y-108141196D01*
X95423628Y-108160711D01*
X95420837Y-108164115D01*
X95378055Y-108214472D01*
X95378052Y-108214476D01*
X95373316Y-108220051D01*
X95369988Y-108226568D01*
X95366611Y-108231632D01*
X95363384Y-108236856D01*
X95358840Y-108242600D01*
X95355741Y-108249231D01*
X95327768Y-108309082D01*
X95325837Y-108313033D01*
X95292457Y-108378404D01*
X95290716Y-108385519D01*
X95288579Y-108391265D01*
X95286655Y-108397048D01*
X95283556Y-108403679D01*
X95271382Y-108462212D01*
X95268608Y-108475547D01*
X95267639Y-108479829D01*
X95250196Y-108551112D01*
X95249500Y-108562330D01*
X95249461Y-108562328D01*
X95249228Y-108566229D01*
X95248839Y-108570588D01*
X95247348Y-108577756D01*
X95247546Y-108585073D01*
X95249454Y-108655577D01*
X95249500Y-108658986D01*
X95249500Y-110570658D01*
X95229498Y-110638779D01*
X95199153Y-110671418D01*
X95111100Y-110737530D01*
X95106965Y-110740635D01*
X95103393Y-110744373D01*
X95013280Y-110838671D01*
X94952629Y-110902138D01*
X94949715Y-110906410D01*
X94949714Y-110906411D01*
X94844898Y-111060066D01*
X94789987Y-111105069D01*
X94719462Y-111113240D01*
X94655715Y-111081986D01*
X94635018Y-111057502D01*
X94554426Y-110932926D01*
X94548136Y-110924757D01*
X94404806Y-110767240D01*
X94397273Y-110760215D01*
X94230139Y-110628222D01*
X94221552Y-110622517D01*
X94035117Y-110519599D01*
X94025705Y-110515369D01*
X93824959Y-110444280D01*
X93814988Y-110441646D01*
X93743837Y-110428972D01*
X93730540Y-110430432D01*
X93726000Y-110444989D01*
X93726000Y-113078517D01*
X93730064Y-113092359D01*
X93743478Y-113094393D01*
X93750184Y-113093534D01*
X93760262Y-113091392D01*
X93964255Y-113030191D01*
X93973842Y-113026433D01*
X94165095Y-112932739D01*
X94173945Y-112927464D01*
X94347328Y-112803792D01*
X94355200Y-112797139D01*
X94506052Y-112646812D01*
X94512730Y-112638965D01*
X94640022Y-112461819D01*
X94641279Y-112462722D01*
X94688373Y-112419362D01*
X94758311Y-112407145D01*
X94823751Y-112434678D01*
X94851579Y-112466511D01*
X94869310Y-112495445D01*
X94911987Y-112565088D01*
X95058250Y-112733938D01*
X95230126Y-112876632D01*
X95423000Y-112989338D01*
X95631692Y-113069030D01*
X95636760Y-113070061D01*
X95636763Y-113070062D01*
X95731862Y-113089410D01*
X95850597Y-113113567D01*
X95855772Y-113113757D01*
X95855774Y-113113757D01*
X96068673Y-113121564D01*
X96068677Y-113121564D01*
X96073837Y-113121753D01*
X96078957Y-113121097D01*
X96078959Y-113121097D01*
X96208893Y-113104452D01*
X96279003Y-113115637D01*
X96313998Y-113140336D01*
X96750067Y-113576405D01*
X96784093Y-113638717D01*
X96779028Y-113709532D01*
X96736481Y-113766368D01*
X96669961Y-113791179D01*
X96660972Y-113791500D01*
X83869367Y-113791500D01*
X83849982Y-113790000D01*
X83835149Y-113787690D01*
X83835145Y-113787690D01*
X83826276Y-113786309D01*
X83805817Y-113788984D01*
X83783992Y-113789928D01*
X83427063Y-113774344D01*
X83416114Y-113773386D01*
X83031621Y-113722767D01*
X83020795Y-113720858D01*
X82642178Y-113636920D01*
X82631561Y-113634075D01*
X82448654Y-113576405D01*
X82261698Y-113517458D01*
X82251385Y-113513705D01*
X81893068Y-113365285D01*
X81883124Y-113360647D01*
X81539132Y-113181576D01*
X81529613Y-113176081D01*
X81473505Y-113140336D01*
X81202532Y-112967708D01*
X81193528Y-112961403D01*
X80885862Y-112725322D01*
X80877442Y-112718257D01*
X80714545Y-112568990D01*
X80591513Y-112456252D01*
X80583744Y-112448483D01*
X80437582Y-112288974D01*
X80335994Y-112178110D01*
X80321743Y-112162558D01*
X80314678Y-112154138D01*
X80217863Y-112027966D01*
X92140257Y-112027966D01*
X92170565Y-112162446D01*
X92173645Y-112172275D01*
X92253770Y-112369603D01*
X92258413Y-112378794D01*
X92369694Y-112560388D01*
X92375777Y-112568699D01*
X92515213Y-112729667D01*
X92522580Y-112736883D01*
X92686434Y-112872916D01*
X92694881Y-112878831D01*
X92878756Y-112986279D01*
X92888042Y-112990729D01*
X93087001Y-113066703D01*
X93096899Y-113069579D01*
X93200250Y-113090606D01*
X93214299Y-113089410D01*
X93218000Y-113079065D01*
X93218000Y-112032115D01*
X93213525Y-112016876D01*
X93212135Y-112015671D01*
X93204452Y-112014000D01*
X92155225Y-112014000D01*
X92141694Y-112017973D01*
X92140257Y-112027966D01*
X80217863Y-112027966D01*
X80078597Y-111846472D01*
X80072292Y-111837468D01*
X79863919Y-111510387D01*
X79858423Y-111500867D01*
X79854944Y-111494183D01*
X92136389Y-111494183D01*
X92137912Y-111502607D01*
X92150292Y-111506000D01*
X93199885Y-111506000D01*
X93215124Y-111501525D01*
X93216329Y-111500135D01*
X93218000Y-111492452D01*
X93218000Y-110443102D01*
X93214082Y-110429758D01*
X93199806Y-110427771D01*
X93161324Y-110433660D01*
X93151288Y-110436051D01*
X92948868Y-110502212D01*
X92939359Y-110506209D01*
X92750463Y-110604542D01*
X92741738Y-110610036D01*
X92571433Y-110737905D01*
X92563726Y-110744748D01*
X92416590Y-110898717D01*
X92410104Y-110906727D01*
X92290098Y-111082649D01*
X92285000Y-111091623D01*
X92195338Y-111284783D01*
X92191775Y-111294470D01*
X92136389Y-111494183D01*
X79854944Y-111494183D01*
X79679353Y-111156876D01*
X79674711Y-111146923D01*
X79657375Y-111105069D01*
X79526295Y-110788615D01*
X79522539Y-110778294D01*
X79510830Y-110741155D01*
X79451794Y-110553919D01*
X79405925Y-110408439D01*
X79403080Y-110397822D01*
X79319142Y-110019205D01*
X79317233Y-110008379D01*
X79266614Y-109623886D01*
X79265656Y-109612936D01*
X79261130Y-109509266D01*
X79250561Y-109267206D01*
X79252188Y-109240805D01*
X79252769Y-109237352D01*
X79252770Y-109237345D01*
X79253576Y-109232552D01*
X79253729Y-109220000D01*
X79249773Y-109192376D01*
X79248500Y-109174514D01*
X79248500Y-106675019D01*
X79268502Y-106606898D01*
X79322158Y-106560405D01*
X79392432Y-106550301D01*
X79457012Y-106579795D01*
X79491243Y-106627615D01*
X79553770Y-106781603D01*
X79558413Y-106790794D01*
X79669694Y-106972388D01*
X79675777Y-106980699D01*
X79815213Y-107141667D01*
X79822580Y-107148883D01*
X79986434Y-107284916D01*
X79994881Y-107290831D01*
X80178756Y-107398279D01*
X80188042Y-107402729D01*
X80387001Y-107478703D01*
X80396899Y-107481579D01*
X80500250Y-107502606D01*
X80514299Y-107501410D01*
X80518000Y-107491065D01*
X80518000Y-107490517D01*
X81026000Y-107490517D01*
X81030064Y-107504359D01*
X81043478Y-107506393D01*
X81050184Y-107505534D01*
X81060262Y-107503392D01*
X81264255Y-107442191D01*
X81273842Y-107438433D01*
X81465095Y-107344739D01*
X81473945Y-107339464D01*
X81647328Y-107215792D01*
X81655200Y-107209139D01*
X81806052Y-107058812D01*
X81812730Y-107050965D01*
X81937003Y-106878020D01*
X81942313Y-106869183D01*
X82036670Y-106678267D01*
X82040469Y-106668672D01*
X82102377Y-106464910D01*
X82104555Y-106454837D01*
X82105986Y-106443962D01*
X82103775Y-106429778D01*
X82090617Y-106426000D01*
X81044115Y-106426000D01*
X81028876Y-106430475D01*
X81027671Y-106431865D01*
X81026000Y-106439548D01*
X81026000Y-107490517D01*
X80518000Y-107490517D01*
X80518000Y-106044000D01*
X80538002Y-105975879D01*
X80591658Y-105929386D01*
X80644000Y-105918000D01*
X82090344Y-105918000D01*
X82103875Y-105914027D01*
X82105180Y-105904947D01*
X82063214Y-105737875D01*
X82059894Y-105728124D01*
X81974972Y-105532814D01*
X81970105Y-105523739D01*
X81854426Y-105344926D01*
X81848136Y-105336757D01*
X81704806Y-105179240D01*
X81697273Y-105172215D01*
X81530139Y-105040222D01*
X81521556Y-105034520D01*
X81484602Y-105014120D01*
X81434631Y-104963687D01*
X81419859Y-104894245D01*
X81444975Y-104827839D01*
X81472327Y-104801232D01*
X81495797Y-104784491D01*
X81651860Y-104673173D01*
X81810096Y-104515489D01*
X81817296Y-104505470D01*
X81937435Y-104338277D01*
X81940453Y-104334077D01*
X81955956Y-104302710D01*
X82037136Y-104138453D01*
X82037137Y-104138451D01*
X82039430Y-104133811D01*
X82093644Y-103955373D01*
X82102865Y-103925023D01*
X82102865Y-103925021D01*
X82104370Y-103920069D01*
X82133529Y-103698590D01*
X82134652Y-103652646D01*
X82135074Y-103635365D01*
X82135074Y-103635361D01*
X82135156Y-103632000D01*
X82118300Y-103426975D01*
X82132653Y-103357446D01*
X82154781Y-103327557D01*
X83143243Y-102339095D01*
X86651001Y-102339095D01*
X86651338Y-102345614D01*
X86661257Y-102441206D01*
X86664149Y-102454600D01*
X86715588Y-102608784D01*
X86721761Y-102621962D01*
X86807063Y-102759807D01*
X86816099Y-102771208D01*
X86930829Y-102885739D01*
X86942240Y-102894751D01*
X87080243Y-102979816D01*
X87093424Y-102985963D01*
X87247710Y-103037138D01*
X87261086Y-103040005D01*
X87355438Y-103049672D01*
X87361854Y-103050000D01*
X87611885Y-103050000D01*
X87627124Y-103045525D01*
X87628329Y-103044135D01*
X87630000Y-103036452D01*
X87630000Y-103031884D01*
X88138000Y-103031884D01*
X88142475Y-103047123D01*
X88143865Y-103048328D01*
X88151548Y-103049999D01*
X88406095Y-103049999D01*
X88412614Y-103049662D01*
X88508206Y-103039743D01*
X88521600Y-103036851D01*
X88675784Y-102985412D01*
X88688962Y-102979239D01*
X88826807Y-102893937D01*
X88838208Y-102884901D01*
X88952739Y-102770171D01*
X88961751Y-102758760D01*
X89046816Y-102620757D01*
X89052963Y-102607576D01*
X89104138Y-102453290D01*
X89107005Y-102439914D01*
X89116672Y-102345562D01*
X89117000Y-102339146D01*
X89117000Y-102314115D01*
X89112525Y-102298876D01*
X89111135Y-102297671D01*
X89103452Y-102296000D01*
X88156115Y-102296000D01*
X88140876Y-102300475D01*
X88139671Y-102301865D01*
X88138000Y-102309548D01*
X88138000Y-103031884D01*
X87630000Y-103031884D01*
X87630000Y-102314115D01*
X87625525Y-102298876D01*
X87624135Y-102297671D01*
X87616452Y-102296000D01*
X86669116Y-102296000D01*
X86653877Y-102300475D01*
X86652672Y-102301865D01*
X86651001Y-102309548D01*
X86651001Y-102339095D01*
X83143243Y-102339095D01*
X84540933Y-100941405D01*
X84603245Y-100907379D01*
X84630028Y-100904500D01*
X86796614Y-100904500D01*
X86864735Y-100924502D01*
X86885632Y-100941327D01*
X86924439Y-100980067D01*
X86935697Y-100991305D01*
X86940235Y-100994102D01*
X86980824Y-101051353D01*
X86984054Y-101122276D01*
X86948428Y-101183687D01*
X86939932Y-101191062D01*
X86929793Y-101199098D01*
X86815261Y-101313829D01*
X86806249Y-101325240D01*
X86721184Y-101463243D01*
X86715037Y-101476424D01*
X86663862Y-101630710D01*
X86660995Y-101644086D01*
X86651328Y-101738438D01*
X86651000Y-101744855D01*
X86651000Y-101769885D01*
X86655475Y-101785124D01*
X86656865Y-101786329D01*
X86664548Y-101788000D01*
X89098884Y-101788000D01*
X89114123Y-101783525D01*
X89115328Y-101782135D01*
X89116999Y-101774452D01*
X89116999Y-101744905D01*
X89116662Y-101738386D01*
X89106743Y-101642794D01*
X89103851Y-101629400D01*
X89052412Y-101475216D01*
X89046239Y-101462038D01*
X88960937Y-101324193D01*
X88951901Y-101312792D01*
X88837172Y-101198262D01*
X88828238Y-101191206D01*
X88787177Y-101133288D01*
X88783947Y-101062365D01*
X88819574Y-101000954D01*
X88827407Y-100994154D01*
X88833348Y-100990478D01*
X88958305Y-100865303D01*
X88962778Y-100858047D01*
X89047275Y-100720968D01*
X89047276Y-100720966D01*
X89051115Y-100714738D01*
X89106797Y-100546861D01*
X89117500Y-100442400D01*
X89117500Y-100354500D01*
X89137502Y-100286379D01*
X89191158Y-100239886D01*
X89243500Y-100228500D01*
X89279500Y-100228500D01*
X89347621Y-100248502D01*
G37*
%TD.AperFunction*%
%TA.AperFunction,Conductor*%
G36*
X120428209Y-102890502D02*
G01*
X120474702Y-102944158D01*
X120484806Y-103014432D01*
X120455312Y-103079012D01*
X120425923Y-103103932D01*
X120263555Y-103203432D01*
X120254093Y-103213890D01*
X120257876Y-103222666D01*
X121109188Y-104073978D01*
X121123132Y-104081592D01*
X121124965Y-104081461D01*
X121131580Y-104077210D01*
X121983080Y-103225710D01*
X121989840Y-103213330D01*
X121984113Y-103205680D01*
X121818077Y-103103932D01*
X121770446Y-103051285D01*
X121758839Y-102981243D01*
X121786942Y-102916046D01*
X121845833Y-102876392D01*
X121883912Y-102870500D01*
X135452972Y-102870500D01*
X135521093Y-102890502D01*
X135542067Y-102907405D01*
X136043697Y-103409035D01*
X136077723Y-103471347D01*
X136072658Y-103542162D01*
X136030111Y-103598998D01*
X135973662Y-103622680D01*
X135828091Y-103644955D01*
X135615756Y-103714357D01*
X135417607Y-103817507D01*
X135413474Y-103820610D01*
X135413471Y-103820612D01*
X135243100Y-103948530D01*
X135238965Y-103951635D01*
X135084629Y-104113138D01*
X135081715Y-104117410D01*
X135081714Y-104117411D01*
X135055396Y-104155992D01*
X134993577Y-104246616D01*
X134976898Y-104271066D01*
X134921987Y-104316069D01*
X134851462Y-104324240D01*
X134787715Y-104292986D01*
X134767017Y-104268501D01*
X134737062Y-104222197D01*
X134726377Y-104212995D01*
X134716812Y-104217398D01*
X132850737Y-106083473D01*
X132843977Y-106095853D01*
X132849258Y-106102907D01*
X133010756Y-106197279D01*
X133020042Y-106201729D01*
X133219001Y-106277703D01*
X133228899Y-106280579D01*
X133437169Y-106322952D01*
X133499935Y-106356134D01*
X133534797Y-106417982D01*
X133530688Y-106488859D01*
X133501144Y-106535518D01*
X127552067Y-112484595D01*
X127489755Y-112518621D01*
X127462972Y-112521500D01*
X121883912Y-112521500D01*
X121815791Y-112501498D01*
X121769298Y-112447842D01*
X121759194Y-112377568D01*
X121788688Y-112312988D01*
X121818077Y-112288068D01*
X121980445Y-112188568D01*
X121989907Y-112178110D01*
X121986124Y-112169334D01*
X121134812Y-111318022D01*
X121120868Y-111310408D01*
X121119035Y-111310539D01*
X121112420Y-111314790D01*
X120260920Y-112166290D01*
X120254160Y-112178670D01*
X120259887Y-112186320D01*
X120425923Y-112288068D01*
X120473554Y-112340715D01*
X120485161Y-112410757D01*
X120457058Y-112475954D01*
X120398167Y-112515608D01*
X120360088Y-112521500D01*
X117384871Y-112521500D01*
X117316750Y-112501498D01*
X117270257Y-112447842D01*
X117260153Y-112377568D01*
X117289647Y-112312988D01*
X117319036Y-112288067D01*
X117511416Y-112170176D01*
X117667382Y-112036968D01*
X117688213Y-112019177D01*
X117691969Y-112015969D01*
X117846176Y-111835416D01*
X117848755Y-111831208D01*
X117848759Y-111831202D01*
X117967654Y-111637183D01*
X117970240Y-111632963D01*
X117972229Y-111628163D01*
X118059211Y-111418167D01*
X118059212Y-111418165D01*
X118061105Y-111413594D01*
X118089704Y-111294470D01*
X118115380Y-111187524D01*
X118115381Y-111187518D01*
X118116535Y-111182711D01*
X118134777Y-110950930D01*
X119609725Y-110950930D01*
X119627572Y-111177699D01*
X119629115Y-111187446D01*
X119682217Y-111408627D01*
X119685266Y-111418012D01*
X119772313Y-111628163D01*
X119776795Y-111636958D01*
X119879432Y-111804445D01*
X119889890Y-111813907D01*
X119898666Y-111810124D01*
X120749978Y-110958812D01*
X120756356Y-110947132D01*
X121486408Y-110947132D01*
X121486539Y-110948965D01*
X121490790Y-110955580D01*
X122342290Y-111807080D01*
X122354670Y-111813840D01*
X122362320Y-111808113D01*
X122467205Y-111636958D01*
X122471687Y-111628163D01*
X122558734Y-111418012D01*
X122561783Y-111408627D01*
X122614885Y-111187446D01*
X122616428Y-111177699D01*
X122634275Y-110950930D01*
X122634275Y-110941070D01*
X122616428Y-110714301D01*
X122614885Y-110704554D01*
X122561783Y-110483373D01*
X122558734Y-110473988D01*
X122471687Y-110263837D01*
X122467205Y-110255042D01*
X122364568Y-110087555D01*
X122354110Y-110078093D01*
X122345334Y-110081876D01*
X121494022Y-110933188D01*
X121486408Y-110947132D01*
X120756356Y-110947132D01*
X120757592Y-110944868D01*
X120757461Y-110943035D01*
X120753210Y-110936420D01*
X119901710Y-110084920D01*
X119889330Y-110078160D01*
X119881680Y-110083887D01*
X119776795Y-110255042D01*
X119772313Y-110263837D01*
X119685266Y-110473988D01*
X119682217Y-110483373D01*
X119629115Y-110704554D01*
X119627572Y-110714301D01*
X119609725Y-110941070D01*
X119609725Y-110950930D01*
X118134777Y-110950930D01*
X118135165Y-110946000D01*
X118116535Y-110709289D01*
X118107512Y-110671703D01*
X118072439Y-110525616D01*
X118061105Y-110478406D01*
X118051921Y-110456233D01*
X117972135Y-110263611D01*
X117972133Y-110263607D01*
X117970240Y-110259037D01*
X117924452Y-110184318D01*
X117848759Y-110060798D01*
X117848755Y-110060792D01*
X117846176Y-110056584D01*
X117691969Y-109876031D01*
X117686360Y-109871240D01*
X117515178Y-109725037D01*
X117511416Y-109721824D01*
X117498469Y-109713890D01*
X120254093Y-109713890D01*
X120257876Y-109722666D01*
X121109188Y-110573978D01*
X121123132Y-110581592D01*
X121124965Y-110581461D01*
X121131580Y-110577210D01*
X121983080Y-109725710D01*
X121989840Y-109713330D01*
X121984113Y-109705680D01*
X121812958Y-109600795D01*
X121804163Y-109596313D01*
X121594012Y-109509266D01*
X121584627Y-109506217D01*
X121363446Y-109453115D01*
X121353699Y-109451572D01*
X121126930Y-109433725D01*
X121117070Y-109433725D01*
X120890301Y-109451572D01*
X120880554Y-109453115D01*
X120659373Y-109506217D01*
X120649988Y-109509266D01*
X120439837Y-109596313D01*
X120431042Y-109600795D01*
X120263555Y-109703432D01*
X120254093Y-109713890D01*
X117498469Y-109713890D01*
X117460548Y-109690652D01*
X117381165Y-109642005D01*
X117333533Y-109589357D01*
X117321000Y-109534573D01*
X117321000Y-105857427D01*
X117341002Y-105789306D01*
X117381165Y-105749995D01*
X117481403Y-105688568D01*
X117497555Y-105678670D01*
X120254160Y-105678670D01*
X120259887Y-105686320D01*
X120431042Y-105791205D01*
X120439837Y-105795687D01*
X120649988Y-105882734D01*
X120659373Y-105885783D01*
X120880554Y-105938885D01*
X120890301Y-105940428D01*
X121117070Y-105958275D01*
X121126930Y-105958275D01*
X121353699Y-105940428D01*
X121363446Y-105938885D01*
X121584627Y-105885783D01*
X121594012Y-105882734D01*
X121804163Y-105795687D01*
X121812958Y-105791205D01*
X121980445Y-105688568D01*
X121989907Y-105678110D01*
X121986124Y-105669334D01*
X121134812Y-104818022D01*
X121120868Y-104810408D01*
X121119035Y-104810539D01*
X121112420Y-104814790D01*
X120260920Y-105666290D01*
X120254160Y-105678670D01*
X117497555Y-105678670D01*
X117511416Y-105670176D01*
X117691969Y-105515969D01*
X117702514Y-105503623D01*
X117728829Y-105472811D01*
X117846176Y-105335416D01*
X117848755Y-105331208D01*
X117848759Y-105331202D01*
X117967654Y-105137183D01*
X117970240Y-105132963D01*
X117972229Y-105128163D01*
X118059211Y-104918167D01*
X118059212Y-104918165D01*
X118061105Y-104913594D01*
X118090351Y-104791774D01*
X118115380Y-104687524D01*
X118115381Y-104687518D01*
X118116535Y-104682711D01*
X118134777Y-104450930D01*
X119609725Y-104450930D01*
X119627572Y-104677699D01*
X119629115Y-104687446D01*
X119682217Y-104908627D01*
X119685266Y-104918012D01*
X119772313Y-105128163D01*
X119776795Y-105136958D01*
X119879432Y-105304445D01*
X119889890Y-105313907D01*
X119898666Y-105310124D01*
X120749978Y-104458812D01*
X120756356Y-104447132D01*
X121486408Y-104447132D01*
X121486539Y-104448965D01*
X121490790Y-104455580D01*
X122342290Y-105307080D01*
X122354670Y-105313840D01*
X122362320Y-105308113D01*
X122467205Y-105136958D01*
X122471687Y-105128163D01*
X122548440Y-104942863D01*
X132242050Y-104942863D01*
X132254309Y-105155477D01*
X132255745Y-105165697D01*
X132302565Y-105373446D01*
X132305645Y-105383275D01*
X132385770Y-105580603D01*
X132390413Y-105589794D01*
X132470460Y-105720420D01*
X132480916Y-105729880D01*
X132489694Y-105726096D01*
X133231978Y-104983812D01*
X133239592Y-104969868D01*
X133239461Y-104968035D01*
X133235210Y-104961420D01*
X132493849Y-104220059D01*
X132482313Y-104213759D01*
X132470031Y-104223382D01*
X132422089Y-104293662D01*
X132417004Y-104302613D01*
X132327338Y-104495783D01*
X132323775Y-104505470D01*
X132266864Y-104710681D01*
X132264933Y-104720800D01*
X132242302Y-104932574D01*
X132242050Y-104942863D01*
X122548440Y-104942863D01*
X122558734Y-104918012D01*
X122561783Y-104908627D01*
X122614885Y-104687446D01*
X122616428Y-104677699D01*
X122634275Y-104450930D01*
X122634275Y-104441070D01*
X122616428Y-104214301D01*
X122614885Y-104204554D01*
X122561783Y-103983373D01*
X122558734Y-103973988D01*
X122506311Y-103847427D01*
X132845223Y-103847427D01*
X132851968Y-103859758D01*
X133591188Y-104598978D01*
X133605132Y-104606592D01*
X133606965Y-104606461D01*
X133613580Y-104602210D01*
X134357389Y-103858401D01*
X134364410Y-103845544D01*
X134357611Y-103836213D01*
X134353554Y-103833518D01*
X134167117Y-103730599D01*
X134157705Y-103726369D01*
X133956959Y-103655280D01*
X133946989Y-103652646D01*
X133737327Y-103615301D01*
X133727073Y-103614331D01*
X133514116Y-103611728D01*
X133503832Y-103612448D01*
X133293321Y-103644661D01*
X133283293Y-103647050D01*
X133080868Y-103713212D01*
X133071359Y-103717209D01*
X132882466Y-103815540D01*
X132873734Y-103821039D01*
X132853677Y-103836099D01*
X132845223Y-103847427D01*
X122506311Y-103847427D01*
X122471687Y-103763837D01*
X122467205Y-103755042D01*
X122364568Y-103587555D01*
X122354110Y-103578093D01*
X122345334Y-103581876D01*
X121494022Y-104433188D01*
X121486408Y-104447132D01*
X120756356Y-104447132D01*
X120757592Y-104444868D01*
X120757461Y-104443035D01*
X120753210Y-104436420D01*
X119901710Y-103584920D01*
X119889330Y-103578160D01*
X119881680Y-103583887D01*
X119776795Y-103755042D01*
X119772313Y-103763837D01*
X119685266Y-103973988D01*
X119682217Y-103983373D01*
X119629115Y-104204554D01*
X119627572Y-104214301D01*
X119609725Y-104441070D01*
X119609725Y-104450930D01*
X118134777Y-104450930D01*
X118135165Y-104446000D01*
X118116535Y-104209289D01*
X118114778Y-104201968D01*
X118066865Y-104002399D01*
X118061105Y-103978406D01*
X118059211Y-103973833D01*
X117972135Y-103763611D01*
X117972133Y-103763607D01*
X117970240Y-103759037D01*
X117946041Y-103719548D01*
X117848759Y-103560798D01*
X117848755Y-103560792D01*
X117846176Y-103556584D01*
X117691969Y-103376031D01*
X117511416Y-103221824D01*
X117319036Y-103103932D01*
X117271405Y-103051285D01*
X117259798Y-102981244D01*
X117287901Y-102916046D01*
X117346792Y-102876392D01*
X117384871Y-102870500D01*
X120360088Y-102870500D01*
X120428209Y-102890502D01*
G37*
%TD.AperFunction*%
%TA.AperFunction,Conductor*%
G36*
X95770609Y-77324502D02*
G01*
X95817102Y-77378158D01*
X95827206Y-77448432D01*
X95797712Y-77513012D01*
X95791661Y-77519518D01*
X95706021Y-77605308D01*
X95669695Y-77641697D01*
X95665855Y-77647927D01*
X95665854Y-77647928D01*
X95591540Y-77768488D01*
X95576885Y-77792262D01*
X95521203Y-77960139D01*
X95510500Y-78064600D01*
X95510500Y-79415400D01*
X95510837Y-79418646D01*
X95510837Y-79418650D01*
X95520336Y-79510195D01*
X95521474Y-79521166D01*
X95523655Y-79527702D01*
X95523655Y-79527704D01*
X95560960Y-79639521D01*
X95577450Y-79688946D01*
X95670522Y-79839348D01*
X95795697Y-79964305D01*
X95801927Y-79968145D01*
X95801928Y-79968146D01*
X95822616Y-79980898D01*
X95870109Y-80033670D01*
X95882500Y-80088158D01*
X95882500Y-84144721D01*
X95862498Y-84212842D01*
X95850141Y-84229025D01*
X95842460Y-84237556D01*
X95746973Y-84402944D01*
X95687958Y-84584572D01*
X95687268Y-84591133D01*
X95687268Y-84591135D01*
X95676114Y-84697259D01*
X95667996Y-84774500D01*
X95687958Y-84964428D01*
X95746973Y-85146056D01*
X95842460Y-85311444D01*
X95970247Y-85453366D01*
X96124748Y-85565618D01*
X96130776Y-85568302D01*
X96130778Y-85568303D01*
X96293181Y-85640609D01*
X96299212Y-85643294D01*
X96392612Y-85663147D01*
X96479556Y-85681628D01*
X96479561Y-85681628D01*
X96486013Y-85683000D01*
X96676987Y-85683000D01*
X96683439Y-85681628D01*
X96683444Y-85681628D01*
X96770388Y-85663147D01*
X96863788Y-85643294D01*
X96869819Y-85640609D01*
X97032222Y-85568303D01*
X97032224Y-85568302D01*
X97038252Y-85565618D01*
X97192753Y-85453366D01*
X97320540Y-85311444D01*
X97416027Y-85146056D01*
X97475042Y-84964428D01*
X97495004Y-84774500D01*
X97486886Y-84697259D01*
X97475732Y-84591135D01*
X97475732Y-84591133D01*
X97475042Y-84584572D01*
X97416027Y-84402944D01*
X97320540Y-84237556D01*
X97312863Y-84229030D01*
X97282147Y-84165024D01*
X97280500Y-84144721D01*
X97280500Y-83584194D01*
X104033073Y-83584194D01*
X104042610Y-83646515D01*
X104044999Y-83656543D01*
X104116398Y-83874988D01*
X104120395Y-83884497D01*
X104226511Y-84088344D01*
X104232005Y-84097069D01*
X104369993Y-84280852D01*
X104376836Y-84288559D01*
X104542991Y-84447339D01*
X104551001Y-84453826D01*
X104740847Y-84583330D01*
X104749821Y-84588429D01*
X104958269Y-84685187D01*
X104967956Y-84688750D01*
X105189408Y-84750165D01*
X105199530Y-84752096D01*
X105244487Y-84756901D01*
X105259108Y-84754253D01*
X105262353Y-84742412D01*
X105770500Y-84742412D01*
X105774825Y-84757141D01*
X105786611Y-84759202D01*
X105798204Y-84758249D01*
X105808366Y-84756567D01*
X106031271Y-84700578D01*
X106041019Y-84697259D01*
X106251789Y-84605615D01*
X106260864Y-84600749D01*
X106453827Y-84475915D01*
X106461998Y-84469622D01*
X106631980Y-84314950D01*
X106639006Y-84307417D01*
X106781445Y-84127056D01*
X106787150Y-84118469D01*
X106898214Y-83917278D01*
X106902444Y-83907866D01*
X106979159Y-83691232D01*
X106981793Y-83681261D01*
X106999147Y-83583837D01*
X106997687Y-83570540D01*
X106983130Y-83566000D01*
X105788615Y-83566000D01*
X105773376Y-83570475D01*
X105772171Y-83571865D01*
X105770500Y-83579548D01*
X105770500Y-84742412D01*
X105262353Y-84742412D01*
X105262500Y-84741876D01*
X105262500Y-83584115D01*
X105258025Y-83568876D01*
X105256635Y-83567671D01*
X105248952Y-83566000D01*
X104048404Y-83566000D01*
X104035060Y-83569918D01*
X104033073Y-83584194D01*
X97280500Y-83584194D01*
X97280500Y-82594095D01*
X101171501Y-82594095D01*
X101171838Y-82600614D01*
X101181757Y-82696206D01*
X101184649Y-82709600D01*
X101236088Y-82863784D01*
X101242261Y-82876962D01*
X101327563Y-83014807D01*
X101336599Y-83026208D01*
X101451329Y-83140739D01*
X101462740Y-83149751D01*
X101600743Y-83234816D01*
X101613924Y-83240963D01*
X101768210Y-83292138D01*
X101781586Y-83295005D01*
X101875938Y-83304672D01*
X101882354Y-83305000D01*
X102282385Y-83305000D01*
X102297624Y-83300525D01*
X102298829Y-83299135D01*
X102300500Y-83291452D01*
X102300500Y-82506615D01*
X102296025Y-82491376D01*
X102294635Y-82490171D01*
X102286952Y-82488500D01*
X101189616Y-82488500D01*
X101174377Y-82492975D01*
X101173172Y-82494365D01*
X101171501Y-82502048D01*
X101171501Y-82594095D01*
X97280500Y-82594095D01*
X97280500Y-81962385D01*
X101171500Y-81962385D01*
X101175975Y-81977624D01*
X101177365Y-81978829D01*
X101185048Y-81980500D01*
X102282385Y-81980500D01*
X102297624Y-81976025D01*
X102298829Y-81974635D01*
X102300500Y-81966952D01*
X102300500Y-81962385D01*
X102808500Y-81962385D01*
X102812975Y-81977624D01*
X102814365Y-81978829D01*
X102822048Y-81980500D01*
X103919384Y-81980500D01*
X103934623Y-81976025D01*
X103935828Y-81974635D01*
X103937499Y-81966952D01*
X103937499Y-81874905D01*
X103937162Y-81868386D01*
X103927243Y-81772794D01*
X103924351Y-81759400D01*
X103872912Y-81605216D01*
X103866739Y-81592038D01*
X103781437Y-81454193D01*
X103772401Y-81442792D01*
X103657671Y-81328261D01*
X103646260Y-81319249D01*
X103508257Y-81234184D01*
X103495076Y-81228037D01*
X103340790Y-81176862D01*
X103327414Y-81173995D01*
X103233062Y-81164328D01*
X103226645Y-81164000D01*
X102826615Y-81164000D01*
X102811376Y-81168475D01*
X102810171Y-81169865D01*
X102808500Y-81177548D01*
X102808500Y-81962385D01*
X102300500Y-81962385D01*
X102300500Y-81182116D01*
X102296025Y-81166877D01*
X102294635Y-81165672D01*
X102286952Y-81164001D01*
X101882405Y-81164001D01*
X101875886Y-81164338D01*
X101780294Y-81174257D01*
X101766900Y-81177149D01*
X101612716Y-81228588D01*
X101599538Y-81234761D01*
X101461693Y-81320063D01*
X101450292Y-81329099D01*
X101335761Y-81443829D01*
X101326749Y-81455240D01*
X101241684Y-81593243D01*
X101235537Y-81606424D01*
X101184362Y-81760710D01*
X101181495Y-81774086D01*
X101171828Y-81868438D01*
X101171500Y-81874855D01*
X101171500Y-81962385D01*
X97280500Y-81962385D01*
X97280500Y-80088042D01*
X97300502Y-80019921D01*
X97340196Y-79980899D01*
X97368348Y-79963478D01*
X97493305Y-79838303D01*
X97531179Y-79776861D01*
X97582275Y-79693968D01*
X97582276Y-79693966D01*
X97586115Y-79687738D01*
X97629138Y-79558026D01*
X97639632Y-79526389D01*
X97639632Y-79526387D01*
X97641797Y-79519861D01*
X97642788Y-79510195D01*
X97647216Y-79466973D01*
X97652500Y-79415400D01*
X97652500Y-78064600D01*
X97650961Y-78049767D01*
X97642238Y-77965692D01*
X97642237Y-77965688D01*
X97641526Y-77958834D01*
X97585550Y-77791054D01*
X97492478Y-77640652D01*
X97398941Y-77547278D01*
X97371288Y-77519673D01*
X97337209Y-77457390D01*
X97342212Y-77386570D01*
X97384709Y-77329698D01*
X97451208Y-77304829D01*
X97460306Y-77304500D01*
X98627488Y-77304500D01*
X98695609Y-77324502D01*
X98742102Y-77378158D01*
X98752206Y-77448432D01*
X98722712Y-77513012D01*
X98716661Y-77519518D01*
X98631021Y-77605308D01*
X98594695Y-77641697D01*
X98590855Y-77647927D01*
X98590854Y-77647928D01*
X98516540Y-77768488D01*
X98501885Y-77792262D01*
X98446203Y-77960139D01*
X98435500Y-78064600D01*
X98435500Y-79415400D01*
X98435837Y-79418646D01*
X98435837Y-79418650D01*
X98445336Y-79510195D01*
X98446474Y-79521166D01*
X98448655Y-79527702D01*
X98448655Y-79527704D01*
X98485960Y-79639521D01*
X98502450Y-79688946D01*
X98595522Y-79839348D01*
X98720697Y-79964305D01*
X98726927Y-79968145D01*
X98726928Y-79968146D01*
X98864090Y-80052694D01*
X98871262Y-80057115D01*
X98941477Y-80080404D01*
X99032611Y-80110632D01*
X99032613Y-80110632D01*
X99039139Y-80112797D01*
X99045975Y-80113497D01*
X99045978Y-80113498D01*
X99089031Y-80117909D01*
X99143600Y-80123500D01*
X99869400Y-80123500D01*
X99872646Y-80123163D01*
X99872650Y-80123163D01*
X99968308Y-80113238D01*
X99968312Y-80113237D01*
X99975166Y-80112526D01*
X99981702Y-80110345D01*
X99981704Y-80110345D01*
X100113806Y-80066272D01*
X100142946Y-80056550D01*
X100293348Y-79963478D01*
X100418305Y-79838303D01*
X100456179Y-79776861D01*
X100507275Y-79693968D01*
X100507276Y-79693966D01*
X100511115Y-79687738D01*
X100564982Y-79525333D01*
X100605412Y-79466973D01*
X100670977Y-79439736D01*
X100684575Y-79439000D01*
X101045000Y-79439000D01*
X101113121Y-79459002D01*
X101159614Y-79512658D01*
X101171000Y-79565000D01*
X101171000Y-79672400D01*
X101171337Y-79675646D01*
X101171337Y-79675650D01*
X101172437Y-79686245D01*
X101181974Y-79778166D01*
X101184155Y-79784702D01*
X101184155Y-79784704D01*
X101204112Y-79844521D01*
X101237950Y-79945946D01*
X101331022Y-80096348D01*
X101336204Y-80101521D01*
X101344674Y-80109976D01*
X101456197Y-80221305D01*
X101462427Y-80225145D01*
X101462428Y-80225146D01*
X101599590Y-80309694D01*
X101606762Y-80314115D01*
X101671073Y-80335446D01*
X101768111Y-80367632D01*
X101768113Y-80367632D01*
X101774639Y-80369797D01*
X101781475Y-80370497D01*
X101781478Y-80370498D01*
X101824531Y-80374909D01*
X101879100Y-80380500D01*
X103229900Y-80380500D01*
X103233146Y-80380163D01*
X103233150Y-80380163D01*
X103328808Y-80370238D01*
X103328812Y-80370237D01*
X103335666Y-80369526D01*
X103342202Y-80367345D01*
X103342204Y-80367345D01*
X103491678Y-80317476D01*
X103503446Y-80313550D01*
X103653848Y-80220478D01*
X103778805Y-80095303D01*
X103816796Y-80033670D01*
X103867775Y-79950968D01*
X103867776Y-79950966D01*
X103871615Y-79944738D01*
X103907666Y-79836046D01*
X103925132Y-79783389D01*
X103925132Y-79783387D01*
X103927297Y-79776861D01*
X103938000Y-79672400D01*
X103938000Y-79634913D01*
X103958002Y-79566792D01*
X104011658Y-79520299D01*
X104081932Y-79510195D01*
X104146512Y-79539689D01*
X104148753Y-79541776D01*
X104153239Y-79547761D01*
X104269795Y-79635115D01*
X104278199Y-79638265D01*
X104280492Y-79639521D01*
X104330637Y-79689780D01*
X104345650Y-79759171D01*
X104317346Y-79830015D01*
X104260585Y-79899116D01*
X104137183Y-80111142D01*
X104135368Y-80115871D01*
X104058395Y-80316394D01*
X104049268Y-80340170D01*
X104048234Y-80345120D01*
X104048233Y-80345123D01*
X104028790Y-80438192D01*
X103999100Y-80580308D01*
X103987972Y-80825377D01*
X104016168Y-81069074D01*
X104082965Y-81305127D01*
X104134804Y-81416296D01*
X104152964Y-81455240D01*
X104186642Y-81527464D01*
X104324534Y-81730365D01*
X104493092Y-81908610D01*
X104535379Y-81940941D01*
X104562275Y-81961505D01*
X104604242Y-82018770D01*
X104608587Y-82089634D01*
X104570544Y-82154795D01*
X104401020Y-82309050D01*
X104393994Y-82316583D01*
X104251555Y-82496944D01*
X104245850Y-82505531D01*
X104173808Y-82636034D01*
X104123376Y-82686004D01*
X104053933Y-82700776D01*
X103987527Y-82675660D01*
X103945243Y-82618629D01*
X103937500Y-82575140D01*
X103937500Y-82506615D01*
X103933025Y-82491376D01*
X103931635Y-82490171D01*
X103923952Y-82488500D01*
X102826615Y-82488500D01*
X102811376Y-82492975D01*
X102810171Y-82494365D01*
X102808500Y-82502048D01*
X102808500Y-83286884D01*
X102812975Y-83302123D01*
X102814365Y-83303328D01*
X102822048Y-83304999D01*
X103226595Y-83304999D01*
X103233114Y-83304662D01*
X103328706Y-83294743D01*
X103342100Y-83291851D01*
X103496284Y-83240412D01*
X103509462Y-83234239D01*
X103647307Y-83148937D01*
X103658708Y-83139901D01*
X103773239Y-83025171D01*
X103782251Y-83013759D01*
X103800877Y-82983542D01*
X103853649Y-82936047D01*
X103923720Y-82924623D01*
X103988844Y-82952896D01*
X104028345Y-83011889D01*
X104033386Y-83035908D01*
X104035313Y-83053459D01*
X104049870Y-83058000D01*
X106984596Y-83058000D01*
X106997940Y-83054082D01*
X106999927Y-83039806D01*
X106990390Y-82977485D01*
X106988001Y-82967457D01*
X106916602Y-82749012D01*
X106912605Y-82739503D01*
X106806489Y-82535656D01*
X106800996Y-82526933D01*
X106779387Y-82498152D01*
X106754482Y-82431667D01*
X106769475Y-82362271D01*
X106819606Y-82311998D01*
X106880148Y-82296500D01*
X108764220Y-82296500D01*
X108832341Y-82316502D01*
X108878834Y-82370158D01*
X108888938Y-82440432D01*
X108884054Y-82461432D01*
X108834458Y-82614072D01*
X108833768Y-82620633D01*
X108833768Y-82620635D01*
X108827996Y-82675557D01*
X108814496Y-82804000D01*
X108815186Y-82810565D01*
X108828375Y-82936047D01*
X108834458Y-82993928D01*
X108893473Y-83175556D01*
X108896776Y-83181278D01*
X108896777Y-83181279D01*
X108948619Y-83271071D01*
X108965500Y-83334071D01*
X108965500Y-94949574D01*
X108945498Y-95017695D01*
X108891842Y-95064188D01*
X108821568Y-95074292D01*
X108756988Y-95044798D01*
X108732356Y-95015877D01*
X108672332Y-94918880D01*
X108668478Y-94912652D01*
X108543303Y-94787695D01*
X108514975Y-94770233D01*
X108398968Y-94698725D01*
X108398966Y-94698724D01*
X108392738Y-94694885D01*
X108312995Y-94668436D01*
X108231389Y-94641368D01*
X108231387Y-94641368D01*
X108224861Y-94639203D01*
X108218025Y-94638503D01*
X108218022Y-94638502D01*
X108171376Y-94633723D01*
X108120400Y-94628500D01*
X107394600Y-94628500D01*
X107391354Y-94628837D01*
X107391350Y-94628837D01*
X107295692Y-94638762D01*
X107295688Y-94638763D01*
X107288834Y-94639474D01*
X107282298Y-94641655D01*
X107282296Y-94641655D01*
X107150194Y-94685728D01*
X107121054Y-94695450D01*
X107001798Y-94769248D01*
X107000394Y-94770117D01*
X106931942Y-94788955D01*
X106867975Y-94770233D01*
X106751968Y-94698725D01*
X106751966Y-94698724D01*
X106745738Y-94694885D01*
X106665995Y-94668436D01*
X106584389Y-94641368D01*
X106584387Y-94641368D01*
X106577861Y-94639203D01*
X106571023Y-94638502D01*
X106571021Y-94638502D01*
X106524379Y-94633723D01*
X106458652Y-94606881D01*
X106417870Y-94548766D01*
X106414982Y-94477828D01*
X106438340Y-94430287D01*
X106442134Y-94425483D01*
X106447305Y-94420303D01*
X106540115Y-94269738D01*
X106595797Y-94101861D01*
X106606500Y-93997400D01*
X106606500Y-92946600D01*
X106606163Y-92943350D01*
X106596238Y-92847692D01*
X106596237Y-92847688D01*
X106595526Y-92840834D01*
X106539550Y-92673054D01*
X106446478Y-92522652D01*
X106321303Y-92397695D01*
X106313849Y-92393100D01*
X106176968Y-92308725D01*
X106176966Y-92308724D01*
X106170738Y-92304885D01*
X106077830Y-92274069D01*
X106009389Y-92251368D01*
X106009387Y-92251368D01*
X106002861Y-92249203D01*
X105996025Y-92248503D01*
X105996022Y-92248502D01*
X105952969Y-92244091D01*
X105898400Y-92238500D01*
X105410054Y-92238500D01*
X105341933Y-92218498D01*
X105295440Y-92164842D01*
X105292189Y-92157040D01*
X105290573Y-92152765D01*
X105290572Y-92152764D01*
X105287888Y-92145660D01*
X105283590Y-92139407D01*
X105281948Y-92136265D01*
X105274853Y-92123517D01*
X105273012Y-92120405D01*
X105269959Y-92113449D01*
X105231614Y-92063475D01*
X105227743Y-92058148D01*
X105196363Y-92012489D01*
X105196362Y-92012487D01*
X105192061Y-92006230D01*
X105146202Y-91965371D01*
X105140927Y-91960391D01*
X103130496Y-89949961D01*
X103124642Y-89943695D01*
X103092152Y-89906451D01*
X103087158Y-89900726D01*
X103035622Y-89864506D01*
X103030326Y-89860573D01*
X102986737Y-89826394D01*
X102986734Y-89826392D01*
X102980760Y-89821708D01*
X102973836Y-89818582D01*
X102970801Y-89816744D01*
X102958102Y-89809500D01*
X102954954Y-89807812D01*
X102948739Y-89803444D01*
X102890050Y-89780562D01*
X102884005Y-89778022D01*
X102826565Y-89752087D01*
X102819092Y-89750702D01*
X102815674Y-89749631D01*
X102801685Y-89745646D01*
X102798193Y-89744749D01*
X102791111Y-89741988D01*
X102783578Y-89740996D01*
X102783577Y-89740996D01*
X102728670Y-89733767D01*
X102722157Y-89732735D01*
X102667682Y-89722639D01*
X102667680Y-89722639D01*
X102660213Y-89721255D01*
X102652633Y-89721692D01*
X102652632Y-89721692D01*
X102598888Y-89724791D01*
X102591635Y-89725000D01*
X99909727Y-89725000D01*
X99841606Y-89704998D01*
X99820632Y-89688096D01*
X98980243Y-88847708D01*
X98946218Y-88785395D01*
X98944028Y-88771782D01*
X98938232Y-88716637D01*
X98938232Y-88716635D01*
X98937542Y-88710072D01*
X98878527Y-88528444D01*
X98783040Y-88363056D01*
X98744678Y-88320450D01*
X98659675Y-88226045D01*
X98659671Y-88226041D01*
X98655253Y-88221134D01*
X98500752Y-88108882D01*
X98494724Y-88106198D01*
X98494722Y-88106197D01*
X98332319Y-88033891D01*
X98332318Y-88033891D01*
X98326288Y-88031206D01*
X98232887Y-88011353D01*
X98145944Y-87992872D01*
X98145939Y-87992872D01*
X98139487Y-87991500D01*
X97948513Y-87991500D01*
X97942061Y-87992872D01*
X97942056Y-87992872D01*
X97855113Y-88011353D01*
X97761712Y-88031206D01*
X97755682Y-88033891D01*
X97755681Y-88033891D01*
X97593278Y-88106197D01*
X97593276Y-88106198D01*
X97587248Y-88108882D01*
X97432747Y-88221134D01*
X97375635Y-88284564D01*
X97315190Y-88321802D01*
X97244206Y-88320450D01*
X97188366Y-88284564D01*
X97131253Y-88221134D01*
X96976752Y-88108882D01*
X96970724Y-88106198D01*
X96970722Y-88106197D01*
X96808319Y-88033891D01*
X96808318Y-88033891D01*
X96802288Y-88031206D01*
X96708887Y-88011353D01*
X96621944Y-87992872D01*
X96621939Y-87992872D01*
X96615487Y-87991500D01*
X96424513Y-87991500D01*
X96418061Y-87992872D01*
X96418056Y-87992872D01*
X96331113Y-88011353D01*
X96237712Y-88031206D01*
X96231682Y-88033891D01*
X96231681Y-88033891D01*
X96069278Y-88106197D01*
X96069276Y-88106198D01*
X96063248Y-88108882D01*
X95908747Y-88221134D01*
X95904329Y-88226041D01*
X95904325Y-88226045D01*
X95819323Y-88320450D01*
X95780960Y-88363056D01*
X95685473Y-88528444D01*
X95626458Y-88710072D01*
X95606496Y-88900000D01*
X95626458Y-89089928D01*
X95685473Y-89271556D01*
X95780960Y-89436944D01*
X95788637Y-89445470D01*
X95819353Y-89509476D01*
X95821000Y-89529779D01*
X95821000Y-92023019D01*
X95820708Y-92031589D01*
X95816830Y-92088470D01*
X95818135Y-92095946D01*
X95818135Y-92095950D01*
X95827663Y-92150542D01*
X95828626Y-92157067D01*
X95833650Y-92198577D01*
X95836191Y-92219578D01*
X95838875Y-92226680D01*
X95839719Y-92230118D01*
X95843583Y-92244241D01*
X95844613Y-92247652D01*
X95845919Y-92255135D01*
X95848972Y-92262090D01*
X95871239Y-92312816D01*
X95873730Y-92318922D01*
X95895994Y-92377840D01*
X95900293Y-92384095D01*
X95901935Y-92387236D01*
X95909033Y-92399990D01*
X95910870Y-92403096D01*
X95913923Y-92410051D01*
X95918548Y-92416078D01*
X95918550Y-92416082D01*
X95952265Y-92460020D01*
X95956129Y-92465338D01*
X95991821Y-92517270D01*
X95997491Y-92522322D01*
X95997492Y-92522323D01*
X96037688Y-92558136D01*
X96042964Y-92563117D01*
X102203552Y-98723705D01*
X102237578Y-98786017D01*
X102232513Y-98856832D01*
X102206328Y-98897575D01*
X102206407Y-98897636D01*
X102205720Y-98898522D01*
X102203552Y-98901895D01*
X102201551Y-98903896D01*
X102191911Y-98916322D01*
X102115352Y-99045779D01*
X102109107Y-99060210D01*
X102066731Y-99206065D01*
X102064430Y-99218667D01*
X102062193Y-99247084D01*
X102062000Y-99252014D01*
X102062000Y-99868885D01*
X102066475Y-99884124D01*
X102067865Y-99885329D01*
X102075548Y-99887000D01*
X102998000Y-99887000D01*
X103066121Y-99907002D01*
X103112614Y-99960658D01*
X103124000Y-100013000D01*
X103124000Y-101602878D01*
X103127973Y-101616409D01*
X103135871Y-101617544D01*
X103275790Y-101576893D01*
X103290221Y-101570648D01*
X103419676Y-101494090D01*
X103427364Y-101488126D01*
X103493449Y-101462179D01*
X103563072Y-101476080D01*
X103579158Y-101486418D01*
X103583193Y-101490453D01*
X103726399Y-101575145D01*
X103734010Y-101577356D01*
X103734012Y-101577357D01*
X103742053Y-101579693D01*
X103886169Y-101621562D01*
X103892574Y-101622066D01*
X103892579Y-101622067D01*
X103921042Y-101624307D01*
X103921050Y-101624307D01*
X103923498Y-101624500D01*
X104356502Y-101624500D01*
X104358950Y-101624307D01*
X104358958Y-101624307D01*
X104387421Y-101622067D01*
X104387426Y-101622066D01*
X104393831Y-101621562D01*
X104537947Y-101579693D01*
X104545988Y-101577357D01*
X104545990Y-101577356D01*
X104553601Y-101575145D01*
X104696807Y-101490453D01*
X104699489Y-101487771D01*
X104763861Y-101462498D01*
X104833484Y-101476400D01*
X104849312Y-101486572D01*
X104853193Y-101490453D01*
X104996399Y-101575145D01*
X105004010Y-101577356D01*
X105004012Y-101577357D01*
X105012053Y-101579693D01*
X105156169Y-101621562D01*
X105162574Y-101622066D01*
X105162579Y-101622067D01*
X105191042Y-101624307D01*
X105191050Y-101624307D01*
X105193498Y-101624500D01*
X105626502Y-101624500D01*
X105628950Y-101624307D01*
X105628958Y-101624307D01*
X105657421Y-101622067D01*
X105657426Y-101622066D01*
X105663831Y-101621562D01*
X105807947Y-101579693D01*
X105815988Y-101577357D01*
X105815990Y-101577356D01*
X105823601Y-101575145D01*
X105966807Y-101490453D01*
X105969489Y-101487771D01*
X106033861Y-101462498D01*
X106103484Y-101476400D01*
X106119312Y-101486572D01*
X106123193Y-101490453D01*
X106266399Y-101575145D01*
X106274010Y-101577356D01*
X106274012Y-101577357D01*
X106367812Y-101604608D01*
X106427647Y-101642821D01*
X106457325Y-101707317D01*
X106451060Y-101768698D01*
X106397197Y-101916685D01*
X106374463Y-102096640D01*
X106392163Y-102277160D01*
X106449418Y-102449273D01*
X106453065Y-102455295D01*
X106453066Y-102455297D01*
X106507839Y-102545738D01*
X106543380Y-102604424D01*
X106548269Y-102609487D01*
X106548270Y-102609488D01*
X106560316Y-102621962D01*
X106669382Y-102734902D01*
X106821159Y-102834222D01*
X106827763Y-102836678D01*
X106827765Y-102836679D01*
X106984558Y-102894990D01*
X106984560Y-102894990D01*
X106991168Y-102897448D01*
X107065791Y-102907405D01*
X107163980Y-102920507D01*
X107163984Y-102920507D01*
X107170961Y-102921438D01*
X107177972Y-102920800D01*
X107177976Y-102920800D01*
X107325152Y-102907405D01*
X107351600Y-102904998D01*
X107358302Y-102902820D01*
X107358304Y-102902820D01*
X107517409Y-102851124D01*
X107517412Y-102851123D01*
X107524108Y-102848947D01*
X107671372Y-102761160D01*
X107673860Y-102759677D01*
X107673862Y-102759676D01*
X107679912Y-102756069D01*
X107811266Y-102630982D01*
X107911643Y-102479902D01*
X107967601Y-102332593D01*
X107996294Y-102288242D01*
X108424046Y-101860490D01*
X108430312Y-101854636D01*
X108467547Y-101822154D01*
X108473274Y-101817158D01*
X108509498Y-101765617D01*
X108513423Y-101760332D01*
X108547607Y-101716735D01*
X108552292Y-101710760D01*
X108555416Y-101703842D01*
X108557245Y-101700821D01*
X108564500Y-101688102D01*
X108566188Y-101684954D01*
X108570556Y-101678739D01*
X108593438Y-101620050D01*
X108595980Y-101614001D01*
X108596281Y-101613334D01*
X108642540Y-101559479D01*
X108710574Y-101539182D01*
X108775256Y-101556727D01*
X108806399Y-101575145D01*
X108814010Y-101577356D01*
X108814012Y-101577357D01*
X108822053Y-101579693D01*
X108966169Y-101621562D01*
X108972574Y-101622066D01*
X108972579Y-101622067D01*
X109001042Y-101624307D01*
X109001050Y-101624307D01*
X109003498Y-101624500D01*
X109436502Y-101624500D01*
X109438950Y-101624307D01*
X109438958Y-101624307D01*
X109467421Y-101622067D01*
X109467426Y-101622066D01*
X109473831Y-101621562D01*
X109617947Y-101579693D01*
X109625988Y-101577357D01*
X109625990Y-101577356D01*
X109633601Y-101575145D01*
X109776807Y-101490453D01*
X109779489Y-101487771D01*
X109843861Y-101462498D01*
X109913484Y-101476400D01*
X109929312Y-101486572D01*
X109933193Y-101490453D01*
X110076399Y-101575145D01*
X110084010Y-101577356D01*
X110084012Y-101577357D01*
X110092053Y-101579693D01*
X110236169Y-101621562D01*
X110242574Y-101622066D01*
X110242579Y-101622067D01*
X110271042Y-101624307D01*
X110271050Y-101624307D01*
X110273498Y-101624500D01*
X110706502Y-101624500D01*
X110708950Y-101624307D01*
X110708958Y-101624307D01*
X110737421Y-101622067D01*
X110737426Y-101622066D01*
X110743831Y-101621562D01*
X110887947Y-101579693D01*
X110895988Y-101577357D01*
X110895990Y-101577356D01*
X110903601Y-101575145D01*
X110946083Y-101550021D01*
X111039980Y-101494491D01*
X111039983Y-101494489D01*
X111046807Y-101490453D01*
X111164453Y-101372807D01*
X111168489Y-101365983D01*
X111168491Y-101365980D01*
X111245108Y-101236427D01*
X111249145Y-101229601D01*
X111251415Y-101221790D01*
X111283310Y-101112002D01*
X111295562Y-101069831D01*
X111296074Y-101063336D01*
X111298307Y-101034958D01*
X111298307Y-101034950D01*
X111298500Y-101032502D01*
X111298500Y-99249498D01*
X111298307Y-99247042D01*
X111296067Y-99218579D01*
X111296066Y-99218574D01*
X111295562Y-99212169D01*
X111261985Y-99096595D01*
X111251357Y-99060012D01*
X111251356Y-99060010D01*
X111249145Y-99052399D01*
X111232107Y-99023589D01*
X111168491Y-98916020D01*
X111168489Y-98916017D01*
X111164453Y-98909193D01*
X111046807Y-98791547D01*
X111039983Y-98787511D01*
X111039980Y-98787509D01*
X110920157Y-98716646D01*
X110903601Y-98706855D01*
X110895990Y-98704644D01*
X110895988Y-98704643D01*
X110835648Y-98687113D01*
X110743831Y-98660438D01*
X110737426Y-98659934D01*
X110737421Y-98659933D01*
X110708958Y-98657693D01*
X110708950Y-98657693D01*
X110706502Y-98657500D01*
X110273498Y-98657500D01*
X110271050Y-98657693D01*
X110271042Y-98657693D01*
X110242579Y-98659933D01*
X110242574Y-98659934D01*
X110236169Y-98660438D01*
X110144352Y-98687113D01*
X110084012Y-98704643D01*
X110084010Y-98704644D01*
X110076399Y-98706855D01*
X109933193Y-98791547D01*
X109930511Y-98794229D01*
X109866139Y-98819502D01*
X109796516Y-98805600D01*
X109780688Y-98795428D01*
X109776807Y-98791547D01*
X109633601Y-98706855D01*
X109625990Y-98704644D01*
X109625988Y-98704643D01*
X109565648Y-98687113D01*
X109473831Y-98660438D01*
X109467426Y-98659934D01*
X109467421Y-98659933D01*
X109438958Y-98657693D01*
X109438950Y-98657693D01*
X109436502Y-98657500D01*
X109003498Y-98657500D01*
X109001050Y-98657693D01*
X109001042Y-98657693D01*
X108972579Y-98659933D01*
X108972574Y-98659934D01*
X108966169Y-98660438D01*
X108874352Y-98687113D01*
X108814012Y-98704643D01*
X108814010Y-98704644D01*
X108806399Y-98706855D01*
X108663193Y-98791547D01*
X108660511Y-98794229D01*
X108596139Y-98819502D01*
X108526516Y-98805600D01*
X108510688Y-98795428D01*
X108506807Y-98791547D01*
X108363601Y-98706855D01*
X108355990Y-98704644D01*
X108355988Y-98704643D01*
X108295648Y-98687113D01*
X108203831Y-98660438D01*
X108197426Y-98659934D01*
X108197421Y-98659933D01*
X108168958Y-98657693D01*
X108168950Y-98657693D01*
X108166502Y-98657500D01*
X107733498Y-98657500D01*
X107731050Y-98657693D01*
X107731042Y-98657693D01*
X107702579Y-98659933D01*
X107702574Y-98659934D01*
X107696169Y-98660438D01*
X107689993Y-98662232D01*
X107689989Y-98662233D01*
X107603652Y-98687316D01*
X107532656Y-98687113D01*
X107473040Y-98648559D01*
X107443732Y-98583894D01*
X107442500Y-98566319D01*
X107442500Y-97521500D01*
X107462502Y-97453379D01*
X107516158Y-97406886D01*
X107568500Y-97395500D01*
X108120400Y-97395500D01*
X108123646Y-97395163D01*
X108123650Y-97395163D01*
X108219308Y-97385238D01*
X108219312Y-97385237D01*
X108226166Y-97384526D01*
X108232702Y-97382345D01*
X108232704Y-97382345D01*
X108380332Y-97333092D01*
X108393946Y-97328550D01*
X108544348Y-97235478D01*
X108669305Y-97110303D01*
X108684436Y-97085756D01*
X108758275Y-96965968D01*
X108758276Y-96965966D01*
X108762115Y-96959738D01*
X108817797Y-96791861D01*
X108828500Y-96687400D01*
X108828500Y-95498248D01*
X108848502Y-95430127D01*
X108902158Y-95383634D01*
X108972432Y-95373530D01*
X109037012Y-95403024D01*
X109059872Y-95429164D01*
X109081815Y-95462633D01*
X109084130Y-95466300D01*
X109122227Y-95529081D01*
X109125941Y-95533286D01*
X109125943Y-95533289D01*
X109129667Y-95537505D01*
X109129638Y-95537531D01*
X109132238Y-95540462D01*
X109135042Y-95543816D01*
X109139054Y-95549935D01*
X109153816Y-95563919D01*
X109195586Y-95603488D01*
X109198028Y-95605866D01*
X109574595Y-95982433D01*
X109608621Y-96044745D01*
X109611500Y-96071528D01*
X109611500Y-96687400D01*
X109622474Y-96793166D01*
X109624655Y-96799702D01*
X109624655Y-96799704D01*
X109657944Y-96899481D01*
X109678450Y-96960946D01*
X109771522Y-97111348D01*
X109896697Y-97236305D01*
X109902927Y-97240145D01*
X109902928Y-97240146D01*
X110040090Y-97324694D01*
X110047262Y-97329115D01*
X110067043Y-97335676D01*
X110208611Y-97382632D01*
X110208613Y-97382632D01*
X110215139Y-97384797D01*
X110221975Y-97385497D01*
X110221978Y-97385498D01*
X110265031Y-97389909D01*
X110319600Y-97395500D01*
X110935472Y-97395500D01*
X111003593Y-97415502D01*
X111024567Y-97432405D01*
X116191690Y-102599528D01*
X116204077Y-102613941D01*
X116217046Y-102631564D01*
X116246955Y-102656973D01*
X116257555Y-102665979D01*
X116265071Y-102672909D01*
X116270815Y-102678653D01*
X116273689Y-102680927D01*
X116273696Y-102680933D01*
X116293211Y-102696372D01*
X116296615Y-102699163D01*
X116346972Y-102741945D01*
X116346976Y-102741948D01*
X116348812Y-102743507D01*
X116348814Y-102743510D01*
X116352551Y-102746685D01*
X116352008Y-102747324D01*
X116393754Y-102797183D01*
X116402667Y-102867618D01*
X116372085Y-102931690D01*
X116307685Y-102970096D01*
X116177120Y-103001442D01*
X116101940Y-102996317D01*
X116082031Y-102988555D01*
X116076005Y-102986022D01*
X116018565Y-102960087D01*
X116011092Y-102958702D01*
X116007674Y-102957631D01*
X115993685Y-102953646D01*
X115990193Y-102952749D01*
X115983111Y-102949988D01*
X115975578Y-102948996D01*
X115975577Y-102948996D01*
X115920670Y-102941767D01*
X115914157Y-102940735D01*
X115859682Y-102930639D01*
X115859680Y-102930639D01*
X115852213Y-102929255D01*
X115844633Y-102929692D01*
X115844632Y-102929692D01*
X115790888Y-102932791D01*
X115783635Y-102933000D01*
X108968207Y-102933000D01*
X108959637Y-102932708D01*
X108910342Y-102929347D01*
X108910338Y-102929347D01*
X108902766Y-102928831D01*
X108840699Y-102939664D01*
X108834225Y-102940620D01*
X108771658Y-102948191D01*
X108764552Y-102950876D01*
X108761119Y-102951719D01*
X108747003Y-102955581D01*
X108743588Y-102956612D01*
X108736101Y-102957919D01*
X108729143Y-102960973D01*
X108729144Y-102960973D01*
X108678420Y-102983239D01*
X108672314Y-102985730D01*
X108630735Y-103001442D01*
X108613396Y-103007994D01*
X108607141Y-103012293D01*
X108604000Y-103013935D01*
X108591253Y-103021029D01*
X108588141Y-103022870D01*
X108581185Y-103025923D01*
X108575157Y-103030549D01*
X108575156Y-103030549D01*
X108531220Y-103064262D01*
X108525884Y-103068139D01*
X108482785Y-103097760D01*
X108473966Y-103103821D01*
X108468914Y-103109491D01*
X108468913Y-103109492D01*
X108433108Y-103149679D01*
X108428127Y-103154955D01*
X108012487Y-103570595D01*
X107950175Y-103604621D01*
X107923392Y-103607500D01*
X107733498Y-103607500D01*
X107731050Y-103607693D01*
X107731042Y-103607693D01*
X107702579Y-103609933D01*
X107702574Y-103609934D01*
X107696169Y-103610438D01*
X107610369Y-103635365D01*
X107544012Y-103654643D01*
X107544010Y-103654644D01*
X107536399Y-103656855D01*
X107393193Y-103741547D01*
X107390511Y-103744229D01*
X107326139Y-103769502D01*
X107256516Y-103755600D01*
X107240688Y-103745428D01*
X107236807Y-103741547D01*
X107093601Y-103656855D01*
X107085990Y-103654644D01*
X107085988Y-103654643D01*
X107019631Y-103635365D01*
X106933831Y-103610438D01*
X106927426Y-103609934D01*
X106927421Y-103609933D01*
X106898958Y-103607693D01*
X106898950Y-103607693D01*
X106896502Y-103607500D01*
X106463498Y-103607500D01*
X106461050Y-103607693D01*
X106461042Y-103607693D01*
X106432579Y-103609933D01*
X106432574Y-103609934D01*
X106426169Y-103610438D01*
X106340369Y-103635365D01*
X106274012Y-103654643D01*
X106274010Y-103654644D01*
X106266399Y-103656855D01*
X106123193Y-103741547D01*
X106120511Y-103744229D01*
X106056139Y-103769502D01*
X105986516Y-103755600D01*
X105970688Y-103745428D01*
X105966807Y-103741547D01*
X105823601Y-103656855D01*
X105815990Y-103654644D01*
X105815988Y-103654643D01*
X105749631Y-103635365D01*
X105663831Y-103610438D01*
X105657426Y-103609934D01*
X105657421Y-103609933D01*
X105628958Y-103607693D01*
X105628950Y-103607693D01*
X105626502Y-103607500D01*
X105193498Y-103607500D01*
X105191050Y-103607693D01*
X105191042Y-103607693D01*
X105162579Y-103609933D01*
X105162574Y-103609934D01*
X105156169Y-103610438D01*
X105070369Y-103635365D01*
X105004012Y-103654643D01*
X105004010Y-103654644D01*
X104996399Y-103656855D01*
X104853193Y-103741547D01*
X104850511Y-103744229D01*
X104786139Y-103769502D01*
X104716516Y-103755600D01*
X104700688Y-103745428D01*
X104696807Y-103741547D01*
X104553601Y-103656855D01*
X104545990Y-103654644D01*
X104545988Y-103654643D01*
X104479631Y-103635365D01*
X104393831Y-103610438D01*
X104387426Y-103609934D01*
X104387421Y-103609933D01*
X104358958Y-103607693D01*
X104358950Y-103607693D01*
X104356502Y-103607500D01*
X103923498Y-103607500D01*
X103921050Y-103607693D01*
X103921042Y-103607693D01*
X103892579Y-103609933D01*
X103892574Y-103609934D01*
X103886169Y-103610438D01*
X103800369Y-103635365D01*
X103734012Y-103654643D01*
X103734010Y-103654644D01*
X103726399Y-103656855D01*
X103583193Y-103741547D01*
X103580511Y-103744229D01*
X103516139Y-103769502D01*
X103446516Y-103755600D01*
X103430688Y-103745428D01*
X103426807Y-103741547D01*
X103283601Y-103656855D01*
X103275990Y-103654644D01*
X103275988Y-103654643D01*
X103209631Y-103635365D01*
X103123831Y-103610438D01*
X103117426Y-103609934D01*
X103117421Y-103609933D01*
X103088958Y-103607693D01*
X103088950Y-103607693D01*
X103086502Y-103607500D01*
X102653498Y-103607500D01*
X102651050Y-103607693D01*
X102651042Y-103607693D01*
X102622579Y-103609933D01*
X102622574Y-103609934D01*
X102616169Y-103610438D01*
X102530369Y-103635365D01*
X102464012Y-103654643D01*
X102464010Y-103654644D01*
X102456399Y-103656855D01*
X102449572Y-103660892D01*
X102449573Y-103660892D01*
X102320020Y-103737509D01*
X102320017Y-103737511D01*
X102313193Y-103741547D01*
X102195547Y-103859193D01*
X102191511Y-103866017D01*
X102191509Y-103866020D01*
X102162579Y-103914939D01*
X102110855Y-104002399D01*
X102064438Y-104162169D01*
X102061500Y-104199498D01*
X102061500Y-104768973D01*
X102041498Y-104837094D01*
X102024599Y-104858064D01*
X101068065Y-105814597D01*
X101005755Y-105848621D01*
X100978972Y-105851500D01*
X99131386Y-105851500D01*
X99063265Y-105831498D01*
X99042368Y-105814673D01*
X98997485Y-105769868D01*
X98992303Y-105764695D01*
X98987765Y-105761898D01*
X98947176Y-105704647D01*
X98943946Y-105633724D01*
X98979572Y-105572313D01*
X98988068Y-105564938D01*
X98998207Y-105556902D01*
X99112739Y-105442171D01*
X99121751Y-105430760D01*
X99206816Y-105292757D01*
X99212963Y-105279576D01*
X99264138Y-105125290D01*
X99267005Y-105111914D01*
X99276672Y-105017562D01*
X99277000Y-105011146D01*
X99277000Y-104986115D01*
X99272525Y-104970876D01*
X99271135Y-104969671D01*
X99263452Y-104968000D01*
X96829116Y-104968000D01*
X96798055Y-104977120D01*
X96764950Y-104998396D01*
X96729451Y-105003500D01*
X95498500Y-105003500D01*
X95430379Y-104983498D01*
X95383886Y-104929842D01*
X95372500Y-104877500D01*
X95372500Y-104717866D01*
X95365745Y-104655684D01*
X95314615Y-104519295D01*
X95256599Y-104441885D01*
X96811000Y-104441885D01*
X96815475Y-104457124D01*
X96816865Y-104458329D01*
X96824548Y-104460000D01*
X97771885Y-104460000D01*
X97787124Y-104455525D01*
X97788329Y-104454135D01*
X97790000Y-104446452D01*
X97790000Y-104441885D01*
X98298000Y-104441885D01*
X98302475Y-104457124D01*
X98303865Y-104458329D01*
X98311548Y-104460000D01*
X99258884Y-104460000D01*
X99274123Y-104455525D01*
X99275328Y-104454135D01*
X99276999Y-104446452D01*
X99276999Y-104416905D01*
X99276662Y-104410386D01*
X99266743Y-104314794D01*
X99263851Y-104301400D01*
X99212412Y-104147216D01*
X99206239Y-104134038D01*
X99120937Y-103996193D01*
X99111901Y-103984792D01*
X98997171Y-103870261D01*
X98985760Y-103861249D01*
X98847757Y-103776184D01*
X98834576Y-103770037D01*
X98680290Y-103718862D01*
X98666914Y-103715995D01*
X98572562Y-103706328D01*
X98566145Y-103706000D01*
X98316115Y-103706000D01*
X98300876Y-103710475D01*
X98299671Y-103711865D01*
X98298000Y-103719548D01*
X98298000Y-104441885D01*
X97790000Y-104441885D01*
X97790000Y-103724116D01*
X97785525Y-103708877D01*
X97784135Y-103707672D01*
X97776452Y-103706001D01*
X97521905Y-103706001D01*
X97515386Y-103706338D01*
X97419794Y-103716257D01*
X97406400Y-103719149D01*
X97252216Y-103770588D01*
X97239038Y-103776761D01*
X97101193Y-103862063D01*
X97089792Y-103871099D01*
X96975261Y-103985829D01*
X96966249Y-103997240D01*
X96881184Y-104135243D01*
X96875037Y-104148424D01*
X96823862Y-104302710D01*
X96820995Y-104316086D01*
X96811328Y-104410438D01*
X96811000Y-104416855D01*
X96811000Y-104441885D01*
X95256599Y-104441885D01*
X95227261Y-104402739D01*
X95110705Y-104315385D01*
X94974316Y-104264255D01*
X94912134Y-104257500D01*
X93852500Y-104257500D01*
X93784379Y-104237498D01*
X93737886Y-104183842D01*
X93726500Y-104131500D01*
X93726500Y-101089542D01*
X93743988Y-101029984D01*
X102062001Y-101029984D01*
X102062195Y-101034920D01*
X102064430Y-101063336D01*
X102066730Y-101075931D01*
X102109107Y-101221790D01*
X102115352Y-101236221D01*
X102191911Y-101365678D01*
X102201551Y-101378104D01*
X102307896Y-101484449D01*
X102320322Y-101494089D01*
X102449779Y-101570648D01*
X102464210Y-101576893D01*
X102598605Y-101615939D01*
X102612706Y-101615899D01*
X102616000Y-101608630D01*
X102616000Y-100413115D01*
X102611525Y-100397876D01*
X102610135Y-100396671D01*
X102602452Y-100395000D01*
X102080116Y-100395000D01*
X102064877Y-100399475D01*
X102063672Y-100400865D01*
X102062001Y-100408548D01*
X102062001Y-101029984D01*
X93743988Y-101029984D01*
X93746502Y-101021421D01*
X93800158Y-100974928D01*
X93819565Y-100968261D01*
X93824316Y-100967745D01*
X93831711Y-100964973D01*
X93831714Y-100964972D01*
X93952297Y-100919767D01*
X93960705Y-100916615D01*
X94038852Y-100858047D01*
X94105358Y-100833199D01*
X94174741Y-100848252D01*
X94189982Y-100858047D01*
X94260352Y-100910786D01*
X94275946Y-100919324D01*
X94396394Y-100964478D01*
X94411649Y-100968105D01*
X94462514Y-100973631D01*
X94469328Y-100974000D01*
X94991885Y-100974000D01*
X95007124Y-100969525D01*
X95008329Y-100968135D01*
X95010000Y-100960452D01*
X95010000Y-100955884D01*
X95518000Y-100955884D01*
X95522475Y-100971123D01*
X95523865Y-100972328D01*
X95531548Y-100973999D01*
X96058669Y-100973999D01*
X96065490Y-100973629D01*
X96116352Y-100968105D01*
X96131604Y-100964479D01*
X96252054Y-100919324D01*
X96267649Y-100910786D01*
X96369724Y-100834285D01*
X96382285Y-100821724D01*
X96458786Y-100719649D01*
X96467324Y-100704054D01*
X96512478Y-100583606D01*
X96516105Y-100568351D01*
X96521631Y-100517486D01*
X96522000Y-100510672D01*
X96522000Y-99738115D01*
X96517525Y-99722876D01*
X96516135Y-99721671D01*
X96508452Y-99720000D01*
X95536115Y-99720000D01*
X95520876Y-99724475D01*
X95519671Y-99725865D01*
X95518000Y-99733548D01*
X95518000Y-100955884D01*
X95010000Y-100955884D01*
X95010000Y-99193885D01*
X95518000Y-99193885D01*
X95522475Y-99209124D01*
X95523865Y-99210329D01*
X95531548Y-99212000D01*
X96503884Y-99212000D01*
X96519123Y-99207525D01*
X96520328Y-99206135D01*
X96521999Y-99198452D01*
X96521999Y-98421331D01*
X96521629Y-98414510D01*
X96516105Y-98363648D01*
X96512479Y-98348396D01*
X96467324Y-98227946D01*
X96458786Y-98212351D01*
X96382285Y-98110276D01*
X96369724Y-98097715D01*
X96267649Y-98021214D01*
X96252054Y-98012676D01*
X96131606Y-97967522D01*
X96116351Y-97963895D01*
X96065486Y-97958369D01*
X96058672Y-97958000D01*
X95536115Y-97958000D01*
X95520876Y-97962475D01*
X95519671Y-97963865D01*
X95518000Y-97971548D01*
X95518000Y-99193885D01*
X95010000Y-99193885D01*
X95010000Y-97976116D01*
X95005525Y-97960877D01*
X95004135Y-97959672D01*
X94996452Y-97958001D01*
X94469331Y-97958001D01*
X94462510Y-97958371D01*
X94411648Y-97963895D01*
X94396396Y-97967521D01*
X94275946Y-98012676D01*
X94260352Y-98021214D01*
X94189982Y-98073953D01*
X94123476Y-98098801D01*
X94054093Y-98083748D01*
X94038852Y-98073953D01*
X94018100Y-98058400D01*
X93960705Y-98015385D01*
X93946022Y-98009880D01*
X93831714Y-97967028D01*
X93831711Y-97967027D01*
X93824316Y-97964255D01*
X93821430Y-97963942D01*
X93761709Y-97929825D01*
X93728887Y-97866870D01*
X93726500Y-97842458D01*
X93726500Y-97754500D01*
X93746502Y-97686379D01*
X93800158Y-97639886D01*
X93852500Y-97628500D01*
X94096134Y-97628500D01*
X94158316Y-97621745D01*
X94294705Y-97570615D01*
X94411261Y-97483261D01*
X94498615Y-97366705D01*
X94549745Y-97230316D01*
X94556500Y-97168134D01*
X94556500Y-95871866D01*
X94549745Y-95809684D01*
X94498615Y-95673295D01*
X94411261Y-95556739D01*
X94294705Y-95469385D01*
X94158316Y-95418255D01*
X94096134Y-95411500D01*
X93099866Y-95411500D01*
X93037684Y-95418255D01*
X92901295Y-95469385D01*
X92784739Y-95556739D01*
X92697385Y-95673295D01*
X92646255Y-95809684D01*
X92639500Y-95871866D01*
X92639500Y-96347972D01*
X92619498Y-96416093D01*
X92602595Y-96437067D01*
X92472472Y-96567190D01*
X92458059Y-96579577D01*
X92440436Y-96592546D01*
X92435692Y-96598129D01*
X92435693Y-96598129D01*
X92406021Y-96633055D01*
X92399091Y-96640571D01*
X92393347Y-96646315D01*
X92391073Y-96649189D01*
X92391067Y-96649196D01*
X92375628Y-96668711D01*
X92372837Y-96672115D01*
X92330055Y-96722472D01*
X92330052Y-96722476D01*
X92325316Y-96728051D01*
X92321988Y-96734568D01*
X92318611Y-96739632D01*
X92315384Y-96744856D01*
X92310840Y-96750600D01*
X92307741Y-96757231D01*
X92279768Y-96817082D01*
X92277837Y-96821033D01*
X92244457Y-96886404D01*
X92242716Y-96893519D01*
X92240579Y-96899265D01*
X92238655Y-96905048D01*
X92235556Y-96911679D01*
X92234066Y-96918843D01*
X92220608Y-96983547D01*
X92219639Y-96987829D01*
X92202196Y-97059112D01*
X92201500Y-97070330D01*
X92201461Y-97070328D01*
X92201228Y-97074229D01*
X92200839Y-97078588D01*
X92199348Y-97085756D01*
X92199546Y-97093073D01*
X92201454Y-97163577D01*
X92201500Y-97166986D01*
X92201500Y-97842458D01*
X92181498Y-97910579D01*
X92127842Y-97957072D01*
X92108435Y-97963739D01*
X92103684Y-97964255D01*
X92096289Y-97967027D01*
X92096286Y-97967028D01*
X91981978Y-98009880D01*
X91967295Y-98015385D01*
X91960110Y-98020770D01*
X91960108Y-98020771D01*
X91889565Y-98073640D01*
X91823058Y-98098488D01*
X91753676Y-98083435D01*
X91738435Y-98073640D01*
X91667892Y-98020771D01*
X91667890Y-98020770D01*
X91660705Y-98015385D01*
X91524316Y-97964255D01*
X91462134Y-97957500D01*
X91186500Y-97957500D01*
X91118379Y-97937498D01*
X91071886Y-97883842D01*
X91060500Y-97831500D01*
X91060500Y-97584331D01*
X91080502Y-97516210D01*
X91099040Y-97496301D01*
X91097731Y-97494992D01*
X91104081Y-97488642D01*
X91111261Y-97483261D01*
X91198615Y-97366705D01*
X91249745Y-97230316D01*
X91256500Y-97168134D01*
X91256500Y-95871866D01*
X91249745Y-95809684D01*
X91198615Y-95673295D01*
X91111261Y-95556739D01*
X90994705Y-95469385D01*
X90858316Y-95418255D01*
X90796134Y-95411500D01*
X89799866Y-95411500D01*
X89737684Y-95418255D01*
X89601295Y-95469385D01*
X89484739Y-95556739D01*
X89397385Y-95673295D01*
X89346255Y-95809684D01*
X89339500Y-95871866D01*
X89339500Y-97168134D01*
X89346255Y-97230316D01*
X89397385Y-97366705D01*
X89484739Y-97483261D01*
X89491919Y-97488642D01*
X89498269Y-97494992D01*
X89495620Y-97497641D01*
X89527552Y-97540289D01*
X89535500Y-97584331D01*
X89535500Y-98081097D01*
X89515498Y-98149218D01*
X89510329Y-98156657D01*
X89463385Y-98219295D01*
X89412255Y-98355684D01*
X89405500Y-98417866D01*
X89405500Y-98577500D01*
X89385498Y-98645621D01*
X89331842Y-98692114D01*
X89279500Y-98703500D01*
X88627368Y-98703500D01*
X88608420Y-98702067D01*
X88601033Y-98700943D01*
X88594024Y-98699877D01*
X88594022Y-98699877D01*
X88586792Y-98698777D01*
X88579500Y-98699370D01*
X88579497Y-98699370D01*
X88533825Y-98703085D01*
X88523611Y-98703500D01*
X88515475Y-98703500D01*
X88511840Y-98703924D01*
X88511837Y-98703924D01*
X88493835Y-98706023D01*
X88487084Y-98706810D01*
X88482713Y-98707243D01*
X88471701Y-98708138D01*
X88416872Y-98712597D01*
X88416869Y-98712598D01*
X88409573Y-98713191D01*
X88402611Y-98715446D01*
X88396607Y-98716646D01*
X88390660Y-98718052D01*
X88383393Y-98718899D01*
X88314388Y-98743947D01*
X88310227Y-98745375D01*
X88247387Y-98765732D01*
X88247382Y-98765734D01*
X88240425Y-98767988D01*
X88234173Y-98771782D01*
X88228598Y-98774334D01*
X88223135Y-98777070D01*
X88216259Y-98779566D01*
X88210140Y-98783578D01*
X88154863Y-98819819D01*
X88151159Y-98822156D01*
X88088419Y-98860228D01*
X88079994Y-98867668D01*
X88079969Y-98867640D01*
X88077044Y-98870234D01*
X88073690Y-98873039D01*
X88067565Y-98877054D01*
X88062530Y-98882369D01*
X88062529Y-98882370D01*
X88014012Y-98933586D01*
X88011634Y-98936028D01*
X87851067Y-99096595D01*
X87788755Y-99130621D01*
X87761972Y-99133500D01*
X87358600Y-99133500D01*
X87355354Y-99133837D01*
X87355350Y-99133837D01*
X87259692Y-99143762D01*
X87259688Y-99143763D01*
X87252834Y-99144474D01*
X87246298Y-99146655D01*
X87246296Y-99146655D01*
X87114194Y-99190728D01*
X87085054Y-99200450D01*
X86934652Y-99293522D01*
X86929479Y-99298704D01*
X86885741Y-99342518D01*
X86823458Y-99376597D01*
X86796568Y-99379500D01*
X84329368Y-99379500D01*
X84310420Y-99378067D01*
X84300756Y-99376597D01*
X84296024Y-99375877D01*
X84296022Y-99375877D01*
X84288792Y-99374777D01*
X84281500Y-99375370D01*
X84281497Y-99375370D01*
X84235825Y-99379085D01*
X84225611Y-99379500D01*
X84217475Y-99379500D01*
X84213840Y-99379924D01*
X84213837Y-99379924D01*
X84195835Y-99382023D01*
X84189084Y-99382810D01*
X84184713Y-99383243D01*
X84173701Y-99384138D01*
X84118872Y-99388597D01*
X84118869Y-99388598D01*
X84111573Y-99389191D01*
X84104611Y-99391446D01*
X84098607Y-99392646D01*
X84092660Y-99394052D01*
X84085393Y-99394899D01*
X84016388Y-99419947D01*
X84012227Y-99421375D01*
X83949387Y-99441732D01*
X83949382Y-99441734D01*
X83942425Y-99443988D01*
X83936173Y-99447782D01*
X83930598Y-99450334D01*
X83925135Y-99453070D01*
X83918259Y-99455566D01*
X83912140Y-99459578D01*
X83856863Y-99495819D01*
X83853159Y-99498156D01*
X83790419Y-99536228D01*
X83781994Y-99543668D01*
X83781969Y-99543640D01*
X83779044Y-99546234D01*
X83775690Y-99549039D01*
X83769565Y-99553054D01*
X83764530Y-99558369D01*
X83764529Y-99558370D01*
X83716012Y-99609586D01*
X83713634Y-99612028D01*
X82345595Y-100980067D01*
X82283283Y-101014093D01*
X82212468Y-101009028D01*
X82155632Y-100966481D01*
X82130821Y-100899961D01*
X82130500Y-100890972D01*
X82130500Y-100193866D01*
X82123745Y-100131684D01*
X82072615Y-99995295D01*
X81985261Y-99878739D01*
X81868705Y-99791385D01*
X81732316Y-99740255D01*
X81670134Y-99733500D01*
X79873866Y-99733500D01*
X79811684Y-99740255D01*
X79675295Y-99791385D01*
X79558739Y-99878739D01*
X79553358Y-99885919D01*
X79475326Y-99990037D01*
X79418467Y-100032552D01*
X79347648Y-100037578D01*
X79285355Y-100003518D01*
X79251365Y-99941187D01*
X79248500Y-99914472D01*
X79248499Y-90900979D01*
X79268501Y-90832858D01*
X79322157Y-90786365D01*
X79392431Y-90776261D01*
X79457011Y-90805755D01*
X79468795Y-90817407D01*
X79613725Y-90980933D01*
X79619067Y-90986275D01*
X79862274Y-91201825D01*
X79868216Y-91206484D01*
X80135547Y-91391249D01*
X80142036Y-91395178D01*
X80429603Y-91546474D01*
X80436519Y-91549597D01*
X80740199Y-91665257D01*
X80747411Y-91667517D01*
X81062795Y-91745860D01*
X81070245Y-91747240D01*
X81393637Y-91787234D01*
X81399391Y-91787680D01*
X81408577Y-91787968D01*
X81410601Y-91788000D01*
X83547885Y-91788000D01*
X83563124Y-91783525D01*
X83564329Y-91782135D01*
X83566000Y-91774452D01*
X83566000Y-91769885D01*
X84074000Y-91769885D01*
X84078475Y-91785124D01*
X84079865Y-91786329D01*
X84087548Y-91788000D01*
X86229399Y-91788000D01*
X86231423Y-91787968D01*
X86240609Y-91787680D01*
X86246363Y-91787234D01*
X86569755Y-91747240D01*
X86577205Y-91745860D01*
X86892589Y-91667517D01*
X86899801Y-91665257D01*
X87203481Y-91549597D01*
X87210397Y-91546474D01*
X87497964Y-91395178D01*
X87504453Y-91391249D01*
X87771784Y-91206484D01*
X87777726Y-91201825D01*
X88020933Y-90986275D01*
X88026275Y-90980933D01*
X88241825Y-90737726D01*
X88246484Y-90731784D01*
X88431249Y-90464453D01*
X88435178Y-90457964D01*
X88586474Y-90170397D01*
X88589597Y-90163481D01*
X88705257Y-89859801D01*
X88707517Y-89852589D01*
X88785860Y-89537205D01*
X88787240Y-89529755D01*
X88827234Y-89206363D01*
X88827680Y-89200609D01*
X88827968Y-89191423D01*
X88828000Y-89189399D01*
X88828000Y-87052115D01*
X88823525Y-87036876D01*
X88822135Y-87035671D01*
X88814452Y-87034000D01*
X84092115Y-87034000D01*
X84076876Y-87038475D01*
X84075671Y-87039865D01*
X84074000Y-87047548D01*
X84074000Y-91769885D01*
X83566000Y-91769885D01*
X83566000Y-86507885D01*
X84074000Y-86507885D01*
X84078475Y-86523124D01*
X84079865Y-86524329D01*
X84087548Y-86526000D01*
X88809885Y-86526000D01*
X88825124Y-86521525D01*
X88826329Y-86520135D01*
X88828000Y-86512452D01*
X88828000Y-84370601D01*
X88827968Y-84368577D01*
X88827680Y-84359391D01*
X88827234Y-84353637D01*
X88787240Y-84030245D01*
X88785860Y-84022795D01*
X88707517Y-83707411D01*
X88705257Y-83700199D01*
X88589597Y-83396519D01*
X88586474Y-83389603D01*
X88435178Y-83102036D01*
X88431249Y-83095547D01*
X88246484Y-82828216D01*
X88241825Y-82822274D01*
X88026275Y-82579067D01*
X88020933Y-82573725D01*
X87777726Y-82358175D01*
X87771784Y-82353516D01*
X87504453Y-82168751D01*
X87497964Y-82164822D01*
X87210397Y-82013526D01*
X87203481Y-82010403D01*
X86899801Y-81894743D01*
X86892589Y-81892483D01*
X86577205Y-81814140D01*
X86569755Y-81812760D01*
X86246363Y-81772766D01*
X86240609Y-81772320D01*
X86231423Y-81772032D01*
X86229399Y-81772000D01*
X84092115Y-81772000D01*
X84076876Y-81776475D01*
X84075671Y-81777865D01*
X84074000Y-81785548D01*
X84074000Y-86507885D01*
X83566000Y-86507885D01*
X83566000Y-81790115D01*
X83561525Y-81774876D01*
X83560135Y-81773671D01*
X83552452Y-81772000D01*
X81410601Y-81772000D01*
X81408577Y-81772032D01*
X81399391Y-81772320D01*
X81393637Y-81772766D01*
X81070245Y-81812760D01*
X81062795Y-81814140D01*
X80747411Y-81892483D01*
X80740199Y-81894743D01*
X80436519Y-82010403D01*
X80429603Y-82013526D01*
X80142036Y-82164822D01*
X80135547Y-82168751D01*
X79868216Y-82353516D01*
X79862274Y-82358175D01*
X79619067Y-82573725D01*
X79613725Y-82579067D01*
X79468794Y-82742594D01*
X79408642Y-82780308D01*
X79337650Y-82779513D01*
X79278357Y-82740464D01*
X79249588Y-82675557D01*
X79248498Y-82659022D01*
X79248498Y-78353260D01*
X79268500Y-78285139D01*
X79322156Y-78238646D01*
X79392430Y-78228542D01*
X79457010Y-78258036D01*
X79481758Y-78287144D01*
X79673392Y-78598032D01*
X79940315Y-78955485D01*
X79942176Y-78957563D01*
X79942177Y-78957564D01*
X80183950Y-79227498D01*
X80237957Y-79287796D01*
X80239994Y-79289699D01*
X80240001Y-79289706D01*
X80374556Y-79415400D01*
X80563961Y-79592332D01*
X80566157Y-79594045D01*
X80566161Y-79594048D01*
X80714261Y-79709548D01*
X80915746Y-79866682D01*
X81038504Y-79945946D01*
X81288183Y-80107162D01*
X81288191Y-80107167D01*
X81290527Y-80108675D01*
X81685335Y-80316394D01*
X81687928Y-80317476D01*
X82094462Y-80487116D01*
X82094467Y-80487118D01*
X82097046Y-80488194D01*
X82099711Y-80489037D01*
X82099717Y-80489039D01*
X82331317Y-80562284D01*
X82522398Y-80622715D01*
X82525128Y-80623318D01*
X82525129Y-80623318D01*
X82917664Y-80709982D01*
X82958025Y-80718893D01*
X82960799Y-80719251D01*
X82960800Y-80719251D01*
X83397707Y-80775608D01*
X83397714Y-80775609D01*
X83400477Y-80775965D01*
X83403264Y-80776075D01*
X83403270Y-80776075D01*
X83661519Y-80786221D01*
X83846251Y-80793479D01*
X83849043Y-80793340D01*
X83849048Y-80793340D01*
X84289013Y-80771438D01*
X84289022Y-80771437D01*
X84291817Y-80771298D01*
X84294594Y-80770910D01*
X84294596Y-80770910D01*
X84372542Y-80760025D01*
X84733647Y-80709596D01*
X84736357Y-80708968D01*
X84736367Y-80708966D01*
X85165515Y-80609494D01*
X85168242Y-80608862D01*
X85390990Y-80535842D01*
X85589510Y-80470764D01*
X85589516Y-80470762D01*
X85592163Y-80469894D01*
X86002052Y-80293791D01*
X86394664Y-80081950D01*
X86766890Y-79836046D01*
X87115782Y-79558026D01*
X87438580Y-79250093D01*
X87653168Y-79005402D01*
X87730874Y-78916795D01*
X87730877Y-78916791D01*
X87732725Y-78914684D01*
X87995891Y-78554455D01*
X87997337Y-78552054D01*
X88224541Y-78174669D01*
X88224546Y-78174660D01*
X88225992Y-78172258D01*
X88341245Y-77935429D01*
X88419974Y-77773654D01*
X88419975Y-77773651D01*
X88421207Y-77771120D01*
X88568017Y-77385653D01*
X88610954Y-77329113D01*
X88677644Y-77304762D01*
X88685765Y-77304500D01*
X95702488Y-77304500D01*
X95770609Y-77324502D01*
G37*
%TD.AperFunction*%
%TA.AperFunction,Conductor*%
G36*
X97428989Y-89574692D02*
G01*
X97432747Y-89578866D01*
X97587248Y-89691118D01*
X97593276Y-89693802D01*
X97593278Y-89693803D01*
X97699276Y-89740996D01*
X97761712Y-89768794D01*
X97931631Y-89804912D01*
X97994528Y-89839063D01*
X99053503Y-90898038D01*
X99059356Y-90904303D01*
X99096842Y-90947274D01*
X99103056Y-90951641D01*
X99148389Y-90983502D01*
X99153684Y-90987435D01*
X99203239Y-91026291D01*
X99210163Y-91029417D01*
X99213212Y-91031264D01*
X99225878Y-91038489D01*
X99229043Y-91040186D01*
X99235261Y-91044556D01*
X99293996Y-91067456D01*
X99300009Y-91069983D01*
X99357435Y-91095912D01*
X99364903Y-91097296D01*
X99368311Y-91098364D01*
X99382350Y-91102364D01*
X99385814Y-91103253D01*
X99392889Y-91106012D01*
X99400418Y-91107003D01*
X99400421Y-91107004D01*
X99455345Y-91114235D01*
X99461859Y-91115267D01*
X99516317Y-91125360D01*
X99516320Y-91125360D01*
X99523786Y-91126744D01*
X99531366Y-91126307D01*
X99531367Y-91126307D01*
X99585094Y-91123209D01*
X99592347Y-91123000D01*
X102274275Y-91123000D01*
X102342396Y-91143002D01*
X102363370Y-91159905D01*
X103268915Y-92065450D01*
X103302941Y-92127762D01*
X103297876Y-92198577D01*
X103255329Y-92255413D01*
X103219696Y-92274069D01*
X103131216Y-92303588D01*
X103118038Y-92309761D01*
X102980193Y-92395063D01*
X102968792Y-92404099D01*
X102854261Y-92518829D01*
X102845249Y-92530240D01*
X102760184Y-92668243D01*
X102754037Y-92681424D01*
X102702862Y-92835710D01*
X102699995Y-92849086D01*
X102690328Y-92943438D01*
X102690000Y-92949855D01*
X102690000Y-93199885D01*
X102694475Y-93215124D01*
X102695865Y-93216329D01*
X102703548Y-93218000D01*
X103826000Y-93218000D01*
X103894121Y-93238002D01*
X103940614Y-93291658D01*
X103952000Y-93344000D01*
X103952000Y-93600000D01*
X103931998Y-93668121D01*
X103878342Y-93714614D01*
X103826000Y-93726000D01*
X102708116Y-93726000D01*
X102692877Y-93730475D01*
X102691672Y-93731865D01*
X102690001Y-93739548D01*
X102690001Y-93994095D01*
X102690338Y-94000614D01*
X102700257Y-94096206D01*
X102703149Y-94109600D01*
X102754588Y-94263784D01*
X102760761Y-94276962D01*
X102846063Y-94414807D01*
X102858564Y-94430580D01*
X102885200Y-94496391D01*
X102872028Y-94566155D01*
X102823230Y-94617723D01*
X102772820Y-94634170D01*
X102723794Y-94639257D01*
X102710400Y-94642149D01*
X102556216Y-94693588D01*
X102543038Y-94699761D01*
X102405193Y-94785063D01*
X102393792Y-94794099D01*
X102279261Y-94908829D01*
X102270249Y-94920240D01*
X102185184Y-95058243D01*
X102179037Y-95071424D01*
X102127862Y-95225710D01*
X102124995Y-95239086D01*
X102115328Y-95333438D01*
X102115000Y-95339855D01*
X102115000Y-95739885D01*
X102119475Y-95755124D01*
X102120865Y-95756329D01*
X102128548Y-95758000D01*
X103313500Y-95758000D01*
X103381621Y-95778002D01*
X103428114Y-95831658D01*
X103439500Y-95884000D01*
X103439500Y-97376884D01*
X103443975Y-97392123D01*
X103445365Y-97393328D01*
X103453048Y-97394999D01*
X103545095Y-97394999D01*
X103551614Y-97394662D01*
X103647206Y-97384743D01*
X103660600Y-97381851D01*
X103799006Y-97335676D01*
X103869956Y-97333092D01*
X103931040Y-97369276D01*
X103962864Y-97432740D01*
X103964882Y-97455200D01*
X103964882Y-97523283D01*
X103964590Y-97531853D01*
X103962315Y-97565229D01*
X103960712Y-97588734D01*
X103962017Y-97596210D01*
X103962017Y-97596214D01*
X103971545Y-97650806D01*
X103972508Y-97657331D01*
X103980073Y-97719842D01*
X103982757Y-97726944D01*
X103983601Y-97730382D01*
X103987465Y-97744505D01*
X103988495Y-97747916D01*
X103989801Y-97755399D01*
X103992854Y-97762354D01*
X104015121Y-97813080D01*
X104017612Y-97819186D01*
X104039876Y-97878104D01*
X104044175Y-97884359D01*
X104045817Y-97887500D01*
X104052915Y-97900254D01*
X104054752Y-97903360D01*
X104057805Y-97910315D01*
X104062430Y-97916342D01*
X104062432Y-97916346D01*
X104096147Y-97960284D01*
X104100011Y-97965602D01*
X104135703Y-98017534D01*
X104141373Y-98022586D01*
X104141374Y-98022587D01*
X104181570Y-98058400D01*
X104186846Y-98063381D01*
X104596633Y-98473168D01*
X104630659Y-98535480D01*
X104625594Y-98606295D01*
X104583047Y-98663131D01*
X104516527Y-98687942D01*
X104472386Y-98683260D01*
X104393831Y-98660438D01*
X104387426Y-98659934D01*
X104387421Y-98659933D01*
X104358958Y-98657693D01*
X104358950Y-98657693D01*
X104356502Y-98657500D01*
X104166608Y-98657500D01*
X104098487Y-98637498D01*
X104077513Y-98620595D01*
X102963511Y-97506593D01*
X102929485Y-97444281D01*
X102929485Y-97390716D01*
X102931500Y-97381453D01*
X102931500Y-96284115D01*
X102927025Y-96268876D01*
X102925635Y-96267671D01*
X102917952Y-96266000D01*
X102133116Y-96266000D01*
X102117877Y-96270475D01*
X102116672Y-96271865D01*
X102115001Y-96279548D01*
X102115001Y-96353893D01*
X102094999Y-96422014D01*
X102041343Y-96468507D01*
X101971069Y-96478611D01*
X101906489Y-96449117D01*
X101899906Y-96442988D01*
X97255905Y-91798988D01*
X97221879Y-91736676D01*
X97219000Y-91709893D01*
X97219000Y-89668479D01*
X97239002Y-89600358D01*
X97292658Y-89553865D01*
X97362932Y-89543761D01*
X97428989Y-89574692D01*
G37*
%TD.AperFunction*%
%TA.AperFunction,Conductor*%
G36*
X115190000Y-64516499D02*
G01*
X115258121Y-64536501D01*
X115304614Y-64590157D01*
X115316000Y-64642499D01*
X115316000Y-67945500D01*
X115295998Y-68013621D01*
X115242342Y-68060114D01*
X115190000Y-68071500D01*
X107151000Y-68071500D01*
X107082879Y-68051498D01*
X107036386Y-67997842D01*
X107025000Y-67945500D01*
X107025000Y-66055366D01*
X107018245Y-65993184D01*
X106967115Y-65856795D01*
X106879761Y-65740239D01*
X106763205Y-65652885D01*
X106626816Y-65601755D01*
X106564634Y-65595000D01*
X104468366Y-65595000D01*
X104406184Y-65601755D01*
X104269795Y-65652885D01*
X104222921Y-65688015D01*
X104212172Y-65696071D01*
X104145666Y-65720919D01*
X104076283Y-65705866D01*
X104026053Y-65655692D01*
X104017084Y-65635122D01*
X104007370Y-65606007D01*
X104007368Y-65606002D01*
X104005050Y-65599054D01*
X103911978Y-65448652D01*
X103786803Y-65323695D01*
X103780572Y-65319854D01*
X103642468Y-65234725D01*
X103642466Y-65234724D01*
X103636238Y-65230885D01*
X103475754Y-65177655D01*
X103474889Y-65177368D01*
X103474887Y-65177368D01*
X103468361Y-65175203D01*
X103461525Y-65174503D01*
X103461522Y-65174502D01*
X103418469Y-65170091D01*
X103363900Y-65164500D01*
X102638100Y-65164500D01*
X102634854Y-65164837D01*
X102634850Y-65164837D01*
X102539192Y-65174762D01*
X102539188Y-65174763D01*
X102532334Y-65175474D01*
X102525798Y-65177655D01*
X102525796Y-65177655D01*
X102393694Y-65221728D01*
X102364554Y-65231450D01*
X102214152Y-65324522D01*
X102089195Y-65449697D01*
X102085355Y-65455927D01*
X102085354Y-65455928D01*
X102002867Y-65589747D01*
X101996385Y-65600262D01*
X101940703Y-65768139D01*
X101930000Y-65872600D01*
X101930000Y-67109275D01*
X101909998Y-67177396D01*
X101856342Y-67223889D01*
X101786068Y-67233993D01*
X101721488Y-67204499D01*
X101714905Y-67198370D01*
X101183905Y-66667370D01*
X101149879Y-66605058D01*
X101147000Y-66578275D01*
X101147000Y-65872600D01*
X101146233Y-65865203D01*
X101136738Y-65773692D01*
X101136737Y-65773688D01*
X101136026Y-65766834D01*
X101120708Y-65720919D01*
X101082368Y-65606002D01*
X101080050Y-65599054D01*
X100986978Y-65448652D01*
X100861803Y-65323695D01*
X100855572Y-65319854D01*
X100717468Y-65234725D01*
X100717466Y-65234724D01*
X100711238Y-65230885D01*
X100550754Y-65177655D01*
X100549889Y-65177368D01*
X100549887Y-65177368D01*
X100543361Y-65175203D01*
X100536525Y-65174503D01*
X100536522Y-65174502D01*
X100493469Y-65170091D01*
X100438900Y-65164500D01*
X99713100Y-65164500D01*
X99709854Y-65164837D01*
X99709850Y-65164837D01*
X99614192Y-65174762D01*
X99614188Y-65174763D01*
X99607334Y-65175474D01*
X99600798Y-65177655D01*
X99600796Y-65177655D01*
X99468694Y-65221728D01*
X99439554Y-65231450D01*
X99289152Y-65324522D01*
X99164195Y-65449697D01*
X99160355Y-65455927D01*
X99160354Y-65455928D01*
X99077867Y-65589747D01*
X99071385Y-65600262D01*
X99015703Y-65768139D01*
X99005000Y-65872600D01*
X99005000Y-67223400D01*
X99015974Y-67329166D01*
X99071950Y-67496946D01*
X99165022Y-67647348D01*
X99290197Y-67772305D01*
X99296427Y-67776145D01*
X99296428Y-67776146D01*
X99433590Y-67860694D01*
X99440762Y-67865115D01*
X99464535Y-67873000D01*
X99602111Y-67918632D01*
X99602113Y-67918632D01*
X99608639Y-67920797D01*
X99615475Y-67921497D01*
X99615478Y-67921498D01*
X99658531Y-67925909D01*
X99713100Y-67931500D01*
X100418774Y-67931500D01*
X100486895Y-67951502D01*
X100507869Y-67968405D01*
X101661595Y-69122131D01*
X101695621Y-69184443D01*
X101698500Y-69211226D01*
X101698500Y-69448099D01*
X101678498Y-69516220D01*
X101624842Y-69562713D01*
X101554568Y-69572817D01*
X101508361Y-69556552D01*
X101380427Y-69480892D01*
X101380428Y-69480892D01*
X101373601Y-69476855D01*
X101365990Y-69474644D01*
X101365988Y-69474643D01*
X101274621Y-69448099D01*
X101213831Y-69430438D01*
X101207426Y-69429934D01*
X101207421Y-69429933D01*
X101178958Y-69427693D01*
X101178950Y-69427693D01*
X101176502Y-69427500D01*
X100754725Y-69427500D01*
X100686604Y-69407498D01*
X100665630Y-69390595D01*
X100458497Y-69183462D01*
X100452643Y-69177196D01*
X100415158Y-69134226D01*
X100363622Y-69098006D01*
X100358326Y-69094073D01*
X100314737Y-69059894D01*
X100314734Y-69059892D01*
X100308760Y-69055208D01*
X100301836Y-69052082D01*
X100298801Y-69050244D01*
X100286102Y-69043000D01*
X100282954Y-69041312D01*
X100276739Y-69036944D01*
X100218050Y-69014062D01*
X100212005Y-69011522D01*
X100154565Y-68985587D01*
X100147092Y-68984202D01*
X100143674Y-68983131D01*
X100129685Y-68979146D01*
X100126193Y-68978249D01*
X100119111Y-68975488D01*
X100111578Y-68974496D01*
X100111577Y-68974496D01*
X100056670Y-68967267D01*
X100050157Y-68966235D01*
X99995682Y-68956139D01*
X99995680Y-68956139D01*
X99988213Y-68954755D01*
X99980633Y-68955192D01*
X99980632Y-68955192D01*
X99926888Y-68958291D01*
X99919635Y-68958500D01*
X99330542Y-68958500D01*
X99262421Y-68938498D01*
X99223399Y-68898804D01*
X99205978Y-68870652D01*
X99080803Y-68745695D01*
X99046295Y-68724424D01*
X98936468Y-68656725D01*
X98936466Y-68656724D01*
X98930238Y-68652885D01*
X98769754Y-68599655D01*
X98768889Y-68599368D01*
X98768887Y-68599368D01*
X98762361Y-68597203D01*
X98755525Y-68596503D01*
X98755522Y-68596502D01*
X98712469Y-68592091D01*
X98657900Y-68586500D01*
X97307100Y-68586500D01*
X97303854Y-68586837D01*
X97303850Y-68586837D01*
X97208192Y-68596762D01*
X97208188Y-68596763D01*
X97201334Y-68597474D01*
X97194798Y-68599655D01*
X97194796Y-68599655D01*
X97132128Y-68620563D01*
X97033554Y-68653450D01*
X97028945Y-68656302D01*
X96959542Y-68666968D01*
X96894679Y-68638102D01*
X96869121Y-68608386D01*
X96865292Y-68602197D01*
X96799978Y-68496652D01*
X96674803Y-68371695D01*
X96656757Y-68360571D01*
X96530468Y-68282725D01*
X96530466Y-68282724D01*
X96524238Y-68278885D01*
X96363754Y-68225655D01*
X96362889Y-68225368D01*
X96362887Y-68225368D01*
X96356361Y-68223203D01*
X96349525Y-68222503D01*
X96349522Y-68222502D01*
X96306469Y-68218091D01*
X96251900Y-68212500D01*
X95526100Y-68212500D01*
X95522854Y-68212837D01*
X95522850Y-68212837D01*
X95427192Y-68222762D01*
X95427188Y-68222763D01*
X95420334Y-68223474D01*
X95413798Y-68225655D01*
X95413796Y-68225655D01*
X95325225Y-68255205D01*
X95252554Y-68279450D01*
X95102152Y-68372522D01*
X94977195Y-68497697D01*
X94973355Y-68503927D01*
X94973354Y-68503928D01*
X94922254Y-68586828D01*
X94884385Y-68648262D01*
X94828703Y-68816139D01*
X94818000Y-68920600D01*
X94818000Y-70271400D01*
X94818337Y-70274646D01*
X94818337Y-70274650D01*
X94826830Y-70356500D01*
X94828974Y-70377166D01*
X94831155Y-70383702D01*
X94831155Y-70383704D01*
X94846898Y-70430892D01*
X94884950Y-70544946D01*
X94978022Y-70695348D01*
X95103197Y-70820305D01*
X95109427Y-70824145D01*
X95109428Y-70824146D01*
X95246590Y-70908694D01*
X95253762Y-70913115D01*
X95330534Y-70938579D01*
X95415111Y-70966632D01*
X95415113Y-70966632D01*
X95421639Y-70968797D01*
X95428475Y-70969497D01*
X95428478Y-70969498D01*
X95471531Y-70973909D01*
X95526100Y-70979500D01*
X96251900Y-70979500D01*
X96255146Y-70979163D01*
X96255150Y-70979163D01*
X96350808Y-70969238D01*
X96350812Y-70969237D01*
X96357666Y-70968526D01*
X96364202Y-70966345D01*
X96364204Y-70966345D01*
X96496306Y-70922272D01*
X96525446Y-70912550D01*
X96675848Y-70819478D01*
X96800805Y-70694303D01*
X96813485Y-70673733D01*
X96866257Y-70626239D01*
X96936328Y-70614815D01*
X96986862Y-70632589D01*
X97028530Y-70658274D01*
X97028533Y-70658275D01*
X97034762Y-70662115D01*
X97113011Y-70688069D01*
X97196111Y-70715632D01*
X97196113Y-70715632D01*
X97202639Y-70717797D01*
X97209475Y-70718497D01*
X97209478Y-70718498D01*
X97252531Y-70722909D01*
X97307100Y-70728500D01*
X98657900Y-70728500D01*
X98661146Y-70728163D01*
X98661150Y-70728163D01*
X98756808Y-70718238D01*
X98756812Y-70718237D01*
X98763666Y-70717526D01*
X98770202Y-70715345D01*
X98770204Y-70715345D01*
X98902306Y-70671272D01*
X98931446Y-70661550D01*
X99081848Y-70568478D01*
X99101923Y-70548368D01*
X99164206Y-70514289D01*
X99235026Y-70519292D01*
X99291898Y-70561789D01*
X99312093Y-70602232D01*
X99325855Y-70649601D01*
X99329892Y-70656427D01*
X99406509Y-70785980D01*
X99406511Y-70785983D01*
X99410547Y-70792807D01*
X99528193Y-70910453D01*
X99535017Y-70914489D01*
X99535020Y-70914491D01*
X99626389Y-70968526D01*
X99671399Y-70995145D01*
X99679010Y-70997356D01*
X99679012Y-70997357D01*
X99731231Y-71012528D01*
X99831169Y-71041562D01*
X99837574Y-71042066D01*
X99837579Y-71042067D01*
X99866042Y-71044307D01*
X99866050Y-71044307D01*
X99868498Y-71044500D01*
X101025500Y-71044500D01*
X101093621Y-71064502D01*
X101140114Y-71118158D01*
X101151500Y-71170500D01*
X101151500Y-71202000D01*
X101131498Y-71270121D01*
X101077842Y-71316614D01*
X101025500Y-71328000D01*
X100794615Y-71328000D01*
X100779376Y-71332475D01*
X100778171Y-71333865D01*
X100776500Y-71341548D01*
X100776500Y-71863885D01*
X100780975Y-71879124D01*
X100782365Y-71880329D01*
X100790048Y-71882000D01*
X101405158Y-71882000D01*
X101469297Y-71899547D01*
X101546399Y-71945145D01*
X101554010Y-71947356D01*
X101554012Y-71947357D01*
X101606231Y-71962528D01*
X101706169Y-71991562D01*
X101712574Y-71992066D01*
X101712579Y-71992067D01*
X101741042Y-71994307D01*
X101741050Y-71994307D01*
X101743498Y-71994500D01*
X103051502Y-71994500D01*
X103053950Y-71994307D01*
X103053958Y-71994307D01*
X103082421Y-71992067D01*
X103082426Y-71992066D01*
X103088831Y-71991562D01*
X103095003Y-71989769D01*
X103095008Y-71989768D01*
X103163176Y-71969963D01*
X103204126Y-71958066D01*
X103275121Y-71958269D01*
X103334738Y-71996823D01*
X103364046Y-72061488D01*
X103353742Y-72131732D01*
X103328373Y-72168158D01*
X101277936Y-74218595D01*
X101215624Y-74252621D01*
X101188841Y-74255500D01*
X97048520Y-74255500D01*
X96980399Y-74235498D01*
X96933906Y-74181842D01*
X96923210Y-74142671D01*
X96906232Y-73981135D01*
X96906232Y-73981133D01*
X96905542Y-73974572D01*
X96846527Y-73792944D01*
X96806935Y-73724369D01*
X96790197Y-73655374D01*
X96813417Y-73588282D01*
X96869224Y-73544395D01*
X96939899Y-73537646D01*
X96982169Y-73554109D01*
X97028738Y-73582814D01*
X97041924Y-73588963D01*
X97196210Y-73640138D01*
X97209586Y-73643005D01*
X97303938Y-73652672D01*
X97310354Y-73653000D01*
X97710385Y-73653000D01*
X97725624Y-73648525D01*
X97726829Y-73647135D01*
X97728500Y-73639452D01*
X97728500Y-73634884D01*
X98236500Y-73634884D01*
X98240975Y-73650123D01*
X98242365Y-73651328D01*
X98250048Y-73652999D01*
X98654595Y-73652999D01*
X98661114Y-73652662D01*
X98756706Y-73642743D01*
X98770100Y-73639851D01*
X98924284Y-73588412D01*
X98937462Y-73582239D01*
X99075307Y-73496937D01*
X99086708Y-73487901D01*
X99201239Y-73373171D01*
X99210251Y-73361760D01*
X99295316Y-73223757D01*
X99301463Y-73210576D01*
X99352638Y-73056290D01*
X99355505Y-73042914D01*
X99365172Y-72948562D01*
X99365500Y-72942146D01*
X99365500Y-72934558D01*
X99385502Y-72866437D01*
X99439158Y-72819944D01*
X99509432Y-72809840D01*
X99555638Y-72826104D01*
X99664775Y-72890646D01*
X99679210Y-72896893D01*
X99825065Y-72939269D01*
X99837667Y-72941570D01*
X99866084Y-72943807D01*
X99871014Y-72944000D01*
X100250385Y-72944000D01*
X100265624Y-72939525D01*
X100266829Y-72938135D01*
X100268500Y-72930452D01*
X100268500Y-72925884D01*
X100776500Y-72925884D01*
X100780975Y-72941123D01*
X100782365Y-72942328D01*
X100790048Y-72943999D01*
X101173984Y-72943999D01*
X101178920Y-72943805D01*
X101207336Y-72941570D01*
X101219931Y-72939270D01*
X101365790Y-72896893D01*
X101380221Y-72890648D01*
X101509678Y-72814089D01*
X101522104Y-72804449D01*
X101628449Y-72698104D01*
X101638089Y-72685678D01*
X101714648Y-72556221D01*
X101720893Y-72541790D01*
X101759939Y-72407395D01*
X101759899Y-72393294D01*
X101752630Y-72390000D01*
X100794615Y-72390000D01*
X100779376Y-72394475D01*
X100778171Y-72395865D01*
X100776500Y-72403548D01*
X100776500Y-72925884D01*
X100268500Y-72925884D01*
X100268500Y-71346116D01*
X100264025Y-71330877D01*
X100262635Y-71329672D01*
X100254952Y-71328001D01*
X99871017Y-71328001D01*
X99866080Y-71328195D01*
X99837664Y-71330430D01*
X99825069Y-71332730D01*
X99679210Y-71375107D01*
X99664779Y-71381352D01*
X99535322Y-71457911D01*
X99522896Y-71467551D01*
X99416551Y-71573896D01*
X99406911Y-71586322D01*
X99336832Y-71704822D01*
X99284939Y-71753274D01*
X99215089Y-71765980D01*
X99149458Y-71738905D01*
X99139361Y-71729856D01*
X99085676Y-71676265D01*
X99074260Y-71667249D01*
X98936257Y-71582184D01*
X98923076Y-71576037D01*
X98768790Y-71524862D01*
X98755414Y-71521995D01*
X98661062Y-71512328D01*
X98654645Y-71512000D01*
X98254615Y-71512000D01*
X98239376Y-71516475D01*
X98238171Y-71517865D01*
X98236500Y-71525548D01*
X98236500Y-73634884D01*
X97728500Y-73634884D01*
X97728500Y-72854615D01*
X97724025Y-72839376D01*
X97722635Y-72838171D01*
X97714952Y-72836500D01*
X96617616Y-72836500D01*
X96602377Y-72840975D01*
X96601172Y-72842365D01*
X96599501Y-72850048D01*
X96599501Y-72942095D01*
X96599838Y-72948614D01*
X96609757Y-73044206D01*
X96612649Y-73057600D01*
X96664090Y-73211791D01*
X96672199Y-73229100D01*
X96682985Y-73299272D01*
X96654120Y-73364136D01*
X96594769Y-73403098D01*
X96523776Y-73403787D01*
X96484038Y-73384488D01*
X96474094Y-73377263D01*
X96474093Y-73377262D01*
X96468752Y-73373382D01*
X96462724Y-73370698D01*
X96462722Y-73370697D01*
X96300319Y-73298391D01*
X96300318Y-73298391D01*
X96294288Y-73295706D01*
X96124369Y-73259588D01*
X96061472Y-73225437D01*
X95146420Y-72310385D01*
X96599500Y-72310385D01*
X96603975Y-72325624D01*
X96605365Y-72326829D01*
X96613048Y-72328500D01*
X97710385Y-72328500D01*
X97725624Y-72324025D01*
X97726829Y-72322635D01*
X97728500Y-72314952D01*
X97728500Y-71530116D01*
X97724025Y-71514877D01*
X97722635Y-71513672D01*
X97714952Y-71512001D01*
X97310405Y-71512001D01*
X97303886Y-71512338D01*
X97208294Y-71522257D01*
X97194900Y-71525149D01*
X97040716Y-71576588D01*
X97027538Y-71582761D01*
X96889693Y-71668063D01*
X96878292Y-71677099D01*
X96763761Y-71791829D01*
X96754749Y-71803240D01*
X96669684Y-71941243D01*
X96663537Y-71954424D01*
X96612362Y-72108710D01*
X96609495Y-72122086D01*
X96599828Y-72216438D01*
X96599500Y-72222855D01*
X96599500Y-72310385D01*
X95146420Y-72310385D01*
X93792240Y-70956205D01*
X93758214Y-70893893D01*
X93763279Y-70823078D01*
X93792162Y-70778092D01*
X93870634Y-70699483D01*
X93875805Y-70694303D01*
X93894226Y-70664419D01*
X93964775Y-70549968D01*
X93964776Y-70549966D01*
X93968615Y-70543738D01*
X94024297Y-70375861D01*
X94035000Y-70271400D01*
X94035000Y-68920600D01*
X94034663Y-68917350D01*
X94024738Y-68821692D01*
X94024737Y-68821688D01*
X94024026Y-68814834D01*
X94009261Y-68770576D01*
X93974365Y-68665983D01*
X93968050Y-68647054D01*
X93874978Y-68496652D01*
X93749803Y-68371695D01*
X93731757Y-68360571D01*
X93605468Y-68282725D01*
X93605466Y-68282724D01*
X93599238Y-68278885D01*
X93438754Y-68225655D01*
X93437889Y-68225368D01*
X93437887Y-68225368D01*
X93431361Y-68223203D01*
X93424525Y-68222503D01*
X93424522Y-68222502D01*
X93381469Y-68218091D01*
X93326900Y-68212500D01*
X92601100Y-68212500D01*
X92597854Y-68212837D01*
X92597850Y-68212837D01*
X92502192Y-68222762D01*
X92502188Y-68222763D01*
X92495334Y-68223474D01*
X92488798Y-68225655D01*
X92488796Y-68225655D01*
X92400225Y-68255205D01*
X92327554Y-68279450D01*
X92177152Y-68372522D01*
X92052195Y-68497697D01*
X92048355Y-68503927D01*
X92048354Y-68503928D01*
X91997254Y-68586828D01*
X91959385Y-68648262D01*
X91903703Y-68816139D01*
X91893000Y-68920600D01*
X91893000Y-70271400D01*
X91893337Y-70274646D01*
X91893337Y-70274650D01*
X91901830Y-70356500D01*
X91903974Y-70377166D01*
X91906155Y-70383702D01*
X91906155Y-70383704D01*
X91921898Y-70430892D01*
X91959950Y-70544946D01*
X92053022Y-70695348D01*
X92178197Y-70820305D01*
X92184427Y-70824145D01*
X92184428Y-70824146D01*
X92205116Y-70836898D01*
X92252609Y-70889670D01*
X92265000Y-70944158D01*
X92265000Y-71087901D01*
X92264708Y-71096471D01*
X92261790Y-71139276D01*
X92260830Y-71153352D01*
X92262135Y-71160828D01*
X92262135Y-71160832D01*
X92271663Y-71215424D01*
X92272626Y-71221949D01*
X92278456Y-71270121D01*
X92280191Y-71284460D01*
X92282875Y-71291562D01*
X92283719Y-71295000D01*
X92287583Y-71309123D01*
X92288613Y-71312534D01*
X92289919Y-71320017D01*
X92292972Y-71326972D01*
X92315239Y-71377698D01*
X92317730Y-71383804D01*
X92339994Y-71442722D01*
X92344293Y-71448977D01*
X92345935Y-71452118D01*
X92353033Y-71464872D01*
X92354870Y-71467978D01*
X92357923Y-71474933D01*
X92362548Y-71480960D01*
X92362550Y-71480964D01*
X92396265Y-71524902D01*
X92400129Y-71530220D01*
X92435821Y-71582152D01*
X92441491Y-71587204D01*
X92441492Y-71587205D01*
X92481688Y-71623018D01*
X92486964Y-71627999D01*
X94899370Y-74040405D01*
X94933396Y-74102717D01*
X94928331Y-74173532D01*
X94885784Y-74230368D01*
X94819264Y-74255179D01*
X94810275Y-74255500D01*
X88682744Y-74255500D01*
X88614623Y-74235498D01*
X88568130Y-74181842D01*
X88562809Y-74168122D01*
X88549248Y-74126011D01*
X88519108Y-74032417D01*
X88491956Y-73968294D01*
X88346245Y-73624186D01*
X88346245Y-73624185D01*
X88345155Y-73621612D01*
X88324483Y-73582814D01*
X88136679Y-73230351D01*
X88135371Y-73227896D01*
X88098981Y-73172180D01*
X87892944Y-72856721D01*
X87892941Y-72856717D01*
X87891420Y-72854388D01*
X87879586Y-72839376D01*
X87616960Y-72506237D01*
X87616958Y-72506235D01*
X87615231Y-72504044D01*
X87308992Y-72179639D01*
X87205304Y-72087742D01*
X86977234Y-71885607D01*
X86977227Y-71885602D01*
X86975128Y-71883741D01*
X86616282Y-71618694D01*
X86352477Y-71457982D01*
X86237684Y-71388049D01*
X86237677Y-71388045D01*
X86235295Y-71386594D01*
X86229638Y-71383804D01*
X85888195Y-71215424D01*
X85835184Y-71189282D01*
X85419118Y-71028318D01*
X85311499Y-70997357D01*
X84993071Y-70905748D01*
X84993065Y-70905746D01*
X84990390Y-70904977D01*
X84987653Y-70904448D01*
X84987647Y-70904446D01*
X84829304Y-70873811D01*
X84552394Y-70820236D01*
X84549617Y-70819951D01*
X84549607Y-70819950D01*
X84274789Y-70791793D01*
X84108600Y-70774765D01*
X84105810Y-70774728D01*
X84105802Y-70774728D01*
X83827276Y-70771083D01*
X83662521Y-70768926D01*
X83659721Y-70769139D01*
X83659720Y-70769139D01*
X83438323Y-70785980D01*
X83217688Y-70802763D01*
X82777625Y-70876010D01*
X82716095Y-70891980D01*
X82348533Y-70987380D01*
X82348522Y-70987383D01*
X82345815Y-70988086D01*
X82187822Y-71044500D01*
X81928320Y-71137159D01*
X81928315Y-71137161D01*
X81925677Y-71138103D01*
X81923137Y-71139274D01*
X81923132Y-71139276D01*
X81814661Y-71189282D01*
X81520538Y-71324875D01*
X81518115Y-71326265D01*
X81518112Y-71326267D01*
X81512179Y-71329672D01*
X81133607Y-71546921D01*
X81131315Y-71548523D01*
X81131307Y-71548528D01*
X80840223Y-71751969D01*
X80767945Y-71802485D01*
X80765804Y-71804285D01*
X80765801Y-71804287D01*
X80539746Y-71994307D01*
X80426450Y-72089542D01*
X80424476Y-72091526D01*
X80424472Y-72091530D01*
X80336823Y-72179639D01*
X80111824Y-72405819D01*
X79826559Y-72748813D01*
X79824965Y-72751120D01*
X79824963Y-72751122D01*
X79728531Y-72890648D01*
X79572914Y-73115808D01*
X79491401Y-73259589D01*
X79484109Y-73272451D01*
X79433112Y-73321846D01*
X79363506Y-73335830D01*
X79297390Y-73309961D01*
X79255755Y-73252454D01*
X79248498Y-73210310D01*
X79248498Y-69137365D01*
X79249998Y-69117980D01*
X79252308Y-69103147D01*
X79252308Y-69103143D01*
X79253689Y-69094274D01*
X79251014Y-69073815D01*
X79250070Y-69051986D01*
X79250463Y-69043000D01*
X79265654Y-68695061D01*
X79266612Y-68684112D01*
X79270954Y-68651135D01*
X79317233Y-68299609D01*
X79319141Y-68288792D01*
X79320358Y-68283306D01*
X79403077Y-67910178D01*
X79405922Y-67899561D01*
X79444835Y-67776146D01*
X79522541Y-67529697D01*
X79526297Y-67519375D01*
X79533007Y-67503176D01*
X79674713Y-67161066D01*
X79679355Y-67151113D01*
X79858421Y-66807131D01*
X79863917Y-66797611D01*
X80072286Y-66470539D01*
X80078590Y-66461535D01*
X80314681Y-66153854D01*
X80321747Y-66145434D01*
X80401148Y-66058783D01*
X80583747Y-65859512D01*
X80591516Y-65851743D01*
X80594510Y-65849000D01*
X80877437Y-65589745D01*
X80885854Y-65582681D01*
X81193535Y-65346590D01*
X81202539Y-65340286D01*
X81529611Y-65131917D01*
X81539131Y-65126421D01*
X81883122Y-64947351D01*
X81893066Y-64942713D01*
X82251382Y-64794294D01*
X82261697Y-64790541D01*
X82631562Y-64673922D01*
X82642179Y-64671077D01*
X83020800Y-64587140D01*
X83031609Y-64585233D01*
X83416113Y-64534612D01*
X83427061Y-64533654D01*
X83776552Y-64518395D01*
X83801427Y-64519775D01*
X83813722Y-64521689D01*
X83822624Y-64520525D01*
X83822626Y-64520525D01*
X83838912Y-64518395D01*
X83845284Y-64517562D01*
X83861619Y-64516498D01*
X85775872Y-64516498D01*
X115190000Y-64516499D01*
G37*
%TD.AperFunction*%
%TD*%
M02*
