%TF.GenerationSoftware,KiCad,Pcbnew,6.0.8-f2edbf62ab~116~ubuntu22.04.1*%
%TF.CreationDate,2022-10-30T22:41:39-04:00*%
%TF.ProjectId,discharger,64697363-6861-4726-9765-722e6b696361,rev?*%
%TF.SameCoordinates,Original*%
%TF.FileFunction,Legend,Top*%
%TF.FilePolarity,Positive*%
%FSLAX46Y46*%
G04 Gerber Fmt 4.6, Leading zero omitted, Abs format (unit mm)*
G04 Created by KiCad (PCBNEW 6.0.8-f2edbf62ab~116~ubuntu22.04.1) date 2022-10-30 22:41:39*
%MOMM*%
%LPD*%
G01*
G04 APERTURE LIST*
%ADD10C,0.150000*%
%ADD11C,0.300000*%
%ADD12C,0.120000*%
G04 APERTURE END LIST*
D10*
X140397928Y-108046571D02*
X140540785Y-108094190D01*
X140588404Y-108141809D01*
X140636023Y-108237047D01*
X140636023Y-108379904D01*
X140588404Y-108475142D01*
X140540785Y-108522761D01*
X140445547Y-108570380D01*
X140064595Y-108570380D01*
X140064595Y-107570380D01*
X140397928Y-107570380D01*
X140493166Y-107618000D01*
X140540785Y-107665619D01*
X140588404Y-107760857D01*
X140588404Y-107856095D01*
X140540785Y-107951333D01*
X140493166Y-107998952D01*
X140397928Y-108046571D01*
X140064595Y-108046571D01*
X141493166Y-108570380D02*
X141493166Y-108046571D01*
X141445547Y-107951333D01*
X141350309Y-107903714D01*
X141159833Y-107903714D01*
X141064595Y-107951333D01*
X141493166Y-108522761D02*
X141397928Y-108570380D01*
X141159833Y-108570380D01*
X141064595Y-108522761D01*
X141016976Y-108427523D01*
X141016976Y-108332285D01*
X141064595Y-108237047D01*
X141159833Y-108189428D01*
X141397928Y-108189428D01*
X141493166Y-108141809D01*
X141826500Y-107903714D02*
X142207452Y-107903714D01*
X141969357Y-107570380D02*
X141969357Y-108427523D01*
X142016976Y-108522761D01*
X142112214Y-108570380D01*
X142207452Y-108570380D01*
X142397928Y-107903714D02*
X142778880Y-107903714D01*
X142540785Y-107570380D02*
X142540785Y-108427523D01*
X142588404Y-108522761D01*
X142683642Y-108570380D01*
X142778880Y-108570380D01*
X143493166Y-108522761D02*
X143397928Y-108570380D01*
X143207452Y-108570380D01*
X143112214Y-108522761D01*
X143064595Y-108427523D01*
X143064595Y-108046571D01*
X143112214Y-107951333D01*
X143207452Y-107903714D01*
X143397928Y-107903714D01*
X143493166Y-107951333D01*
X143540785Y-108046571D01*
X143540785Y-108141809D01*
X143064595Y-108237047D01*
X143969357Y-108570380D02*
X143969357Y-107903714D01*
X143969357Y-108094190D02*
X144016976Y-107998952D01*
X144064595Y-107951333D01*
X144159833Y-107903714D01*
X144255071Y-107903714D01*
X144493166Y-107903714D02*
X144731261Y-108570380D01*
X144969357Y-107903714D02*
X144731261Y-108570380D01*
X144636023Y-108808476D01*
X144588404Y-108856095D01*
X144493166Y-108903714D01*
X146112214Y-108570380D02*
X146112214Y-107570380D01*
X146350309Y-107570380D01*
X146493166Y-107618000D01*
X146588404Y-107713238D01*
X146636023Y-107808476D01*
X146683642Y-107998952D01*
X146683642Y-108141809D01*
X146636023Y-108332285D01*
X146588404Y-108427523D01*
X146493166Y-108522761D01*
X146350309Y-108570380D01*
X146112214Y-108570380D01*
X147112214Y-108570380D02*
X147112214Y-107903714D01*
X147112214Y-107570380D02*
X147064595Y-107618000D01*
X147112214Y-107665619D01*
X147159833Y-107618000D01*
X147112214Y-107570380D01*
X147112214Y-107665619D01*
X147540785Y-108522761D02*
X147636023Y-108570380D01*
X147826500Y-108570380D01*
X147921738Y-108522761D01*
X147969357Y-108427523D01*
X147969357Y-108379904D01*
X147921738Y-108284666D01*
X147826500Y-108237047D01*
X147683642Y-108237047D01*
X147588404Y-108189428D01*
X147540785Y-108094190D01*
X147540785Y-108046571D01*
X147588404Y-107951333D01*
X147683642Y-107903714D01*
X147826500Y-107903714D01*
X147921738Y-107951333D01*
X148826500Y-108522761D02*
X148731261Y-108570380D01*
X148540785Y-108570380D01*
X148445547Y-108522761D01*
X148397928Y-108475142D01*
X148350309Y-108379904D01*
X148350309Y-108094190D01*
X148397928Y-107998952D01*
X148445547Y-107951333D01*
X148540785Y-107903714D01*
X148731261Y-107903714D01*
X148826500Y-107951333D01*
X149255071Y-108570380D02*
X149255071Y-107570380D01*
X149683642Y-108570380D02*
X149683642Y-108046571D01*
X149636023Y-107951333D01*
X149540785Y-107903714D01*
X149397928Y-107903714D01*
X149302690Y-107951333D01*
X149255071Y-107998952D01*
X150588404Y-108570380D02*
X150588404Y-108046571D01*
X150540785Y-107951333D01*
X150445547Y-107903714D01*
X150255071Y-107903714D01*
X150159833Y-107951333D01*
X150588404Y-108522761D02*
X150493166Y-108570380D01*
X150255071Y-108570380D01*
X150159833Y-108522761D01*
X150112214Y-108427523D01*
X150112214Y-108332285D01*
X150159833Y-108237047D01*
X150255071Y-108189428D01*
X150493166Y-108189428D01*
X150588404Y-108141809D01*
X151064595Y-108570380D02*
X151064595Y-107903714D01*
X151064595Y-108094190D02*
X151112214Y-107998952D01*
X151159833Y-107951333D01*
X151255071Y-107903714D01*
X151350309Y-107903714D01*
X152112214Y-107903714D02*
X152112214Y-108713238D01*
X152064595Y-108808476D01*
X152016976Y-108856095D01*
X151921738Y-108903714D01*
X151778880Y-108903714D01*
X151683642Y-108856095D01*
X152112214Y-108522761D02*
X152016976Y-108570380D01*
X151826500Y-108570380D01*
X151731261Y-108522761D01*
X151683642Y-108475142D01*
X151636023Y-108379904D01*
X151636023Y-108094190D01*
X151683642Y-107998952D01*
X151731261Y-107951333D01*
X151826500Y-107903714D01*
X152016976Y-107903714D01*
X152112214Y-107951333D01*
X152969357Y-108522761D02*
X152874119Y-108570380D01*
X152683642Y-108570380D01*
X152588404Y-108522761D01*
X152540785Y-108427523D01*
X152540785Y-108046571D01*
X152588404Y-107951333D01*
X152683642Y-107903714D01*
X152874119Y-107903714D01*
X152969357Y-107951333D01*
X153016976Y-108046571D01*
X153016976Y-108141809D01*
X152540785Y-108237047D01*
X153445547Y-108570380D02*
X153445547Y-107903714D01*
X153445547Y-108094190D02*
X153493166Y-107998952D01*
X153540785Y-107951333D01*
X153636023Y-107903714D01*
X153731261Y-107903714D01*
X152255071Y-109513714D02*
X152493166Y-110180380D01*
X152731261Y-109513714D01*
X153064595Y-109275619D02*
X153112214Y-109228000D01*
X153207452Y-109180380D01*
X153445547Y-109180380D01*
X153540785Y-109228000D01*
X153588404Y-109275619D01*
X153636023Y-109370857D01*
X153636023Y-109466095D01*
X153588404Y-109608952D01*
X153016976Y-110180380D01*
X153636023Y-110180380D01*
X147302690Y-111504666D02*
X147778880Y-111504666D01*
X147207452Y-111790380D02*
X147540785Y-110790380D01*
X147874119Y-111790380D01*
X148350309Y-111790380D02*
X148255071Y-111742761D01*
X148207452Y-111647523D01*
X148207452Y-110790380D01*
X149159833Y-111790380D02*
X149159833Y-111266571D01*
X149112214Y-111171333D01*
X149016976Y-111123714D01*
X148826500Y-111123714D01*
X148731261Y-111171333D01*
X149159833Y-111742761D02*
X149064595Y-111790380D01*
X148826500Y-111790380D01*
X148731261Y-111742761D01*
X148683642Y-111647523D01*
X148683642Y-111552285D01*
X148731261Y-111457047D01*
X148826500Y-111409428D01*
X149064595Y-111409428D01*
X149159833Y-111361809D01*
X149636023Y-111123714D02*
X149636023Y-111790380D01*
X149636023Y-111218952D02*
X149683642Y-111171333D01*
X149778880Y-111123714D01*
X149921738Y-111123714D01*
X150016976Y-111171333D01*
X150064595Y-111266571D01*
X150064595Y-111790380D01*
X151302690Y-111790380D02*
X151302690Y-110790380D01*
X151302690Y-111266571D02*
X151874119Y-111266571D01*
X151874119Y-111790380D02*
X151874119Y-110790380D01*
X152302690Y-111742761D02*
X152397928Y-111790380D01*
X152588404Y-111790380D01*
X152683642Y-111742761D01*
X152731261Y-111647523D01*
X152731261Y-111599904D01*
X152683642Y-111504666D01*
X152588404Y-111457047D01*
X152445547Y-111457047D01*
X152350309Y-111409428D01*
X152302690Y-111314190D01*
X152302690Y-111266571D01*
X152350309Y-111171333D01*
X152445547Y-111123714D01*
X152588404Y-111123714D01*
X152683642Y-111171333D01*
X153588404Y-111123714D02*
X153588404Y-111790380D01*
X153159833Y-111123714D02*
X153159833Y-111647523D01*
X153207452Y-111742761D01*
X153302690Y-111790380D01*
X153445547Y-111790380D01*
X153540785Y-111742761D01*
X153588404Y-111695142D01*
X81748571Y-69667428D02*
X82510476Y-69667428D01*
X82129523Y-70048380D02*
X82129523Y-69286476D01*
X83320000Y-69524571D02*
X83462857Y-69572190D01*
X83510476Y-69619809D01*
X83558095Y-69715047D01*
X83558095Y-69857904D01*
X83510476Y-69953142D01*
X83462857Y-70000761D01*
X83367619Y-70048380D01*
X82986666Y-70048380D01*
X82986666Y-69048380D01*
X83320000Y-69048380D01*
X83415238Y-69096000D01*
X83462857Y-69143619D01*
X83510476Y-69238857D01*
X83510476Y-69334095D01*
X83462857Y-69429333D01*
X83415238Y-69476952D01*
X83320000Y-69524571D01*
X82986666Y-69524571D01*
X83939047Y-69762666D02*
X84415238Y-69762666D01*
X83843809Y-70048380D02*
X84177142Y-69048380D01*
X84510476Y-70048380D01*
X84700952Y-69048380D02*
X85272380Y-69048380D01*
X84986666Y-70048380D02*
X84986666Y-69048380D01*
X85462857Y-69048380D02*
X86034285Y-69048380D01*
X85748571Y-70048380D02*
X85748571Y-69048380D01*
X83058095Y-92464000D02*
X82962857Y-92416380D01*
X82820000Y-92416380D01*
X82677142Y-92464000D01*
X82581904Y-92559238D01*
X82534285Y-92654476D01*
X82486666Y-92844952D01*
X82486666Y-92987809D01*
X82534285Y-93178285D01*
X82581904Y-93273523D01*
X82677142Y-93368761D01*
X82820000Y-93416380D01*
X82915238Y-93416380D01*
X83058095Y-93368761D01*
X83105714Y-93321142D01*
X83105714Y-92987809D01*
X82915238Y-92987809D01*
X83534285Y-93416380D02*
X83534285Y-92416380D01*
X84105714Y-93416380D01*
X84105714Y-92416380D01*
X84581904Y-93416380D02*
X84581904Y-92416380D01*
X84820000Y-92416380D01*
X84962857Y-92464000D01*
X85058095Y-92559238D01*
X85105714Y-92654476D01*
X85153333Y-92844952D01*
X85153333Y-92987809D01*
X85105714Y-93178285D01*
X85058095Y-93273523D01*
X84962857Y-93368761D01*
X84820000Y-93416380D01*
X84581904Y-93416380D01*
X83566095Y-105672000D02*
X83470857Y-105624380D01*
X83328000Y-105624380D01*
X83185142Y-105672000D01*
X83089904Y-105767238D01*
X83042285Y-105862476D01*
X82994666Y-106052952D01*
X82994666Y-106195809D01*
X83042285Y-106386285D01*
X83089904Y-106481523D01*
X83185142Y-106576761D01*
X83328000Y-106624380D01*
X83423238Y-106624380D01*
X83566095Y-106576761D01*
X83613714Y-106529142D01*
X83613714Y-106195809D01*
X83423238Y-106195809D01*
X84042285Y-106624380D02*
X84042285Y-105624380D01*
X84613714Y-106624380D01*
X84613714Y-105624380D01*
X85089904Y-106624380D02*
X85089904Y-105624380D01*
X85328000Y-105624380D01*
X85470857Y-105672000D01*
X85566095Y-105767238D01*
X85613714Y-105862476D01*
X85661333Y-106052952D01*
X85661333Y-106195809D01*
X85613714Y-106386285D01*
X85566095Y-106481523D01*
X85470857Y-106576761D01*
X85328000Y-106624380D01*
X85089904Y-106624380D01*
X79621714Y-109005714D02*
X79621714Y-109672380D01*
X79383619Y-108624761D02*
X79145523Y-109339047D01*
X79764571Y-109339047D01*
X80145523Y-109577142D02*
X80193142Y-109624761D01*
X80145523Y-109672380D01*
X80097904Y-109624761D01*
X80145523Y-109577142D01*
X80145523Y-109672380D01*
X81097904Y-108672380D02*
X80621714Y-108672380D01*
X80574095Y-109148571D01*
X80621714Y-109100952D01*
X80716952Y-109053333D01*
X80955047Y-109053333D01*
X81050285Y-109100952D01*
X81097904Y-109148571D01*
X81145523Y-109243809D01*
X81145523Y-109481904D01*
X81097904Y-109577142D01*
X81050285Y-109624761D01*
X80955047Y-109672380D01*
X80716952Y-109672380D01*
X80621714Y-109624761D01*
X80574095Y-109577142D01*
X81431238Y-108672380D02*
X81764571Y-109672380D01*
X82097904Y-108672380D01*
X82431238Y-109291428D02*
X83193142Y-109291428D01*
X84193142Y-109672380D02*
X83621714Y-109672380D01*
X83907428Y-109672380D02*
X83907428Y-108672380D01*
X83812190Y-108815238D01*
X83716952Y-108910476D01*
X83621714Y-108958095D01*
X85097904Y-108672380D02*
X84621714Y-108672380D01*
X84574095Y-109148571D01*
X84621714Y-109100952D01*
X84716952Y-109053333D01*
X84955047Y-109053333D01*
X85050285Y-109100952D01*
X85097904Y-109148571D01*
X85145523Y-109243809D01*
X85145523Y-109481904D01*
X85097904Y-109577142D01*
X85050285Y-109624761D01*
X84955047Y-109672380D01*
X84716952Y-109672380D01*
X84621714Y-109624761D01*
X84574095Y-109577142D01*
X85431238Y-108672380D02*
X85764571Y-109672380D01*
X86097904Y-108672380D01*
X87193142Y-109672380D02*
X87193142Y-109005714D01*
X87193142Y-108672380D02*
X87145523Y-108720000D01*
X87193142Y-108767619D01*
X87240761Y-108720000D01*
X87193142Y-108672380D01*
X87193142Y-108767619D01*
X87669333Y-109005714D02*
X87669333Y-109672380D01*
X87669333Y-109100952D02*
X87716952Y-109053333D01*
X87812190Y-109005714D01*
X87955047Y-109005714D01*
X88050285Y-109053333D01*
X88097904Y-109148571D01*
X88097904Y-109672380D01*
X88574095Y-109005714D02*
X88574095Y-110005714D01*
X88574095Y-109053333D02*
X88669333Y-109005714D01*
X88859809Y-109005714D01*
X88955047Y-109053333D01*
X89002666Y-109100952D01*
X89050285Y-109196190D01*
X89050285Y-109481904D01*
X89002666Y-109577142D01*
X88955047Y-109624761D01*
X88859809Y-109672380D01*
X88669333Y-109672380D01*
X88574095Y-109624761D01*
X89907428Y-109005714D02*
X89907428Y-109672380D01*
X89478857Y-109005714D02*
X89478857Y-109529523D01*
X89526476Y-109624761D01*
X89621714Y-109672380D01*
X89764571Y-109672380D01*
X89859809Y-109624761D01*
X89907428Y-109577142D01*
X90240761Y-109005714D02*
X90621714Y-109005714D01*
X90383619Y-108672380D02*
X90383619Y-109529523D01*
X90431238Y-109624761D01*
X90526476Y-109672380D01*
X90621714Y-109672380D01*
D11*
X89836761Y-86962476D02*
X89836761Y-85724380D01*
X90598666Y-86391047D01*
X90598666Y-86105333D01*
X90693904Y-85914857D01*
X90789142Y-85819619D01*
X90979619Y-85724380D01*
X91455809Y-85724380D01*
X91646285Y-85819619D01*
X91741523Y-85914857D01*
X91836761Y-86105333D01*
X91836761Y-86676761D01*
X91741523Y-86867238D01*
X91646285Y-86962476D01*
X89836761Y-84486285D02*
X89836761Y-84295809D01*
X89932000Y-84105333D01*
X90027238Y-84010095D01*
X90217714Y-83914857D01*
X90598666Y-83819619D01*
X91074857Y-83819619D01*
X91455809Y-83914857D01*
X91646285Y-84010095D01*
X91741523Y-84105333D01*
X91836761Y-84295809D01*
X91836761Y-84486285D01*
X91741523Y-84676761D01*
X91646285Y-84772000D01*
X91455809Y-84867238D01*
X91074857Y-84962476D01*
X90598666Y-84962476D01*
X90217714Y-84867238D01*
X90027238Y-84772000D01*
X89932000Y-84676761D01*
X89836761Y-84486285D01*
X89836761Y-83248190D02*
X91836761Y-82581523D01*
X89836761Y-81914857D01*
X91836761Y-79724380D02*
X89836761Y-79724380D01*
X91265333Y-79057714D01*
X89836761Y-78391047D01*
X91836761Y-78391047D01*
X91265333Y-77533904D02*
X91265333Y-76581523D01*
X91836761Y-77724380D02*
X89836761Y-77057714D01*
X91836761Y-76391047D01*
X89836761Y-75914857D02*
X91836761Y-74581523D01*
X89836761Y-74581523D02*
X91836761Y-75914857D01*
D10*
%TO.C,R10*%
X144447642Y-86092380D02*
X144114309Y-85616190D01*
X143876214Y-86092380D02*
X143876214Y-85092380D01*
X144257166Y-85092380D01*
X144352404Y-85140000D01*
X144400023Y-85187619D01*
X144447642Y-85282857D01*
X144447642Y-85425714D01*
X144400023Y-85520952D01*
X144352404Y-85568571D01*
X144257166Y-85616190D01*
X143876214Y-85616190D01*
X145400023Y-86092380D02*
X144828595Y-86092380D01*
X145114309Y-86092380D02*
X145114309Y-85092380D01*
X145019071Y-85235238D01*
X144923833Y-85330476D01*
X144828595Y-85378095D01*
X146019071Y-85092380D02*
X146114309Y-85092380D01*
X146209547Y-85140000D01*
X146257166Y-85187619D01*
X146304785Y-85282857D01*
X146352404Y-85473333D01*
X146352404Y-85711428D01*
X146304785Y-85901904D01*
X146257166Y-85997142D01*
X146209547Y-86044761D01*
X146114309Y-86092380D01*
X146019071Y-86092380D01*
X145923833Y-86044761D01*
X145876214Y-85997142D01*
X145828595Y-85901904D01*
X145780976Y-85711428D01*
X145780976Y-85473333D01*
X145828595Y-85282857D01*
X145876214Y-85187619D01*
X145923833Y-85140000D01*
X146019071Y-85092380D01*
%TO.C,R8*%
X97877333Y-67000380D02*
X97544000Y-66524190D01*
X97305904Y-67000380D02*
X97305904Y-66000380D01*
X97686857Y-66000380D01*
X97782095Y-66048000D01*
X97829714Y-66095619D01*
X97877333Y-66190857D01*
X97877333Y-66333714D01*
X97829714Y-66428952D01*
X97782095Y-66476571D01*
X97686857Y-66524190D01*
X97305904Y-66524190D01*
X98448761Y-66428952D02*
X98353523Y-66381333D01*
X98305904Y-66333714D01*
X98258285Y-66238476D01*
X98258285Y-66190857D01*
X98305904Y-66095619D01*
X98353523Y-66048000D01*
X98448761Y-66000380D01*
X98639238Y-66000380D01*
X98734476Y-66048000D01*
X98782095Y-66095619D01*
X98829714Y-66190857D01*
X98829714Y-66238476D01*
X98782095Y-66333714D01*
X98734476Y-66381333D01*
X98639238Y-66428952D01*
X98448761Y-66428952D01*
X98353523Y-66476571D01*
X98305904Y-66524190D01*
X98258285Y-66619428D01*
X98258285Y-66809904D01*
X98305904Y-66905142D01*
X98353523Y-66952761D01*
X98448761Y-67000380D01*
X98639238Y-67000380D01*
X98734476Y-66952761D01*
X98782095Y-66905142D01*
X98829714Y-66809904D01*
X98829714Y-66619428D01*
X98782095Y-66524190D01*
X98734476Y-66476571D01*
X98639238Y-66428952D01*
%TO.C,START/STOP*%
X123635047Y-111656761D02*
X123777904Y-111704380D01*
X124016000Y-111704380D01*
X124111238Y-111656761D01*
X124158857Y-111609142D01*
X124206476Y-111513904D01*
X124206476Y-111418666D01*
X124158857Y-111323428D01*
X124111238Y-111275809D01*
X124016000Y-111228190D01*
X123825523Y-111180571D01*
X123730285Y-111132952D01*
X123682666Y-111085333D01*
X123635047Y-110990095D01*
X123635047Y-110894857D01*
X123682666Y-110799619D01*
X123730285Y-110752000D01*
X123825523Y-110704380D01*
X124063619Y-110704380D01*
X124206476Y-110752000D01*
X124492190Y-110704380D02*
X125063619Y-110704380D01*
X124777904Y-111704380D02*
X124777904Y-110704380D01*
X125349333Y-111418666D02*
X125825523Y-111418666D01*
X125254095Y-111704380D02*
X125587428Y-110704380D01*
X125920761Y-111704380D01*
X126825523Y-111704380D02*
X126492190Y-111228190D01*
X126254095Y-111704380D02*
X126254095Y-110704380D01*
X126635047Y-110704380D01*
X126730285Y-110752000D01*
X126777904Y-110799619D01*
X126825523Y-110894857D01*
X126825523Y-111037714D01*
X126777904Y-111132952D01*
X126730285Y-111180571D01*
X126635047Y-111228190D01*
X126254095Y-111228190D01*
X127111238Y-110704380D02*
X127682666Y-110704380D01*
X127396952Y-111704380D02*
X127396952Y-110704380D01*
X128730285Y-110656761D02*
X127873142Y-111942476D01*
X129016000Y-111656761D02*
X129158857Y-111704380D01*
X129396952Y-111704380D01*
X129492190Y-111656761D01*
X129539809Y-111609142D01*
X129587428Y-111513904D01*
X129587428Y-111418666D01*
X129539809Y-111323428D01*
X129492190Y-111275809D01*
X129396952Y-111228190D01*
X129206476Y-111180571D01*
X129111238Y-111132952D01*
X129063619Y-111085333D01*
X129016000Y-110990095D01*
X129016000Y-110894857D01*
X129063619Y-110799619D01*
X129111238Y-110752000D01*
X129206476Y-110704380D01*
X129444571Y-110704380D01*
X129587428Y-110752000D01*
X129873142Y-110704380D02*
X130444571Y-110704380D01*
X130158857Y-111704380D02*
X130158857Y-110704380D01*
X130968380Y-110704380D02*
X131158857Y-110704380D01*
X131254095Y-110752000D01*
X131349333Y-110847238D01*
X131396952Y-111037714D01*
X131396952Y-111371047D01*
X131349333Y-111561523D01*
X131254095Y-111656761D01*
X131158857Y-111704380D01*
X130968380Y-111704380D01*
X130873142Y-111656761D01*
X130777904Y-111561523D01*
X130730285Y-111371047D01*
X130730285Y-111037714D01*
X130777904Y-110847238D01*
X130873142Y-110752000D01*
X130968380Y-110704380D01*
X131825523Y-111704380D02*
X131825523Y-110704380D01*
X132206476Y-110704380D01*
X132301714Y-110752000D01*
X132349333Y-110799619D01*
X132396952Y-110894857D01*
X132396952Y-111037714D01*
X132349333Y-111132952D01*
X132301714Y-111180571D01*
X132206476Y-111228190D01*
X131825523Y-111228190D01*
%TO.C,J5*%
X153114476Y-87109571D02*
X152781142Y-87109571D01*
X152781142Y-87633380D02*
X152781142Y-86633380D01*
X153257333Y-86633380D01*
X153590666Y-87347666D02*
X154066857Y-87347666D01*
X153495428Y-87633380D02*
X153828761Y-86633380D01*
X154162095Y-87633380D01*
X154495428Y-87633380D02*
X154495428Y-86633380D01*
X155066857Y-87633380D01*
X155066857Y-86633380D01*
%TO.C,R9*%
X100974880Y-80938666D02*
X100498690Y-81272000D01*
X100974880Y-81510095D02*
X99974880Y-81510095D01*
X99974880Y-81129142D01*
X100022500Y-81033904D01*
X100070119Y-80986285D01*
X100165357Y-80938666D01*
X100308214Y-80938666D01*
X100403452Y-80986285D01*
X100451071Y-81033904D01*
X100498690Y-81129142D01*
X100498690Y-81510095D01*
X100974880Y-80462476D02*
X100974880Y-80272000D01*
X100927261Y-80176761D01*
X100879642Y-80129142D01*
X100736785Y-80033904D01*
X100546309Y-79986285D01*
X100165357Y-79986285D01*
X100070119Y-80033904D01*
X100022500Y-80081523D01*
X99974880Y-80176761D01*
X99974880Y-80367238D01*
X100022500Y-80462476D01*
X100070119Y-80510095D01*
X100165357Y-80557714D01*
X100403452Y-80557714D01*
X100498690Y-80510095D01*
X100546309Y-80462476D01*
X100593928Y-80367238D01*
X100593928Y-80176761D01*
X100546309Y-80081523D01*
X100498690Y-80033904D01*
X100403452Y-79986285D01*
%TO.C,R4*%
X94259833Y-68228380D02*
X93926500Y-67752190D01*
X93688404Y-68228380D02*
X93688404Y-67228380D01*
X94069357Y-67228380D01*
X94164595Y-67276000D01*
X94212214Y-67323619D01*
X94259833Y-67418857D01*
X94259833Y-67561714D01*
X94212214Y-67656952D01*
X94164595Y-67704571D01*
X94069357Y-67752190D01*
X93688404Y-67752190D01*
X95116976Y-67561714D02*
X95116976Y-68228380D01*
X94878880Y-67180761D02*
X94640785Y-67895047D01*
X95259833Y-67895047D01*
%TO.C,Q2*%
X126644119Y-69691238D02*
X126596500Y-69786476D01*
X126501261Y-69881714D01*
X126358404Y-70024571D01*
X126310785Y-70119809D01*
X126310785Y-70215047D01*
X126548880Y-70167428D02*
X126501261Y-70262666D01*
X126406023Y-70357904D01*
X126215547Y-70405523D01*
X125882214Y-70405523D01*
X125691738Y-70357904D01*
X125596500Y-70262666D01*
X125548880Y-70167428D01*
X125548880Y-69976952D01*
X125596500Y-69881714D01*
X125691738Y-69786476D01*
X125882214Y-69738857D01*
X126215547Y-69738857D01*
X126406023Y-69786476D01*
X126501261Y-69881714D01*
X126548880Y-69976952D01*
X126548880Y-70167428D01*
X125644119Y-69357904D02*
X125596500Y-69310285D01*
X125548880Y-69215047D01*
X125548880Y-68976952D01*
X125596500Y-68881714D01*
X125644119Y-68834095D01*
X125739357Y-68786476D01*
X125834595Y-68786476D01*
X125977452Y-68834095D01*
X126548880Y-69405523D01*
X126548880Y-68786476D01*
%TO.C,J4*%
X100544380Y-113283809D02*
X101353904Y-113283809D01*
X101449142Y-113236190D01*
X101496761Y-113188571D01*
X101544380Y-113093333D01*
X101544380Y-112902857D01*
X101496761Y-112807619D01*
X101449142Y-112760000D01*
X101353904Y-112712380D01*
X100544380Y-112712380D01*
X101544380Y-112236190D02*
X100544380Y-112236190D01*
X100544380Y-111855238D01*
X100592000Y-111760000D01*
X100639619Y-111712380D01*
X100734857Y-111664761D01*
X100877714Y-111664761D01*
X100972952Y-111712380D01*
X101020571Y-111760000D01*
X101068190Y-111855238D01*
X101068190Y-112236190D01*
X101544380Y-111236190D02*
X100544380Y-111236190D01*
X100544380Y-110998095D01*
X100592000Y-110855238D01*
X100687238Y-110760000D01*
X100782476Y-110712380D01*
X100972952Y-110664761D01*
X101115809Y-110664761D01*
X101306285Y-110712380D01*
X101401523Y-110760000D01*
X101496761Y-110855238D01*
X101544380Y-110998095D01*
X101544380Y-111236190D01*
X101544380Y-110236190D02*
X100544380Y-110236190D01*
%TO.C,SW1*%
X108352666Y-107440261D02*
X108495523Y-107487880D01*
X108733619Y-107487880D01*
X108828857Y-107440261D01*
X108876476Y-107392642D01*
X108924095Y-107297404D01*
X108924095Y-107202166D01*
X108876476Y-107106928D01*
X108828857Y-107059309D01*
X108733619Y-107011690D01*
X108543142Y-106964071D01*
X108447904Y-106916452D01*
X108400285Y-106868833D01*
X108352666Y-106773595D01*
X108352666Y-106678357D01*
X108400285Y-106583119D01*
X108447904Y-106535500D01*
X108543142Y-106487880D01*
X108781238Y-106487880D01*
X108924095Y-106535500D01*
X109257428Y-106487880D02*
X109495523Y-107487880D01*
X109686000Y-106773595D01*
X109876476Y-107487880D01*
X110114571Y-106487880D01*
X111019333Y-107487880D02*
X110447904Y-107487880D01*
X110733619Y-107487880D02*
X110733619Y-106487880D01*
X110638380Y-106630738D01*
X110543142Y-106725976D01*
X110447904Y-106773595D01*
X102862666Y-113477880D02*
X102862666Y-112477880D01*
X103243619Y-112477880D01*
X103338857Y-112525500D01*
X103386476Y-112573119D01*
X103434095Y-112668357D01*
X103434095Y-112811214D01*
X103386476Y-112906452D01*
X103338857Y-112954071D01*
X103243619Y-113001690D01*
X102862666Y-113001690D01*
X104434095Y-113477880D02*
X104100761Y-113001690D01*
X103862666Y-113477880D02*
X103862666Y-112477880D01*
X104243619Y-112477880D01*
X104338857Y-112525500D01*
X104386476Y-112573119D01*
X104434095Y-112668357D01*
X104434095Y-112811214D01*
X104386476Y-112906452D01*
X104338857Y-112954071D01*
X104243619Y-113001690D01*
X103862666Y-113001690D01*
X105386476Y-112525500D02*
X105291238Y-112477880D01*
X105148380Y-112477880D01*
X105005523Y-112525500D01*
X104910285Y-112620738D01*
X104862666Y-112715976D01*
X104815047Y-112906452D01*
X104815047Y-113049309D01*
X104862666Y-113239785D01*
X104910285Y-113335023D01*
X105005523Y-113430261D01*
X105148380Y-113477880D01*
X105243619Y-113477880D01*
X105386476Y-113430261D01*
X105434095Y-113382642D01*
X105434095Y-113049309D01*
X105243619Y-113049309D01*
X105862666Y-113477880D02*
X105862666Y-112477880D01*
X106196000Y-113192166D01*
X106529333Y-112477880D01*
X106529333Y-113477880D01*
X107719809Y-112430261D02*
X106862666Y-113715976D01*
X108053142Y-113477880D02*
X108053142Y-112477880D01*
X108291238Y-112477880D01*
X108434095Y-112525500D01*
X108529333Y-112620738D01*
X108576952Y-112715976D01*
X108624571Y-112906452D01*
X108624571Y-113049309D01*
X108576952Y-113239785D01*
X108529333Y-113335023D01*
X108434095Y-113430261D01*
X108291238Y-113477880D01*
X108053142Y-113477880D01*
X109053142Y-112954071D02*
X109386476Y-112954071D01*
X109529333Y-113477880D02*
X109053142Y-113477880D01*
X109053142Y-112477880D01*
X109529333Y-112477880D01*
X110291238Y-112954071D02*
X110434095Y-113001690D01*
X110481714Y-113049309D01*
X110529333Y-113144547D01*
X110529333Y-113287404D01*
X110481714Y-113382642D01*
X110434095Y-113430261D01*
X110338857Y-113477880D01*
X109957904Y-113477880D01*
X109957904Y-112477880D01*
X110291238Y-112477880D01*
X110386476Y-112525500D01*
X110434095Y-112573119D01*
X110481714Y-112668357D01*
X110481714Y-112763595D01*
X110434095Y-112858833D01*
X110386476Y-112906452D01*
X110291238Y-112954071D01*
X109957904Y-112954071D01*
X110957904Y-112477880D02*
X110957904Y-113287404D01*
X111005523Y-113382642D01*
X111053142Y-113430261D01*
X111148380Y-113477880D01*
X111338857Y-113477880D01*
X111434095Y-113430261D01*
X111481714Y-113382642D01*
X111529333Y-113287404D01*
X111529333Y-112477880D01*
X112529333Y-112525500D02*
X112434095Y-112477880D01*
X112291238Y-112477880D01*
X112148380Y-112525500D01*
X112053142Y-112620738D01*
X112005523Y-112715976D01*
X111957904Y-112906452D01*
X111957904Y-113049309D01*
X112005523Y-113239785D01*
X112053142Y-113335023D01*
X112148380Y-113430261D01*
X112291238Y-113477880D01*
X112386476Y-113477880D01*
X112529333Y-113430261D01*
X112576952Y-113382642D01*
X112576952Y-113049309D01*
X112386476Y-113049309D01*
%TO.C,R5*%
X97815833Y-68524380D02*
X97482500Y-68048190D01*
X97244404Y-68524380D02*
X97244404Y-67524380D01*
X97625357Y-67524380D01*
X97720595Y-67572000D01*
X97768214Y-67619619D01*
X97815833Y-67714857D01*
X97815833Y-67857714D01*
X97768214Y-67952952D01*
X97720595Y-68000571D01*
X97625357Y-68048190D01*
X97244404Y-68048190D01*
X98720595Y-67524380D02*
X98244404Y-67524380D01*
X98196785Y-68000571D01*
X98244404Y-67952952D01*
X98339642Y-67905333D01*
X98577738Y-67905333D01*
X98672976Y-67952952D01*
X98720595Y-68000571D01*
X98768214Y-68095809D01*
X98768214Y-68333904D01*
X98720595Y-68429142D01*
X98672976Y-68476761D01*
X98577738Y-68524380D01*
X98339642Y-68524380D01*
X98244404Y-68476761D01*
X98196785Y-68429142D01*
%TO.C,Q1*%
X101364761Y-69333619D02*
X101269523Y-69286000D01*
X101174285Y-69190761D01*
X101031428Y-69047904D01*
X100936190Y-69000285D01*
X100840952Y-69000285D01*
X100888571Y-69238380D02*
X100793333Y-69190761D01*
X100698095Y-69095523D01*
X100650476Y-68905047D01*
X100650476Y-68571714D01*
X100698095Y-68381238D01*
X100793333Y-68286000D01*
X100888571Y-68238380D01*
X101079047Y-68238380D01*
X101174285Y-68286000D01*
X101269523Y-68381238D01*
X101317142Y-68571714D01*
X101317142Y-68905047D01*
X101269523Y-69095523D01*
X101174285Y-69190761D01*
X101079047Y-69238380D01*
X100888571Y-69238380D01*
X102269523Y-69238380D02*
X101698095Y-69238380D01*
X101983809Y-69238380D02*
X101983809Y-68238380D01*
X101888571Y-68381238D01*
X101793333Y-68476476D01*
X101698095Y-68524095D01*
%TO.C,R3*%
X104481333Y-98284380D02*
X104148000Y-97808190D01*
X103909904Y-98284380D02*
X103909904Y-97284380D01*
X104290857Y-97284380D01*
X104386095Y-97332000D01*
X104433714Y-97379619D01*
X104481333Y-97474857D01*
X104481333Y-97617714D01*
X104433714Y-97712952D01*
X104386095Y-97760571D01*
X104290857Y-97808190D01*
X103909904Y-97808190D01*
X104814666Y-97284380D02*
X105433714Y-97284380D01*
X105100380Y-97665333D01*
X105243238Y-97665333D01*
X105338476Y-97712952D01*
X105386095Y-97760571D01*
X105433714Y-97855809D01*
X105433714Y-98093904D01*
X105386095Y-98189142D01*
X105338476Y-98236761D01*
X105243238Y-98284380D01*
X104957523Y-98284380D01*
X104862285Y-98236761D01*
X104814666Y-98189142D01*
%TO.C,C3*%
X104481333Y-92305142D02*
X104433714Y-92352761D01*
X104290857Y-92400380D01*
X104195619Y-92400380D01*
X104052761Y-92352761D01*
X103957523Y-92257523D01*
X103909904Y-92162285D01*
X103862285Y-91971809D01*
X103862285Y-91828952D01*
X103909904Y-91638476D01*
X103957523Y-91543238D01*
X104052761Y-91448000D01*
X104195619Y-91400380D01*
X104290857Y-91400380D01*
X104433714Y-91448000D01*
X104481333Y-91495619D01*
X104814666Y-91400380D02*
X105433714Y-91400380D01*
X105100380Y-91781333D01*
X105243238Y-91781333D01*
X105338476Y-91828952D01*
X105386095Y-91876571D01*
X105433714Y-91971809D01*
X105433714Y-92209904D01*
X105386095Y-92305142D01*
X105338476Y-92352761D01*
X105243238Y-92400380D01*
X104957523Y-92400380D01*
X104862285Y-92352761D01*
X104814666Y-92305142D01*
%TO.C,U2*%
X100852380Y-103377904D02*
X101661904Y-103377904D01*
X101757142Y-103330285D01*
X101804761Y-103282666D01*
X101852380Y-103187428D01*
X101852380Y-102996952D01*
X101804761Y-102901714D01*
X101757142Y-102854095D01*
X101661904Y-102806476D01*
X100852380Y-102806476D01*
X100947619Y-102377904D02*
X100900000Y-102330285D01*
X100852380Y-102235047D01*
X100852380Y-101996952D01*
X100900000Y-101901714D01*
X100947619Y-101854095D01*
X101042857Y-101806476D01*
X101138095Y-101806476D01*
X101280952Y-101854095D01*
X101852380Y-102425523D01*
X101852380Y-101806476D01*
%TO.C,C1*%
X86717142Y-101258666D02*
X86764761Y-101306285D01*
X86812380Y-101449142D01*
X86812380Y-101544380D01*
X86764761Y-101687238D01*
X86669523Y-101782476D01*
X86574285Y-101830095D01*
X86383809Y-101877714D01*
X86240952Y-101877714D01*
X86050476Y-101830095D01*
X85955238Y-101782476D01*
X85860000Y-101687238D01*
X85812380Y-101544380D01*
X85812380Y-101449142D01*
X85860000Y-101306285D01*
X85907619Y-101258666D01*
X86812380Y-100306285D02*
X86812380Y-100877714D01*
X86812380Y-100592000D02*
X85812380Y-100592000D01*
X85955238Y-100687238D01*
X86050476Y-100782476D01*
X86098095Y-100877714D01*
%TO.C,C2*%
X100052142Y-105830666D02*
X100099761Y-105878285D01*
X100147380Y-106021142D01*
X100147380Y-106116380D01*
X100099761Y-106259238D01*
X100004523Y-106354476D01*
X99909285Y-106402095D01*
X99718809Y-106449714D01*
X99575952Y-106449714D01*
X99385476Y-106402095D01*
X99290238Y-106354476D01*
X99195000Y-106259238D01*
X99147380Y-106116380D01*
X99147380Y-106021142D01*
X99195000Y-105878285D01*
X99242619Y-105830666D01*
X99242619Y-105449714D02*
X99195000Y-105402095D01*
X99147380Y-105306857D01*
X99147380Y-105068761D01*
X99195000Y-104973523D01*
X99242619Y-104925904D01*
X99337857Y-104878285D01*
X99433095Y-104878285D01*
X99575952Y-104925904D01*
X100147380Y-105497333D01*
X100147380Y-104878285D01*
%TO.C,TP1*%
X128786095Y-65756380D02*
X129357523Y-65756380D01*
X129071809Y-66756380D02*
X129071809Y-65756380D01*
X129690857Y-66756380D02*
X129690857Y-65756380D01*
X130071809Y-65756380D01*
X130167047Y-65804000D01*
X130214666Y-65851619D01*
X130262285Y-65946857D01*
X130262285Y-66089714D01*
X130214666Y-66184952D01*
X130167047Y-66232571D01*
X130071809Y-66280190D01*
X129690857Y-66280190D01*
X131214666Y-66756380D02*
X130643238Y-66756380D01*
X130928952Y-66756380D02*
X130928952Y-65756380D01*
X130833714Y-65899238D01*
X130738476Y-65994476D01*
X130643238Y-66042095D01*
%TO.C,R2*%
X109053333Y-98284380D02*
X108720000Y-97808190D01*
X108481904Y-98284380D02*
X108481904Y-97284380D01*
X108862857Y-97284380D01*
X108958095Y-97332000D01*
X109005714Y-97379619D01*
X109053333Y-97474857D01*
X109053333Y-97617714D01*
X109005714Y-97712952D01*
X108958095Y-97760571D01*
X108862857Y-97808190D01*
X108481904Y-97808190D01*
X109434285Y-97379619D02*
X109481904Y-97332000D01*
X109577142Y-97284380D01*
X109815238Y-97284380D01*
X109910476Y-97332000D01*
X109958095Y-97379619D01*
X110005714Y-97474857D01*
X110005714Y-97570095D01*
X109958095Y-97712952D01*
X109386666Y-98284380D01*
X110005714Y-98284380D01*
%TO.C,Q3*%
X126644119Y-80867238D02*
X126596500Y-80962476D01*
X126501261Y-81057714D01*
X126358404Y-81200571D01*
X126310785Y-81295809D01*
X126310785Y-81391047D01*
X126548880Y-81343428D02*
X126501261Y-81438666D01*
X126406023Y-81533904D01*
X126215547Y-81581523D01*
X125882214Y-81581523D01*
X125691738Y-81533904D01*
X125596500Y-81438666D01*
X125548880Y-81343428D01*
X125548880Y-81152952D01*
X125596500Y-81057714D01*
X125691738Y-80962476D01*
X125882214Y-80914857D01*
X126215547Y-80914857D01*
X126406023Y-80962476D01*
X126501261Y-81057714D01*
X126548880Y-81152952D01*
X126548880Y-81343428D01*
X125548880Y-80581523D02*
X125548880Y-79962476D01*
X125929833Y-80295809D01*
X125929833Y-80152952D01*
X125977452Y-80057714D01*
X126025071Y-80010095D01*
X126120309Y-79962476D01*
X126358404Y-79962476D01*
X126453642Y-80010095D01*
X126501261Y-80057714D01*
X126548880Y-80152952D01*
X126548880Y-80438666D01*
X126501261Y-80533904D01*
X126453642Y-80581523D01*
%TO.C,U1*%
X96916380Y-103377904D02*
X97725904Y-103377904D01*
X97821142Y-103330285D01*
X97868761Y-103282666D01*
X97916380Y-103187428D01*
X97916380Y-102996952D01*
X97868761Y-102901714D01*
X97821142Y-102854095D01*
X97725904Y-102806476D01*
X96916380Y-102806476D01*
X97916380Y-101806476D02*
X97916380Y-102377904D01*
X97916380Y-102092190D02*
X96916380Y-102092190D01*
X97059238Y-102187428D01*
X97154476Y-102282666D01*
X97202095Y-102377904D01*
%TO.C,J2*%
X82994666Y-104084380D02*
X82994666Y-103084380D01*
X83375619Y-103084380D01*
X83470857Y-103132000D01*
X83518476Y-103179619D01*
X83566095Y-103274857D01*
X83566095Y-103417714D01*
X83518476Y-103512952D01*
X83470857Y-103560571D01*
X83375619Y-103608190D01*
X82994666Y-103608190D01*
X83899428Y-103084380D02*
X84137523Y-104084380D01*
X84328000Y-103370095D01*
X84518476Y-104084380D01*
X84756571Y-103084380D01*
X85708952Y-104084380D02*
X85375619Y-103608190D01*
X85137523Y-104084380D02*
X85137523Y-103084380D01*
X85518476Y-103084380D01*
X85613714Y-103132000D01*
X85661333Y-103179619D01*
X85708952Y-103274857D01*
X85708952Y-103417714D01*
X85661333Y-103512952D01*
X85613714Y-103560571D01*
X85518476Y-103608190D01*
X85137523Y-103608190D01*
%TO.C,R6*%
X97877333Y-77372380D02*
X97544000Y-76896190D01*
X97305904Y-77372380D02*
X97305904Y-76372380D01*
X97686857Y-76372380D01*
X97782095Y-76420000D01*
X97829714Y-76467619D01*
X97877333Y-76562857D01*
X97877333Y-76705714D01*
X97829714Y-76800952D01*
X97782095Y-76848571D01*
X97686857Y-76896190D01*
X97305904Y-76896190D01*
X98734476Y-76372380D02*
X98544000Y-76372380D01*
X98448761Y-76420000D01*
X98401142Y-76467619D01*
X98305904Y-76610476D01*
X98258285Y-76800952D01*
X98258285Y-77181904D01*
X98305904Y-77277142D01*
X98353523Y-77324761D01*
X98448761Y-77372380D01*
X98639238Y-77372380D01*
X98734476Y-77324761D01*
X98782095Y-77277142D01*
X98829714Y-77181904D01*
X98829714Y-76943809D01*
X98782095Y-76848571D01*
X98734476Y-76800952D01*
X98639238Y-76753333D01*
X98448761Y-76753333D01*
X98353523Y-76800952D01*
X98305904Y-76848571D01*
X98258285Y-76943809D01*
%TO.C,U3*%
X143510095Y-77684380D02*
X143510095Y-78493904D01*
X143557714Y-78589142D01*
X143605333Y-78636761D01*
X143700571Y-78684380D01*
X143891047Y-78684380D01*
X143986285Y-78636761D01*
X144033904Y-78589142D01*
X144081523Y-78493904D01*
X144081523Y-77684380D01*
X144462476Y-77684380D02*
X145081523Y-77684380D01*
X144748190Y-78065333D01*
X144891047Y-78065333D01*
X144986285Y-78112952D01*
X145033904Y-78160571D01*
X145081523Y-78255809D01*
X145081523Y-78493904D01*
X145033904Y-78589142D01*
X144986285Y-78636761D01*
X144891047Y-78684380D01*
X144605333Y-78684380D01*
X144510095Y-78636761D01*
X144462476Y-78589142D01*
%TO.C,D1*%
X91209904Y-94972380D02*
X91209904Y-93972380D01*
X91448000Y-93972380D01*
X91590857Y-94020000D01*
X91686095Y-94115238D01*
X91733714Y-94210476D01*
X91781333Y-94400952D01*
X91781333Y-94543809D01*
X91733714Y-94734285D01*
X91686095Y-94829523D01*
X91590857Y-94924761D01*
X91448000Y-94972380D01*
X91209904Y-94972380D01*
X92733714Y-94972380D02*
X92162285Y-94972380D01*
X92448000Y-94972380D02*
X92448000Y-93972380D01*
X92352761Y-94115238D01*
X92257523Y-94210476D01*
X92162285Y-94258095D01*
%TO.C,D2*%
X138448904Y-80312380D02*
X138448904Y-79312380D01*
X138687000Y-79312380D01*
X138829857Y-79360000D01*
X138925095Y-79455238D01*
X138972714Y-79550476D01*
X139020333Y-79740952D01*
X139020333Y-79883809D01*
X138972714Y-80074285D01*
X138925095Y-80169523D01*
X138829857Y-80264761D01*
X138687000Y-80312380D01*
X138448904Y-80312380D01*
X139401285Y-79407619D02*
X139448904Y-79360000D01*
X139544142Y-79312380D01*
X139782238Y-79312380D01*
X139877476Y-79360000D01*
X139925095Y-79407619D01*
X139972714Y-79502857D01*
X139972714Y-79598095D01*
X139925095Y-79740952D01*
X139353666Y-80312380D01*
X139972714Y-80312380D01*
%TO.C,TP2*%
X128786095Y-76424380D02*
X129357523Y-76424380D01*
X129071809Y-77424380D02*
X129071809Y-76424380D01*
X129690857Y-77424380D02*
X129690857Y-76424380D01*
X130071809Y-76424380D01*
X130167047Y-76472000D01*
X130214666Y-76519619D01*
X130262285Y-76614857D01*
X130262285Y-76757714D01*
X130214666Y-76852952D01*
X130167047Y-76900571D01*
X130071809Y-76948190D01*
X129690857Y-76948190D01*
X130643238Y-76519619D02*
X130690857Y-76472000D01*
X130786095Y-76424380D01*
X131024190Y-76424380D01*
X131119428Y-76472000D01*
X131167047Y-76519619D01*
X131214666Y-76614857D01*
X131214666Y-76710095D01*
X131167047Y-76852952D01*
X130595619Y-77424380D01*
X131214666Y-77424380D01*
D12*
%TO.C,R10*%
X145817564Y-82910000D02*
X144363436Y-82910000D01*
X145817564Y-84730000D02*
X144363436Y-84730000D01*
%TO.C,R8*%
X102265564Y-65638000D02*
X100811436Y-65638000D01*
X102265564Y-67458000D02*
X100811436Y-67458000D01*
%TO.C,START/STOP*%
X119622000Y-104196000D02*
X118122000Y-104196000D01*
X115622000Y-105446000D02*
X115622000Y-109946000D01*
X118122000Y-111196000D02*
X119622000Y-111196000D01*
X122122000Y-109946000D02*
X122122000Y-105446000D01*
%TO.C,J5*%
X152594000Y-86181000D02*
X155254000Y-86181000D01*
X152594000Y-81041000D02*
X152594000Y-86181000D01*
X152594000Y-79771000D02*
X152594000Y-78441000D01*
X155254000Y-81041000D02*
X155254000Y-86181000D01*
X152594000Y-78441000D02*
X153924000Y-78441000D01*
X152594000Y-81041000D02*
X155254000Y-81041000D01*
%TO.C,J3*%
X119544000Y-89311000D02*
X119544000Y-100311000D01*
X119544000Y-89311000D02*
X152744000Y-89311000D01*
X152744000Y-100311000D02*
X119544000Y-100311000D01*
X152744000Y-89311000D02*
X152744000Y-100311000D01*
%TO.C,R9*%
X101644500Y-80044936D02*
X101644500Y-81499064D01*
X103464500Y-80044936D02*
X103464500Y-81499064D01*
%TO.C,R4*%
X93699436Y-70506000D02*
X95153564Y-70506000D01*
X93699436Y-68686000D02*
X95153564Y-68686000D01*
%TO.C,Q2*%
X125096500Y-64476000D02*
X109206500Y-64476000D01*
X125096500Y-64476000D02*
X125096500Y-74716000D01*
X125096500Y-74716000D02*
X109206500Y-74716000D01*
X109206500Y-64476000D02*
X109206500Y-74716000D01*
X109206500Y-69596000D02*
X106666500Y-69596000D01*
X109206500Y-72136000D02*
X106666500Y-72136000D01*
X109206500Y-67056000D02*
X106666500Y-67056000D01*
%TO.C,J1*%
X78820000Y-89780000D02*
X78820000Y-70780000D01*
X80820000Y-91780000D02*
X78820000Y-89780000D01*
X88820000Y-89780000D02*
X86820000Y-91780000D01*
X88820000Y-70780000D02*
X88820000Y-89780000D01*
X86820000Y-91780000D02*
X80820000Y-91780000D01*
X78820000Y-70780000D02*
X88820000Y-70780000D01*
%TO.C,J4*%
X92142000Y-110430000D02*
X92142000Y-113090000D01*
X97282000Y-110430000D02*
X92142000Y-110430000D01*
X98552000Y-110430000D02*
X99882000Y-110430000D01*
X97282000Y-113090000D02*
X92142000Y-113090000D01*
X99882000Y-110430000D02*
X99882000Y-111760000D01*
X97282000Y-110430000D02*
X97282000Y-113090000D01*
%TO.C,SW1*%
X103286000Y-108075500D02*
X103286000Y-107765500D01*
X105696000Y-107565500D02*
X106196000Y-107065500D01*
X106196000Y-107065500D02*
X105196000Y-107065500D01*
X103286000Y-112285500D02*
X103286000Y-111975500D01*
X105196000Y-107065500D02*
X105696000Y-107565500D01*
X112106000Y-112285500D02*
X112106000Y-111975500D01*
X112106000Y-107765500D02*
X112106000Y-108075500D01*
X112106000Y-112285500D02*
X103286000Y-112285500D01*
X103286000Y-107765500D02*
X112106000Y-107765500D01*
%TO.C,R5*%
X97072500Y-70392936D02*
X97072500Y-71847064D01*
X98892500Y-70392936D02*
X98892500Y-71847064D01*
%TO.C,Q1*%
X101460000Y-69626000D02*
X102110000Y-69626000D01*
X101460000Y-72746000D02*
X102110000Y-72746000D01*
X101460000Y-69626000D02*
X99785000Y-69626000D01*
X101460000Y-72746000D02*
X100810000Y-72746000D01*
%TO.C,R3*%
X105375064Y-95102000D02*
X103920936Y-95102000D01*
X105375064Y-96922000D02*
X103920936Y-96922000D01*
%TO.C,C3*%
X104909252Y-92737000D02*
X104386748Y-92737000D01*
X104909252Y-94207000D02*
X104386748Y-94207000D01*
%TO.C,U2*%
X102245000Y-102616000D02*
X102245000Y-100666000D01*
X111115000Y-102616000D02*
X111115000Y-100666000D01*
X102245000Y-102616000D02*
X102245000Y-106066000D01*
X111115000Y-102616000D02*
X111115000Y-104566000D01*
%TO.C,C1*%
X87149000Y-100830748D02*
X87149000Y-101353252D01*
X88619000Y-100830748D02*
X88619000Y-101353252D01*
%TO.C,C2*%
X98779000Y-105925252D02*
X98779000Y-105402748D01*
X97309000Y-105925252D02*
X97309000Y-105402748D01*
%TO.C,R2*%
X109947064Y-95102000D02*
X108492936Y-95102000D01*
X109947064Y-96922000D02*
X108492936Y-96922000D01*
%TO.C,Q3*%
X125096500Y-75652000D02*
X109206500Y-75652000D01*
X125096500Y-75652000D02*
X125096500Y-85892000D01*
X125096500Y-85892000D02*
X109206500Y-85892000D01*
X109206500Y-75652000D02*
X109206500Y-85892000D01*
X109206500Y-80772000D02*
X106666500Y-80772000D01*
X109206500Y-83312000D02*
X106666500Y-83312000D01*
X109206500Y-78232000D02*
X106666500Y-78232000D01*
%TO.C,U1*%
X96374000Y-98516000D02*
X96374000Y-104526000D01*
X89554000Y-100766000D02*
X89554000Y-104526000D01*
X89554000Y-104526000D02*
X90814000Y-104526000D01*
X96374000Y-104526000D02*
X95114000Y-104526000D01*
%TO.C,J2*%
X79442000Y-107502000D02*
X82102000Y-107502000D01*
X79442000Y-102362000D02*
X79442000Y-107502000D01*
X79442000Y-101092000D02*
X79442000Y-99762000D01*
X82102000Y-102362000D02*
X82102000Y-107502000D01*
X79442000Y-99762000D02*
X80772000Y-99762000D01*
X79442000Y-102362000D02*
X82102000Y-102362000D01*
%TO.C,R6*%
X97316936Y-79650000D02*
X98771064Y-79650000D01*
X97316936Y-77830000D02*
X98771064Y-77830000D01*
%TO.C,U3*%
X155130000Y-67016000D02*
X139240000Y-67016000D01*
X155130000Y-67016000D02*
X155130000Y-77256000D01*
X155130000Y-77256000D02*
X139240000Y-77256000D01*
X139240000Y-67016000D02*
X139240000Y-77256000D01*
X139240000Y-72136000D02*
X136700000Y-72136000D01*
X139240000Y-74676000D02*
X136700000Y-74676000D01*
X139240000Y-69596000D02*
X136700000Y-69596000D01*
%TO.C,D1*%
X89698000Y-95520000D02*
X93598000Y-95520000D01*
X89698000Y-95520000D02*
X89698000Y-97520000D01*
X89698000Y-97520000D02*
X93598000Y-97520000D01*
%TO.C,D2*%
X136627000Y-82275000D02*
X136627000Y-85365000D01*
X136627000Y-85364830D02*
G75*
G03*
X142177000Y-83819538I2560000J1544830D01*
G01*
X142177000Y-83820462D02*
G75*
G03*
X136627000Y-82275170I-2990000J462D01*
G01*
X141687000Y-83820000D02*
G75*
G03*
X141687000Y-83820000I-2500000J0D01*
G01*
%TD*%
M02*
